<svg xmlns="http://www.w3.org/2000/svg" width="273.989" height="257.699" viewBox="183.715 494.744 205.492 193.274" xmlns:v="https://vecta.io/nano"><style><![CDATA[.B{opacity:.7}.C{stroke-linecap:round}.D{stroke-linejoin:round}]]></style><g fill="none" class="C D"><g stroke="#54ca72"><path stroke-width="5.5" d="M231.563 513.727q0 .033 0 .093-.343.157-3.693 2.892-3.35 2.736-5.758 6.1-2.408 3.374-3.94 5.87-1.53 2.497-3.388 5.938-1.857 3.44-3.326 7.416-1.47 3.976-2.418 7.36-.947 3.386-1.362 7.234-.415 3.847-.42 6.346-.004 2.498.912 3.755.916 1.257 1.88 1.638.965.38 1.76.573.796.193 1.69.56.894.366 4.668.577 3.775.212 5.694.11 1.92-.104 3.4.27 1.48.375 2.312.81.834.435 1.345 1.783.51 1.35-2.264 5.637-2.775 4.287-4.212 6.868-1.437 2.58-2.54 4.48-1.1 1.9-1.833 3.057-.73 1.157-.976 2.986-.245 1.83-.194 5.556.052 3.726-.144 7.22-.196 3.495-.608 5.464-.413 1.97-.322 3.317.092 1.35.254 1.994.163.645.373.72.21.075.433.2.222.126.557.205.336.08.275.036-.06-.043.042.087.104.13 1.406.545 1.302.416 3.4.867.592.545-.81 3.88-1.403 3.334-3.336 6.148-1.934 2.814-2.688 4.366-.755 1.553-1.227 2.54-.472.988-1.116 2.708-.645 1.72-1.023 3.005-.378 1.285-.53 3.316-.153 2.03-.193 3.2-.04 1.168.016 1.626.057.457-.147.622-.204.165-.43.577-.226.412-.28.528-.056.116-.333 1.338-.278 1.223-.22 2.533.058 1.3.058 1.564" class="B"/><path stroke-width="6.277" d="M200.253 645.49q0-.55 0-.464v-.033q-.037 0-.074 0-.43-.108.977 6.2 1.405 6.307 1.795 12.628.39 6.32.476 9.097.087 2.777.147 4.522.06 1.744 1.706 2.093-.093.523 2.36-5.067 2.452-5.6 6.317-11.185 3.866-5.595 6.3-8.957 2.424-3.362 3.28-4.88.855-1.517 1.285-2.33.43-.81.63-1.25 0 .033 0 .133.046-.03-.485-.156-.53-.126-1.962-1.393-1.432-1.266-1.807-1.708" class="B"/><path stroke-width="5.883" d="M294.388 522.912q-.296.558-.404.536-.794 1.134-1.907 2.81-1.114 1.674-4.52 6.546-3.407 4.87-5.613 8.843-2.206 3.97-4.177 7.987-1.97 4.016-3.315 8.583-1.343 4.567-1.725 7.4-.383 2.832-.434 4.61-.05 1.78.325 3.306.374 1.526 2.403 2.956 2.03 1.43 4.963 2.26 2.933.83 6.468.037 3.536-.795 5.758-1.484 2.222-.69 3.158-.64.937.05 1.777.177.84.128 1.146 1.175.307 1.047.116 2.674-.2 1.628-.97 3.07-.78 1.442-1.3 2.688-.52 1.247-1.664 3.668-1.145 2.42-2.48 5.866-1.336 3.444-2.025 5.37-.688 1.926-1.087 3.026-.398 1.1-.085 2.088.313.986.85 1.437.535.45.44.333-.095-.12.06-.044.155.076.385.332.23.256.234.494.004.24.275.236.272-.003-1.237 4.02-1.508 4.024-3.6 8.186-2.093 4.16-3.603 8.4-.3.102.326.05.636-.053 1.097.258.46.31 1.183.763.722.452.124 2.708-.597 2.256-1.864 5.8-1.268 3.535-1.513 6.855-.246 3.32-1.297 5.355-1.052 2.036-1.206 2.157" class="B"/><path stroke-width="6.101" d="M266.258 644.994q0-1.205 0-1l-.03-.154q-.096-.028-.317.033-.08-.307-.403 7.47-.324 7.78 3.28 27.565.89-.046 2.16-3.498 1.268-3.452 4.562-9.63 3.294-6.18 5.088-9.23 1.793-3.05 4.773-6.763 2.98-3.713 4.894-8.045-.476-.233-5.64-.182-5.165.052-9.312-.397-4.147-.448-4.802-.354" class="B"/><path stroke-width="7.932" d="M381.517 514.6q-1.086 0-.84 0-1.668.536-1.155.475.54-.604-2.277 2.688-2.816 3.292-5.99 7.067-3.173 3.775-5.095 6.267-1.922 2.492-3.244 4.378-1.32 1.887-3.208 5.5-1.888 3.613-4.454 9.957-2.566 6.345-3.85 10.02-1.284 3.676-1.684 6.096-.4 2.42.53 4.272.93 1.852 2.625 3.954 1.696 2.102 5.78 2.118 4.086.016 7.27-.664 3.184-.68 4.672-.65 1.487.03 3.246-.162 1.758-.19 1.913 3.67.155 3.86-1 8.11-1.145 4.25-2.1 9.223-.953 4.975-1.205 7.31-.252 2.333-.208 3.227.045.894.264 1.22.22.328.78.48.56.152 1.386.134.825-.017 1.83-.204 1.005-.188 1.725-.156.792 1.564-3.116 8.02-3.908 6.456-6.184 10.064-2.277 3.608-3.238 5.53-.962 1.922-1.346 3.292-.384 1.37.523 2.955.906 1.585 1.187 2.23.28.644.386 1.18.105.536.177 1.2.073.675.15 1.23.078.555.486 11.552 0-.033-.03-.378-.03-.345-.088-.693" class="B"/><path stroke-width="8.03" d="M351.15 657.25q-.075.27-3.975-7.883h-.03q-.313-.002 1.314 7.053 1.628 7.056 2.78 11.226 1.154 4.17 2.002 5.823.848 1.653 1.436 2.634.587.98 1.23 1.195.64.216 1.724-.232 1.082-.447 2.022-2.116.94-1.668 2.436-4.26 1.497-2.593 4.82-9.34 3.324-6.747 5.304-15.32-1.76-.358-1.383-.248-.013.05-4.236-.442-4.224-.49-10.497 1.226-6.273 1.717-6.774 1.932" class="B"/></g><g stroke="#000" stroke-width="6"><path d="M233.815 501.417q-.16.092-2.135.387-1.975.296-4.38 1.523-2.407 1.228-4.457 2.8-2.05 1.572-5.326 5.24-3.275 3.667-5.167 6.483-1.89 2.815-3.46 5.834-1.567 3.018-2.93 7.13-1.362 4.112-1.677 7.114-.315 3.003-.122 4.646.192 1.642 1.2 3.838 1 2.195 2.402 3.642 1.403 1.446 4.175 3.07 2.772 1.625 4.542 2.71 1.77 1.085 3.55 2.622 1.778 1.536 2.608 2.64.83 1.103 1.256 2.846.426 1.743-.25 4.62-.675 2.876-3.177 7.05-2.503 4.173-4.236 6.94-1.734 2.77-2.937 5.41-1.203 2.64-1.596 4.38-.392 1.74-.336 2.78.057 1.04.133 1.462.075.422.564 1.404.49.982.832 1.426.342.444.8 1.968.447 1.524.565 2.732.117 1.208.164 2.06.046.85-.263 2.907-.31 2.056-1.56 5.538-1.25 3.482-2.608 9.4-1.357 5.917-1.485 12.5l.263.983"/><path d="M189.316 647.997l.32 1.08q.525 1.338 2.35 8.815 1.826 7.477 4.424 21.845.03-.25 3.237-6.928 3.208-6.68 7.374-13.24 4.166-6.56 6.398-9.5 2.232-2.95 4.032-6.575 1.8-3.626 1.7-4.243-.1-.616-3.197-1.894-3.106-1.277-6.872-1.544-3.767-.267-14.242-.923l-.795.112m109.65-130.406q-.743-.177-2.028-.08-1.284.098-2.32.363-1.036.264-3.438 1.697-2.4 1.432-4 2.72-1.6 1.286-4.22 3.875-2.63 2.6-5.017 6.67-2.386 4.08-3.487 6.837-1.1 2.757-2.014 6.47-.914 3.713-.97 7.2-.055 3.498.206 5.606.262 2.107 1.105 4.208.844 2.1 2.532 4.086 1.7 1.985 3.068 3.125 1.38 1.14 2.913 2.123 1.534.982 2.64 1.918 1.105.935 1.8 3.083.695 2.148-2.54 9.693-3.237 7.545-5.48 12.094-2.242 4.55-3.36 7.178-1.117 2.63-2 7.168-.873 4.538-.94 8.68-.066 4.142.076 8.175.14 4.032.915 10.824.12.215.565.94.204 1.1-1.318 6.972-1.52 5.872-2.374 9.4-.853 3.538-1.158 4.848"/><path d="M255.998 644.243q.178.287 1.96 7.06 1.783 6.774 2.837 11.66 1.054 4.886 1.65 6.726.594 1.84.93 2.352.336.513.562.718.226.205.385.26.16.055.22.063.06.01 2.652-3.814 2.592-3.822 5.315-8.944 2.724-5.123 3.988-7.4 1.263-2.267 3.195-5.236 1.93-2.968 3.694-5.35 1.763-2.383 3.098-4.498 1.335-2.116 1.588-3.642-.267-.608-4.393-.918-4.127-.3-22.484 4.045l-1.62.164M381.34 500.346q-1.02.54-3.606 2.904-2.588 2.365-4.22 4.377-1.633 2.012-2.66 3.44-1.027 1.428-1.677 2.352-.65.924-3.318 5.442-2.668 4.518-4.354 8.783-1.686 4.265-2.207 6.388-.52 2.124-.652 4.964-.13 2.84.52 5.176.65 2.335 3.48 6.3 2.83 3.966 4.578 6.386 1.75 2.42 2.248 3.438.498 1.017.75 2.876.25 1.858-1.3 6.672-1.562 4.814-3.242 9.702-1.68 4.888-2.258 7.548-.577 2.66-.74 5.28-.16 2.62-.122 3.732.04 1.113.602 3.036.562 1.922 1.03 3.2.47 1.277.797 3.556.328 2.28-.085 4.145-.412 1.865-2.374 6.304-1.962 4.44-3.494 7.9-1.533 3.47-2.263 6.65-.73 3.18-.883 9.602-.154 6.42-.12 9.362.033 2.94.055 4.47.02 1.528-.024 2.2-.045.662-.27 1.7"/><path d="M340.448 645.557q.08.11-.027.13-.107.018-.217.124-.11.107 1.956 5.6 2.068 5.484 4.13 11.437 2.063 5.953 2.946 8.3.883 2.337 1.338 3.04.455.703.47.705.015.002.63.403.615.402 1.772-1.7 1.156-2.1 3.62-7.135 2.464-5.034 5.546-9.712 3.082-4.678 10.224-18.734-.1-.194-3.123-1.084-3.034-.9-6.827-.728-3.793.16-8.122.33-4.33.17-6.758-.044-2.428-.214-3.384-.48-.957-.268-1.194-.38-.238-.113-2.157-1.23"/></g></g></svg>