<svg xmlns="http://www.w3.org/2000/svg" width="1756.683" height="856.239" viewBox="1465.744 365.21 1317.512 642.179" xmlns:v="https://vecta.io/nano"><style><![CDATA[.B{stroke-linecap:round}.C{stroke-linejoin:round}]]></style><g fill="none" stroke="#000" class="B C"><g stroke-width="6.808"><path d="M1731.235 459.34q.773 1.705 3.553 6.998 2.78 5.294 4.922 9.28 2.142 3.986 3.477 6.478 1.336 2.493 3.282 5.837 1.946 3.345 3.6 5.853 1.664 2.507 3.035 5.058 1.37 2.55 2.1 4.133.72 1.58 1.256 3.17.536 1.6.952 5.23.415 3.64.443 5.602.028 1.963-.08 4.3-.107 2.336.07 4.32.266.78 2.06 5.88 1.793 5.1 3.924 10.407 2.13 5.306 3.18 7.985 1.05 2.678 1.942 5.1.892 2.423 3.17 8.583 2.278 6.16 3.298 9.368 1.02 3.207 1.734 7.33.713 4.124-.472 8.737-.035.117-1.96 1.1-1.927.993-3.227 1.288-1.3.294-3.217.26-1.916-.033-2.83-.124-.913-.1-2.702-.54-1.8-.448-2.9-.908-1.102-.46-1.802-.844-.7-.384-3.2-1.916-2.5-1.532-3.468-2.304-.97-.772-1.817-1.892-.847-1.12-1.206-1.83-.358-.7-.87-1.6m11.876 11.73q.115 1.05.12 1.227.005.177.204 1.87.198 1.694.418 3.172.22 1.478.25 2.565.03 1.088-.065 2.74.026.284-1.04 1.546-1.065 1.263-1.642 1.97-.577.707-1.054 1.167-.478.46-1.167 1.018-.7.558-1.887 1.454-1.2.895-1.718 1.233-.52.337-.97.573-.45.236-1.443.516m7.778-3.836l.527 1.113q3.008 7.057 3.464 9.448.457 2.392.493 3.83.036 1.44-.143 2.3-.18.87-.433 2.423-.254 1.552-.393 2.422-.138.87-.117 1.384.022.513-.02.64-.04.128.17 1.15.2 1.02.445 1.612.233.592.863 2.792.63 2.2 1.142 6.723.513 4.524.154 6.9-.36 2.376-.778 3.336-.418.96-.86 1.56-.44.6-1.807 1.687-1.365 1.087-2.027 1.425-.662.337-1.26.58-.596.243-1.17.478-.574.236-.688.306-.113.07-1.23.376-1.117.305-2.912.564-1.796.26-4.167.612-2.37.353-3.5.5-1.12.148-2.297.244-1.178.096-5.597.417-4.42.32-6.415.34-1.995.02-4.718-.122-2.722-.14-4.865-.373-2.142-.232-3.485-.433-1.342-.202-2.2-.315-.867-.114-2-.326-1.124-.212-2.578-.47-1.455-.257-1.5-.25-.056.008-1.88-.238-1.823-.246-3.364-.615-1.54-.37-2.012-.46-.47-.1-2.175-.35-1.704-.262-4.894-.713-3.2-.45-3.557-.575-.368-.125-1.332-.298-.965-.173-5.18-.7l-.725-.198m12.752 119.612q-.3-.15-.554-.335-.264-.183-.835-.702-.57-.52-1.954-2.188-1.383-1.668-3.256-4.94-1.872-3.272-2.836-5.38-.963-2.108-2.02-4.595-1.058-2.488-2.553-6.4-1.495-3.9-3.03-8.216-1.537-4.316-2.6-8.2-1.054-3.884-1.574-6.533-.52-2.65-1.678-13.74-1.156-11.1-1.66-18.122-.504-7.032-.87-13.06-.368-6.027-.725-10.175-.357-4.147-.977-7.834-.62-3.686-1.143-6.47-.524-2.785-1.67-5.512-1.147-2.727-2.638-5.106-1.5-2.38-2.634-3.9-1.143-1.523-1.782-2.106-.64-.583-2.656-1.828-2.017-1.244-3.26-1.913-1.242-.67-2.225-1.057-.983-.387-5.444-1.607-4.46-1.22-7.873-2.068-3.4-.847-4.208-1.06-.796-.215-2.26-.5-1.464-.276-6.874-2.4-5.4-2.116-8.76-4.037-3.35-1.92-4.604-2.753-1.253-.833-2.393-1.684-1.14-.85-3.83-2.92-2.7-2.07-3.843-2.975-1.154-.906-1.95-1.315-.797-.4-2.023-1-1.227-.588-1.828-.736-.22.057-1.73.07m106.407 162.616q-.212-.173-1.226-1.602-1.014-1.43-1.486-2.28-.472-.85-1.012-1.803-.54-.954-.68-1.25-.14-.294-1.684-3.237-1.543-2.943-4-9.224-2.447-6.28-3.594-9.758-1.147-3.478-1.992-6.78-.844-3.3-1.663-7.822-.818-4.52-1.77-13.462-.952-8.94-1.338-14.05-.387-5.1-.45-7.8-.065-2.703-.078-11.213-.012-8.5.154-15.712.167-7.2.275-11.518.1-4.317.025-9.343-.085-5.025-.912-12.48-.827-7.457-2.4-13.827-1.584-6.37-3.796-12.052-2.2-5.68-3.252-8.196-1.04-2.516-1.54-3.926-.5-1.4-.897-2.472-.398-1.063-1.65-5.118-1.25-4.056-2.766-10.742-1.516-6.687-2.197-9.9-.682-3.224-1.174-7.215-.492-4-.898-9.693m.6 0q.15-.466.34-4.538.2-4.072.826-7.003.637-2.932 2.15-6.34 1.514-3.408 2.587-5.282 1.073-1.874 6.148-7.004 5.076-5.13 7.767-7.392 2.7-2.262 3.997-3.4 1.307-1.138 5.9-5.377 4.592-4.24 6.858-6.354 2.265-2.116 3.17-2.946.904-.83 3.142-3.04 2.238-2.2 2.25-2.234.012-.025 3.263-3.37 3.25-3.345 5.83-6.74 2.58-3.394 3.97-5.415 1.4-2.02 2.765-4.07 1.375-2.05 1.998-2.913.622-.863 1.685-2.15 1.063-1.286 1.987-2.37.925-1.083 2.065-2.475l1-1.32q.7-.845 1.228-1.666m-18.054 55.132q.186-.243.245-.384.06-.14.55-1.8.492-1.66.993-2.793.5-1.132 1.1-2.128.6-.995 1.12-1.692.53-.697.717-.997.188-.3 1.075-1.23.888-.93 3.397-2.65 2.5-1.72 3.205-2.064.695-.345.907-.48.212-.136 1.406-.525 1.195-.4 1.8-.557.593-.167 1.75-.173 1.157-.006 1.7.068.554.075 1.138.257.585.18.9.335.325.153 1.73 1.154 1.405 1 2.196 1.7m-7.808 122.93q-.022-3.057.522-8.3.545-5.252 2.002-9.9 1.457-4.64 2.594-7.196 1.136-2.558 2.517-5.772 1.38-3.215 2.426-5.717 1.044-2.5 2.2-6.305 1.147-3.804 1.7-5.8m-24.558-37.857q.208-.218.647-.5.44-.273.552-.3.112-.018 2.74-1.573 2.627-1.556 4.326-2.537 1.7-.98 2.8-1.5 1.1-.507 1.8-.902.7-.395 1.503-.87.814-.475 1.773-1.147.96-.672 1.343-.956-.244-1.54-.66-3.4l-.496-2.484m-2.99 12.906q-.007.018-.01.36-.001.342.08.674.08.332.263.646.18.315.418.544.237.23.708.33.472.103.746-.03.275-.132.423-.424.148-.3.2-.274.04.018.066-.273.025-.3-.044-.615-.07-.323-.27-.55-.2-.227-.317-.237-.116-.01-.102.1.015.102.086-.082m-32.86 132.008q-.168.07-1.46 3.2-1.292 3.122-2.18 6.78-.887 3.656-1.043 4.256-.157.6-.5 3.8-.35 3.2-.676 6.04-.325 2.828-.646 4.43-.322 1.602-.575 2.182-.252.58-.493 1.037-.24.458-1.275 2.038-1.035 1.58-2.217 2.535-1.18.956-1.763 1.216-.582.26-.998.466-.415.206-2.926.86m-16.858 1.823l-.73-.12q-2.307-.5-2.917-.613-.6-.112-1.972-.434-1.36-.322-3.067-.717-1.706-.396-7.37-2.152-5.664-1.756-8.965-3.088-3.3-1.333-7.068-3.242-3.768-1.908-5.886-2.973-2.117-1.065-3.412-1.7-1.294-.625-1.966-.93-.672-.305-.92-.382-.247-.077-2.222-.947-1.975-.87-4.913-2.138-2.937-1.27-4.9-2.027-1.962-.76-6.075-2.344-4.114-1.584-7.788-2.82-3.673-1.235-7.55-2.964-3.877-1.728-5.518-2.643-1.64-.916-2.65-1.4-1.012-.494-2.843-1.585-1.83-1.1-2.457-1.482-.627-.392-.753-.5-.126-.107-1.53-.965-1.404-.858-2.02-1.2-.616-.33-1.782-1.014-1.166-.684-1.735-1.043-.57-.36-1.683-.926-1.114-.567-2.012-1.018-.897-.452-1.865-.783-.967-.33-3.128-1.105m-24.823 24.77q-.002-.192.386-1.972.4-1.78.898-3.17.5-1.388.9-2.25.382-.862 2.056-4.2 1.674-3.35 3.294-5.603 1.62-2.255 4.284-4.9 2.664-2.647 5.338-5.164 2.674-2.516 4.192-3.7 1.518-1.174 3.175-2.118 1.657-.945 4.428-2.187 2.77-1.242 5.528-2.584 2.758-1.343 5.253-2.255 2.496-.913 5.28-1.782 2.785-.868 4.652-1.407 1.868-.54 4.226-1.18 2.358-.642 4.027-.92 1.67-.277 2.62-.4.952-.122 2.72-.364 1.77-.242 3.226-.442 1.456-.2 2.3-.28.842-.08 3.114-.834l.863-.478q.194-.67.052-2.077-.142-1.407-.623-2.696-.48-1.3-1.34-2.787-.858-1.498-.947-1.6-.1-.1-1.32-1.92-1.232-1.8-2.04-2.815-.8-1.007-.855-1.04-.045-.032-1.454-1.776-1.4-1.743-2.238-2.612-.828-.87-2.992-2.527-2.164-1.658-2.812-2.1-.647-.454-1.178-.732-.53-.278-2.148-1.245-1.617-.967-2.926-1.586-1.3-.618-1.882-.84-.572-.22-1.974-.813-1.402-.592-1.942-.823-.54-.232-2.54-.848-2-.615-3.73-.9-1.73-.295-3.134-.33-1.405-.034-1.503-.07-.097-.036-6.276 1.588l-1.706.426m-24.112 65.36l.388-.737q.478-1.08 1.326-4.274.848-3.195 2.856-18.173 2.008-14.98 1.854-19.306-.155-4.326-.78-7.42-.625-3.094-1.423-6.3-.798-3.195-1.804-6.562-1.007-3.367-2.848-13.127-1.842-9.76-2.468-17.887-.627-8.13-.316-13.083.312-4.954 1.055-8.088.742-3.135 1.497-5.74.754-2.605 1.117-4.056.364-1.452.63-2.94.266-1.488.44-2.203.175-.716.078-8.715.1-.168-.06-4.523.186.128.742.5.556.36 2.722 2.273 2.166 1.913 4.967 5.705 2.8 3.792 4.474 6.958 1.673 3.167 3.12 6.802 1.45 3.635 3.065 8.983 1.616 5.348 2.353 8.6.737 3.26.913 5.826.176 2.564.2 3.838.034 1.274.043 2.73.01 1.455-.056 3.023-.065 1.57-.432 5.1-.344.657.183.007.528-.65 1.852-3.72 1.324-3.07 1.86-4.6.536-1.54.803-2.143.268-.603 1.563-5.464 1.295-4.862 1.248-8.983-.048-4.12-.543-7.2-.496-3.1-.834-8.436-.338-5.346-.282-9.353.056-4.008.37-7.473.315-3.466 1.123-8.767.807-5.302 1.383-11.968.576-6.666.664-10.34.088-3.674.03-5.22-.058-1.547-.164-2.662-.105-1.115-.064-1.64.042-.525.277-1.355l.508-.27q.42-.044.94.148.52.2 2.818 1.723 2.298 1.532 3.556 2.776 1.258 1.244 2.366 2.543 1.108 1.3 1.58 1.983.47.684 2.24 3.37 1.768 2.687 4.04 8.044 2.273 5.357 3.238 10.307.964 4.95 1.276 12.68.312 7.728.132 9.954-.18 2.225-1.8 6.66l-.55.678q-.014.192-.145-.696-.13-.887.977-4.802 1.108-3.915 2.533-6.886 1.425-2.97 3.544-6.686 2.12-3.715 3.207-5.714 1.086-2 2.407-6.15 1.32-4.15 1.632-9.33.3-5.18-.015-8.708-.326-3.528-.564-5.963-.24-2.435-.637-7.977-.398-5.54-.224-10.233.174-4.692 2.325-12.3 2.15-7.6 3.474-10.946 1.322-3.336 3.827-7.862 2.505-4.527 4.213-6.983 1.707-2.456 4.825-5.68l.2-.398q.315.64 1.8 3.566 1.484 2.925 2.936 6.95 1.45 4.026 2.967 8.083 1.515 4.057 2.836 10.15 1.32 6.092 1.7 10.477.37 4.385.307 7.188-.06 2.804-.535 6.316-.474 3.513-.734 5.212-.26 1.7-.6 3.368-.352 1.668-3.136 11.67l-1.053 1.933m1.287 1.414q.1-.547.53-2.47.43-1.922 2.715-6.27 2.285-4.348 3.7-6.254 1.404-1.906 2.452-3.196 1.048-1.3 3.405-4.24 2.357-2.95 4.218-5.784 1.86-2.835 2.857-5.77.996-2.936 1.546-8.985.55-6.05.6-9.25.04-3.202.923-7.866.884-4.665 1.98-7.796 1.095-3.13 3.377-8.113 2.283-4.982 5.006-9.087 2.722-4.104 7.1-8.042 4.388-3.937 12.328-7.55l.103.47-.012.53q-.14.478-.98 3.63-.84 3.153-1.178 4.302-.338 1.15-.826 3.654-.5 2.504-1.045 5.16-.556 2.656-.862 4.66-.306 2.004-2.154 7.975m-117.266 165.018l.75-.487q.28-.166 2.683-2.7 2.402-2.535 5.14-4.964 2.738-2.43 4.93-4.105 2.2-1.676 4.435-3.12 2.244-1.445 5.702-2.665 3.46-1.22 5.543-1.632 2.084-.412 5.208-1.24 3.124-.826 5.708-1.1 2.584-.263 7.664-.406 5.08-.143 8.408-.07 3.328.072 4.316.086.987.014 2.974.2 1.987.177 3.017.3 1.03.133 2.552.255 1.52.123 3.5.163 1.98.04 2.256.05.276.01 1.224-.042.948-.05 2.028-.12 1.08-.07 2.046-.15.965-.08 2.847-.252l2.14-.447.976-.344q1.15-.636 1.73-1.278.583-.642 1.1-1.384l-.022-.492q-.04-1.08-.25-2.517-.208-1.437-2.684-4.904-2.475-3.466-4.2-5.266-1.715-1.8-4.4-3.74-2.696-1.94-3.435-2.4-.74-.47-1.756-.9-1.017-.437-5.05-.997-4.033-.56-6.557-.505-2.525.054-6.742 1.4-4.218 1.347-6.414 2.433-2.197 1.086-3.006 1.734-.808.648-1.982 1.6-1.173.952-1.7 1.256-.536.304-1.76.928l-.444-1.752q.88-4.8 1.83-7.147.953-2.357 2.67-5.02 1.718-2.665 5.455-6.042 3.737-3.378 5.56-4.365 1.822-.986 2.922-1.456 1.1-.47 2.28-.867 1.18-.396 6.3-2.248 5.12-1.852 9.525-3.104 4.405-1.252 6.426-1.7 2.02-.437 3.525-.808 1.504-.37 2.87-.733 1.365-.363 2.848-.78 1.482-.417 4.787-2.212 3.304-1.794 5.314-3.427 2-1.634 3.724-3.16 1.713-1.524 5.027-5.4 3.313-3.886 5.048-6.34 1.734-2.454 2.6-3.645.876-1.2 2.268-3.78 1.393-2.6 1.598-4.202.206-1.612 0-2.138-.206-.526-.88-.963-1.983-.76-5.77-1.198-3.8-.438-6.462-.388-2.673.05-3.916.145-1.243.094-3.103.557-1.86.463-3.866 1.122-2.006.66-2.848.987-.843.328-1.24.506-.398.178-1.975.917-.315.017.13-1.65.444-1.666 1.195-3.017.752-1.352 1.37-2.478.618-1.126 4.378-5.94 3.76-4.815 4.985-5.917 1.225-1.102 3.903-2.477 2.678-1.375 4.004-1.833 1.326-.46 2.102-.65.776-.2 1.948-.396 1.17-.205 5.865-.543 4.694-.338 7.65-.443 2.957-.106 6.532-.815l1.643-.366"/><path d="M1677.642 438.1l.112-.858.646-2.782q.52-1.464 3.6-7.008 3.08-5.544 5.858-8.657 2.778-3.112 7.83-6.9 5.05-3.786 8.408-6.037 3.358-2.25 5.932-4.06 2.574-1.808 4.827-2.93 2.253-1.122 3.78-1.167 1.527-.045 1.702.04.175.085.146.3-.028.216-.426 1.933-.398 1.718-1.056 3.952-.658 2.234-1.157 3.758-.5 1.524-1.06 4.623-.558 3.1-.2 6.418 1.44-1.097 2.05-1.556.6-.458 3.54-2.694 2.93-2.236 4.487-3.38 1.557-1.143 8.033-4.36 6.477-3.217 10.465-4.8 3.987-1.573 8.272-3.056 4.285-1.482 9.098-3.495 4.814-2.012 6.987-2.983 2.172-.97 3.636-1.488 1.463-.52 2.545-.902 1.082-.383 2.755-1.286l.04-.135q.668-.777 1.238 4.335.57 5.1.114 9.862-.456 4.75-1.1 7.04-.653 2.3-1.197 3.33-.544 1.038-2.607 3.682-2.062 2.644-3.823 4.556-1.762 1.9-2.812 2.918-1.05 1.007-2.298 2.04-1.248 1.033-2.4 2.123-1.143 1.1-2.13 2.25-.985 1.157-1.356 1.664-.37.506-1.318 1.97-.085.117.57 1.322.655 1.206 1.863 2.73 1.207 1.523 2.262 2.514 1.054 1 1.64 1.518.586.528.65.548.063.02.693.603.63.582 3.602 2.293 2.973 1.7 6.96 3.295 4 1.583 6.153 2.485 2.164.903 3.136 1.474.972.572 1.727 1.105.754.534 1.04 1.25.123.144.145 1.2.022 1.057-.214 1.685-.237.628-.36.772-.122.144-.5.638-.4.494-1.894 1.375-1.505.88-2.6 1.2-1.085.3-5.206.64-4.12.332-7.418-.146-3.298-.477-8.417-2.077-5.12-1.6-9.77-2.77-4.653-1.17-8.687-2.042-4.035-.872-7.114-1.505-3.08-.632-6.7-1.178-3.612-.545-5.26-.757-1.647-.2-2.57-.36-.924-.15-3.037-.2-2.113-.05-2.86.027-.746.078-1.08.116-.333.04-.762.164-.177.25-.018 1.433.16 1.183 1.338 3.284-.572.712-1.16 1.56-.6.848-.917 1.295-.33.447-.9 1.044-.582.596-1.424 1.298-.843.702-1.506 1.297-.664.595-1.856 1.3-1.193.705-1.805 1.05-.612.346-1.433.74-.82.395-1.415.608-.593.213-1.164.327-.57.114-2.218.644-1.646.53-3.337 1.2-1.7.678-3.224 1.02-1.532.34-3.337.802m-28.25-51.937l-.602.192q-6.476-.057-6.84-.08-.366-.022-5.038-.613-4.672-.6-8.964-1.242-4.292-.65-6.628-.853-2.336-.202-6.647-.342-4.3-.14-4.904-.135-.594.006-4.205.026-3.6.02-7.54.46-3.93.44-8.144 1.03-4.214.592-10.23 1.74-6.017 1.15-8.88 1.595-2.862.445-6.718 1.62-3.855 1.174-6.958 2.6-3.104 1.416-10.296 5.443-7.2 4.028-10.726 6.28-3.535 2.252-7.008 4.635-3.474 2.383-7.014 5.023-3.54 2.64-8.84 7.028-5.3 4.4-8.882 7.842-3.58 3.454-9.003 13.06-5.42 9.606-7.98 15.018-2.56 5.412-4.32 11.147-1.76 5.734-3.674 18.552-1.916 12.818-2.62 22.855-.703 10.037-1.077 16.316-.374 6.28-.505 9.763-.13 3.484-.264 7.207-.133 3.722.096 15.58.23 11.857 1 19.446.77 7.6 1.567 11.7.797 4.12 2.706 10.564 1.9 6.445 3.125 12.066 1.216 5.62 1.843 8.985.627 3.365 2.44 10.518 1.814 7.153 2.973 13.34 1.16 6.186 1.7 11.9.53 5.724.804 8.57.273 2.847.547 5.67.274 2.822.532 4.85.258 2.03.34 3.224.082 1.195.048 1.58-.034.385-.104.75-.07.364-.512 1.2-.45-.218-.67-.126m27.438-28.975l-.372.352-.318.9q-.673 1.445-3.343 6.63-2.67 5.184-4.402 7.965-1.732 2.78-3.436 5.198-1.704 2.417-4.178 6.45-2.474 4.033-4.83 6.974-2.357 2.94-3.5 4-1.143 1.07-2.477 2.324-1.333 1.255-1.387 1.317-.053.062-3.866 3.28-3.814 3.218-5.554 4.73-1.74 1.5-2.55 2.188-.8.677-1.507 1.213-.696.537-.735.6-.04.073-.785.553-.746.48-1.84 1.208m44.14-31.565q.38.012 1.87.426 1.5.414 2.73.78 1.24.366 1.352.378.113.013 1.412.382 1.3.37 5.112 1.325 3.813.956 9.653 2.43 5.84 1.474 13.876 3.238 8.036 1.765 14.797 3.6 6.76 1.844 9.436 2.73 2.675.886 6.242 2.054 3.567 1.168 6.978 2.33 3.4 1.162 8.85 3.058 5.44 1.896 14.64 4.566 9.2 2.67 13.596 3.742 4.396 1.072 6.5 1.538 2.095.466 4.256.97 2.162.502 3.23.66 1.068.158 3.954.252 2.886.094 3.86.01.973-.084 3.58-.53m18.164-8.12q3.136-1.4 4.415-2.332 1.278-.942 1.922-1.528.645-.587 1.25-1.384.605-.798 1.13-1.882.526-1.084 1.157-3.253.63-2.168.893-3.416.26-1.248.372-2.074.1-.826.12-1.08.01-.255.12-5.448.1-5.193-.563-8.97-.673-3.78-1.265-5.276m4.95 23.385q.378.55.5.66.133.1.6.35.458.238 3.652 2.144 3.194 1.906 5.933 3.724 2.74 1.817 6.464 4.7 3.726 2.892 12.416 11.796 8.7 8.903 12.93 13.636 4.24 4.733 6.9 7.898 2.647 3.166 3.933 4.8 1.285 1.623 2.228 2.925.943 1.3 3.898 6.373 2.955 5.07 5.094 8.722 2.14 3.65 3.677 6.173 1.537 2.522 5.397 8.55 3.86 6.028 10.1 14.66 6.24 8.632 7.085 9.813.845 1.18 2.984 4.223 2.138 3.043 5.674 9.47 3.537 6.426 5.2 9.634 1.673 3.207 3.47 6.9 1.797 3.702 4.012 8.153 2.216 4.45 3.68 7.125 1.464 2.674 2.993 5.212 1.53 2.54 3.256 5.696 1.727 3.157 3.116 6.36 1.4 3.204 3.942 8.107 2.553 4.902 5.26 11.288 2.705 6.387 3.8 9.515 1.106 3.13 3.692 9.45 2.585 6.32 3.95 9.528 1.364 3.207 1.958 4.92.593 1.714.834 2.366.24.652.83 2.76.6 2.108 2.195 16.576-.313-.258-1.922-1.6M1699.63 731.713q.106.183.264.3.158.127 3.525 3.292 3.368 3.165 8.85 9.2 5.483 6.026 10.023 12.236 4.54 6.2 9.345 12.44 4.805 6.23 8.333 10.637 3.53 4.408 6.38 8.178 2.85 3.77 5.046 6.72 2.194 2.95 4.12 5.783 1.926 2.832 3.746 5.93 1.82 3.098 3.55 6.48 1.732 3.38 10.456 17.215.1-.004.444.817m-77.312-90.09q1.892 2.443 2.43 3.12.54.677.9 1.056.37.378 3.474 4.576 3.105 4.197 6.87 10.217 3.767 6.02 6.25 9.588 2.485 3.568 6.58 9.484 4.094 5.916 8.044 12.018 3.95 6.1 7.156 11.222 3.204 5.122 4.797 7.73 1.593 2.6 5.668 9.094 4.075 6.486 7.82 12.117 3.745 5.63 7.104 11.405 3.358 5.774 10.4 16.72l.597.717m-63.58-71.604q.108.33 2.968 4.762 2.86 4.433 4.54 6.898 1.678 2.466 2.73 4.397 1.05 1.932 9.56 17.135 8.5 15.203 13.305 23.646 4.797 8.442 6.68 12.123 1.883 3.68 3 6.1 1.127 2.43 5.35 11.898 4.222 9.468 7.24 16.823 3.02 7.356 4.3 10.65 1.27 3.296 2.622 6.46 1.352 3.163 3.585 9.073 2.234 5.9 3.22 8.507.986 2.597 1.55 3.933.565 1.336 1.14 2.633.574 1.297.996 2.42.422 1.123 1.094 3.395.672 2.272.72 3.162m-102.917-113.567q2.138 2.966 4.527 6.368 2.4 3.402 5.408 8.708 3.02 5.305 4.978 9.18 1.96 3.873 4.96 10.963 3.002 7.1 9.937 26.754 6.934 19.665 7.902 23.574.968 3.908 2.016 7.935 1.05 4.027 2.13 7.78 1.08 3.752 2.508 9.313l.366 2.242m-200.98-196.43q-.406.075-3.258.7.035.32 2.864 1.237 2.83.918 8.348 2.12 5.518 1.2 8.678 1.996 3.16.795 7.172 1.803 4.012 1.008 7.324 2.13 3.3 1.12 5.82 2.387 2.5 1.267 5.18 2.834 2.67 1.568 5.742 3.36 3.072 1.792 6.92 4.047 3.848 2.255 6.958 4.6 3.1 2.336 5.8 4.842 2.7 2.506 4.1 4 1.4 1.494 1.44 1.595.05.1 3.935 4.78 3.885 4.68 7.326 9.566 3.44 4.886 5.925 9.586 2.485 4.7 5.723 12.402 3.24 7.702 5.514 14.747 2.275 7.044 4.267 12.816 1.992 5.773 3.517 10.394 1.525 4.622 4.9 17.848 3.386 13.226 4.16 16.73.776 3.506 1.68 6.972.903 3.467 1.734 7.088.832 3.622 1.746 10.3.914 6.677 1.684 14.53.77 7.854 1.355 13.04.586 5.188.892 7.364.307 2.177.47 5.02.164 2.842.248 3.862.084 1.02.166 1.922.08.902.028 2.007-.053 1.105-.3 1.785-.237.68-.7.82-.472.14-1.76-1.232-1.3-1.373-2.37-3.015-1.08-1.64-1.904-2.798-.822-1.156-1.8-2.905-.988-1.748-2.18-4.206-1.192-2.46-2.9-5.922-1.698-3.463-3.246-6.38-1.55-2.915-2.387-4.505-.838-1.6-1.282-2.48-.445-.9-1.05-2.204-.605-1.314-1.363-3.2-.758-1.884-2.034-5.122-1.276-3.238-2.2-5.82-.913-2.583-1.425-3.942-.512-1.358-1.77-4.405M1488.22 743.794q.044 2.072.192 4.86.15 2.8.653 16.386.504 13.597.996 23.608.493 10 .745 14.92.253 4.9.43 8.703.178 3.793.693 13.15.514 9.356.82 14.598.306 5.242.533 10 .227 4.748.304 8.377.076 3.628.024 20.984-.053 17.356-.165 26.836-.113 9.48-.138 13.352-.025 3.872-.112 6.957-.087 3.085-.296 14.14-.2 11.053-.265 16.6-.056 5.548.06 7.986.115 2.44.15 3.1.036.662 2.193 7.68.377.558 6.236 1.492 5.86.935 11.566.203 5.706-.73 9.513-1.16 3.807-.428 8.827-.523 5.02-.094 7.886.077 2.867.17 7.262.762 4.396.6 7.368.884 2.973.293 6.32.733 3.347.44 7.832 1.13 4.484.692 7.864 1.168 3.38.477 6.707.847 3.327.37 5.732.536 2.404.165 17.76.855 15.356.7 31.194 1.053 15.838.363 20.332.58 4.494.218 6.987.3 2.494.08 5.28.14 2.786.06 13.374.247 10.588.188 16.395.153 5.808-.035 7.946-.063 2.137-.027 10.934-.537 8.796-.5 16.943-1.415 8.147-.904 14.797-1.68 6.65-.776 9.476-1.033 2.826-.257 5.217-.607 2.4-.35 6.034-1.024 3.644-.674 8.12-1.342 4.476-.67 11.467-2.103 7-1.434 12.3-2.4 5.3-.966 7.688-1.28 2.377-.315 3.847-.497 1.47-.183 4.8-.448 3.323-.265 8.136-.395 4.814-.13 8.183-.175 3.37-.046 4.73-.05 1.358-.003 1.4-.014.032-.012 7.597-.01l.812.025m-255.534-360.436l.138-.066.84-.663q.286-.1 3.507-3.356 3.222-3.246 5.377-5.175 2.155-1.93 3.065-2.668.9-.74 2.3-1.946 1.38-1.207 1.774-1.6.394-.393 2.535-2.08 2.14-1.687 3.832-3.043m21.977-25.415l.705-.832q2.96-2.907 4.24-4.226 1.28-1.32 6.787-6.533l.765-.58m-36.734-66.28q-.05.408.3 4.7.36 4.292.26 8.915-.1 4.622-.64 8.065-.54 3.443-.748 4.35-.208.907-.4 1.62-.204.712-.942 2.584m-2.268 21.446l.044-.353q.16-1 5.55-6.233 5.4-5.242 9.427-8.213 4.037-2.97 7.022-4.263l2-.536m29.464-71.695q-.35.712-1.3 8.268-.96 7.557-1.042 8.705m36.56-37.824q-.208.772-1.356 3.2-1.148 2.44-4.72 10.376m30.05-3.802l.274-.35q.627-.415 4.182-2.673 3.554-2.26 5.793-3.45 2.24-1.2 4.2-2.003 1.963-.813 3.197-1.53 1.234-.718 2.092-1.378.858-.66 2.266-3.287l.494-2.12m-23.97 20.177l.603-.146q.84-.037 2.075-.03 1.235.007 2.554.094 1.32.087 3.242.382 1.923.295 2.255.323.332.028 3.247.796 2.915.768 3.655 1.026m-162.78 95.425q-.048.286.567 7.6.615 7.314.24 12.32-.375 5.006-.725 7.27m9.133 14.437l.944-.304q.302-.062 5.16-2.002 4.86-1.94 7.503-2.642 2.645-.7 4.903-1.212m-59.847 12.587q.017.217.624 5.287.607 5.07.877 8.1.27 3.04.503 5.604m-4.357 41.882q.692-2.473 1.494-4.193.802-1.72 2.988-4.505 2.187-2.786 4.283-4.6 2.096-1.804 8.467-3.806 6.37-2.002 8.13-2.415"/></g><g stroke-width="4.937"><path d="M2203.8 640.482l.113-3.2q-.013-.846.313-10.16.326-9.313.6-14.156.265-4.843.592-7.384.328-2.542 1.23-12.086.392-3.725.376-3.947-.016-.22.615-7.63.63-7.408 2.517-14.9 1.886-7.502 3.06-10.998 1.172-3.495 3.743-9.075 2.57-5.58 4.446-8.5 1.875-2.9 4.216-6.168 2.34-3.257 5.485-7.317 3.143-4.06 4.5-5.734 1.347-1.675 5.02-6.185 3.674-4.5 8.296-9.73 4.62-5.22 8.4-8.72 3.78-3.5 6.778-6.082 2.998-2.58 3.137-2.824.138-.243 3.897-3 3.76-2.76 6.17-4.2 2.412-1.44 3.65-2 1.237-.55 1.74-.717.5-.167 1.888-.507 1.387-.34 2.445-.685m4.12-2.947l.493.205q5.832.784 7.43.995 1.598.212 3.704.4 2.106.178 6.993.343 4.887.164 11.324.285 6.438.12 9.74.212 3.302.093 6.367.177l2.408.28m5.72.001l1.03.4q.585.052 4.073 1.817 3.488 1.764 5.816 3.335 2.328 1.57 3.68 2.673 1.353 1.102 5.282 4.668 3.93 3.566 8.893 8.62 4.964 5.053 8.086 8.695 3.123 3.642 4.04 4.82.917 1.178 1.75 2.206.83 1.028 4.214 5.722 3.383 4.693 7.74 11.702 4.357 7.008 6.743 11.392 2.386 4.383 4.9 10.2 2.503 5.818 5.086 13.337 2.583 7.52 4.763 15.17 2.18 7.652 3.2 13.755 1.03 6.104 1.546 13.007.516 6.903.646 18.63.13 11.726 1.662 28.895 2.435 2.066 3.345 2.8.9.744 1.12 1.005.2.26 2.593 2.852 2.384 2.6 5.803 8.237 3.42 5.648 8.154 14.245l.82 1.202q.53.96.73 1.434.2.474.2.496-.01.022.343.916m-73.67 13.37l.08.266q.307.342.9 3.93.592 3.587.78 5.772.2 2.185.523 6.73.334 4.545 1.52 10.94l.998.842m-.45-32.386q.534.177 6.382.275 5.848.098 10.876.03 5.028-.068 13.954-.3 8.926-.22 14.714-.222 5.8-.002 8.1.004 2.32.006 5.843.123 3.522.116 6.066.35 2.544.234 5.952.547m-70.86-6.266q-.194-.434-.408-1.493-.213-1.06-.718-6.84-.506-5.782.293-12.13.8-6.35 1.276-7.2.477-.84 1.417-2.05.94-1.212 1.947-2.15 1.006-.938 1.488-1.37.483-.43 1.353-1.095.87-.663 3.977-2.5m4.245-3.195q.523-.066 6.596-.105 6.073-.04 10.792.22 4.72.26 8.4.935l1.764.386m-197.95-8.428q.002-.52-.083-10.767-.086-10.247.203-18.536.288-8.3.677-13 .4-4.7.75-10.174.36-5.473 1.162-10.94.802-5.467 2.392-12.5 1.6-7.032 3.616-13.73 2.027-6.696 3.63-10.986 1.603-4.3 2.362-6.296.76-2.006 3.108-7.585 2.348-5.58 3.72-8.558 1.373-2.98 2.84-6.55 1.468-3.57 2.212-5.265.745-1.694.863-1.9.118-.217 1.6-3.3 1.482-3.084 2.536-5.076 1.053-1.993 1.912-2.95.86-.958 1.254-1.527.394-.57 1.323-1.482.928-.9 2.204-2"/><path d="M2291.595 643.152q.26-.377.4-.512.14-.134.414-6.02.274-5.887.518-21.363.244-15.477.374-22.963.13-7.486.3-13.274.162-5.788.4-14.2.247-8.403.518-15.533.27-7.13.414-10.788.142-3.66.28-5.348.137-1.7.317-10.474.18-8.784.505-16.623.325-7.84.686-11.777.362-3.937.6-5.85.24-1.914.342-2.577.103-.662.38-1.884.278-1.222.486-2.692m31.9-3.17q.242.132 1.08.988.836.856.875.928.04.07 2.194 2.326 2.155 2.255 5.42 5.67 3.264 3.416 6.753 7.2 3.5 3.775 4.284 4.8.795 1.034 2.694 4.092 1.9 3.058 3.697 6.307 1.797 3.25 2.497 4.527.7 1.278 4.02 8.524 3.32 7.247 5.5 13.893 2.2 6.645 3.128 10.416.938 3.77 1.4 6.22.464 2.452 1.122 6.28.66 3.828 1.882 13.08 1.223 9.253 1.656 14 .434 4.747.877 8.715.444 3.968.644 9.594.2 5.627.195 10.096-.006 4.47-.02 6.836-.016 2.366-.1 4.304-.083 1.938-.44 13.1l.223 1.903m-174.086 2.782l.464.1q.247-.082 5.4 1.277 5.163 1.36 8.722 2.376 3.56 1.018 7.1 1.586l1.468.518m2.358.738q3.6-.13 3.67-.146.07-.018 6.35-.12 6.278-.103 15.132-.392 8.853-.3 14.25-.296 5.396-.006 7.287.208 1.9.214 2.888.24.998.027 5.077 1.013m7.593-1.235q.93-.34 11-.615 10.06-.275 14.683-.3 4.623-.014 9.446.008 4.823.022 9.6.108 4.785.086 7.95.236 3.165.15 4.907.273 1.742.123 6.158.485 4.416.363 7.55.576 3.134.212 5.98.407 2.847.195 3.783.3.936.105 1.66.176.725.07 3.153.588m-172.848-38.65q7.232-.486 9.46-.537 2.227-.05 3.47-.026 1.242.026 4.2.146m-10.406-24.266l.593-.286 2.537-.366q4.627-.296 7.746-.324 3.12-.028 6.024.14m2.794 25.102q.38.07 5.367-.144 4.987-.216 12.565-.617 7.577-.402 14.353-.448 6.777-.047 11.507-.084 4.73-.037 6.523.088 1.794.125 3.865.278"/><path d="M2237.177 585.666q.518-.086 9.128-.096 8.6-.01 18.42.365 9.8.375 13.803.494 3.993.118 7.003.363m11.865 24.284l.276.088q1.807.1 3.153.142 1.346.032 2.35.084 1.002.052 9.47.004 8.468-.047 18.617-.68 10.15-.634 16.906-.592 6.757.042 10.925.513 4.167.47 19.4 1.718l.97.157m-78.15-27.97q.545.05 8.147-.06 7.6-.1 21.182.374 13.58.483 20.498 1.035 6.916.55 9.693.858 2.778.307 10.248 1.267 7.47.96 13.628 1.3l1.684.055m2.69-.416q4.83-.164 12.054-.275 7.222-.112 19.12-.337l2.653-.005m-41.2 25.52l.217-.076q2.152-.2 9.102-.875 6.95-.664 13.684-.828 6.733-.165 8.17-.15 1.438.014 3 .088 1.555.074 6.185.186l2.758.202m-209.716 22.74l-.087-.398q-.208-3.57-.2-4.15.008-.58.3-3.346l.32-.86m46.017-3.488q-1.094 1.06-2.066 2.324-.6.644-1.097 1.9-.498 1.256-.647 1.922-.15.665-.142 1.824.006 1.16.205 1.717.2.558.477.966.278.408.458.6.18.182 1.26.93 2.225.956 3.238 1.7m-.896-11.82q.7.88 1.252 1.777.563.898.772 1.423.208.525.4.908.18.383.465 1.337.284.955.457 1.958.173 1.004.097 1.54-.076.537-.058 1.863m65.94-10.806l-.27.292q-.756.966-1.028 1.605-.273.64-.483 1.64-.2 1-.194 1.626.015.625.16 1.152.145.527.548 1.1.404.582.987 1.182.583.6 2.072 1.893"/><path d="M2333.015 635.033l.1-.055 1.325-.9q.1-.052 1.3-1.212l.6-1.876.147-.917q-.053-1.05-.373-1.8-.32-.75-1.192-3.32m56.745.2q.573 5.664.595 6.057.02.393.323 1.83.3 1.44 1.323 4.663M2281.63 470.385l2.577-14.798q1.143-.702 2.364-1.524 1.222-.822 1.425-.985.203-.163.812-.78.6-.618 1.237-1.4.63-.772 1.508-2.2.898-2.226 1.263-3.494.365-1.27.526-2.2.162-.922.25-1.1.1-.17.67-12.417.3-4.622 1.297-9.5 1.008-4.88 1.962-7.736.953-2.858 1.396-3.8.442-.932 1.046-2.15.604-1.216 2.376-3.37 1.773-2.154 2.067-2.307.294-.153 1.605-.42.144-.102 3 2.62 2.865 2.723 4.837 6.197 1.973 3.475 2.74 5.303.767 1.828 1.47 3.767.703 1.94 1.145 3.366.443 1.427 1.13 3.605.756 2.715.88 2.94.122.227.46 2.228.338 2.002 1.272 7.193.934 5.192 1.135 6.033.202.842.888 2.474.687 1.632 2.06 3.347 1.375 1.715 2.845 3.385.92 3.23 1.914 14.263l-.23 1.568M2307.94 394.6q-.296-.15-.533-.244-.236-.096-.648-7.82.18-.26.602-1.598m-9.07 67.258q.036.86.176 3.445.14 2.585.17 3.365.03.78.154 1.7.123.93.74 3.722m12.1-16.646q-.167.53-.167 15.275l.167 1.38m-12.655-35.7q2.415.552 8.422 1.212 6.008.66 7.133.84m-65.593 225.973l-.072 26.15.18 1.996m-11.618-29.403q-2.827 2.47-4.373 4.073-1.547 1.603-1.808 1.858-.262.256-1.706 1.915-1.444 1.66-2.86 3.957-1.417 2.298-2.336 4.485-.92 2.188-1.7 4.9-.8 2.713-1 4.317-.2 1.605-.28 1.745-.072.14.647 3.524.72 3.382 3.664 4.306 2.945.923 4.844 1.016 1.9.093 2.857-.02.957-.114 3.828-.396 2.872-.282 7.322-.516 4.45-.234 7.264-.308m-.465.83q1.865.03 13.5.297 11.634.268 21.56-1.952.7-2.034.777-2.764.066-.73.102-1.3.035-.58-.027-1.188-.063-.608-.295-2.034-.232-1.426-.947-3.245-.715-1.818-2.1-3.984-1.375-2.165-2.265-2.98-.9-.813-1.052-.93-.162-.117-4.323-3.073-4.162-2.956-7.287-4.834-3.126-1.878-5.155-2.924-2.03-1.045-3.933-1.64-1.905-.594-2.997-.722-1.093-.127-1.704-.125-.6.002-2.7.232m-33.952 38.396q-.132 12.757 2.58 30.862.734.397 1.523 1.258m24.144-32.434l.082 2.6q.01.712-.797 30.064.272.47.715 1.342m34.283-35.466q.413.638 1.126 38.47l1.047 3.28m7.647-46.98l.28.226q.527.315 10.496.656 9.97.34 15.955.395 5.986.053 11.628.576 5.64.522 8.38.828 2.74.306 4.97.556 2.232.25 7.965.53 5.734.28 9.915.408 4.182.127 5.747.187 1.566.06 4.118.217 2.55.157 5.05.337m-63-9.85l-.134-.375q-.15-.37 2.4-13.3 4.365-3.772 5.845-5.006 1.48-1.233 2.265-1.9.783-.657 1.786-1.682 1.003-1.024 2.948-2.875 1.945-1.85 2.935-2.65 1-.8 4.06-3.082m21.086 1.993q.046.474 1.575 3.283 1.53 2.808 3.196 4.934 1.667 2.127 3.4 4.332m-39.514 2.3q.5.226 7.547.83 7.036.604 14.652 1.282 7.616.68 11.452 1.533 3.835.854 5.437 1.68.388 1.526 1.524 11.2l-.507 2.305m-406.93-45.09l.564.33q.23.06 11.68.353 11.45.293 21.997.092 10.547-.2 18.793-.503 8.245-.302 21.046-.575 12.8-.274 18.77-.32 5.97-.045 13.614-.212 7.644-.168 17.373-.407 9.73-.24 21.655.37 11.926.6 18.9 1.195 6.974.586 14.12 1.03 7.146.446 13.477.88 6.33.434 11.786.7 5.454.275 9.84.426 4.388.15 5.963.182 1.576.032 3.277.087 1.702.055 3.057.147 1.355.1 4.62.1 3.264.02 6.714-.025 3.45-.045 5.4-.243 1.94-.197 3.2-.427 1.262-.23 5.015-.598m-228.183-19.336l2.358.172q.55.153 7.03.382 6.48.23 17.863-.98 11.383-1.2 17.646-1.895 6.262-.685 16.7-1.12 10.438-.436 17.046-.183 6.608.254 14.123.75 7.515.496 10.88.64 3.366.143 5.15.2 1.785.066 5.62.313 3.834.246 8.6.65 4.775.403 10.72 1.003 5.944.6 7.682.82 1.738.22 2.385.272.647.052 1.844.215 1.196.163 6.764.742 5.567.578 11.374 1.104 5.807.525 7.716.616 1.9.1 4.833.218 2.924.127 6.086.223 3.162.097 4.795.13 1.634.032 6.95-.02 5.316-.055 6.507-.097 1.2-.042 5.102-.305 3.913-.262 5.043-.286 1.13-.023 6.787-.385l2.36-.044m-243.09 10.78l.97-.852 1.258-.836q.598-.48 1.127-.762.528-.282 3.13-1.854 2.602-1.57 5.053-3.292 2.452-1.72 2.6-1.92.158-.2 7.252-6.47l-.05-.768-.688-1.126q-.8-.794-1.3-1.22-.5-.427-1.18-.893-.668-.466-1.547-.9-.878-.425-1.725-.66-.848-.235-.912-.256-.064-.022-2.633.02-3.572 2.046-3.65 2.063-.077.017-2.3 2.472-2.223 2.454-2.65 3.118-.427.663-.687 1.12-.26.458-.78 1.77-.52 1.3-.86 2.1-.34.8-1.565 5.043"/><path d="M1957.3 724.993l.107-3.307q.255-3.605.232-15.533-.023-11.93-.106-18.453-.084-6.524.004-9.156.087-2.63.193-4.38.106-1.75-.046-17.48-.153-15.73-.78-27.184-.628-11.454-.776-13.878-.148-2.425-.197-3.043-.05-.618-.244-5.474-.195-4.857-.354-10.914-.16-6.057-.345-12.928-.186-6.87-.3-10.16-.125-3.3-.174-5.093-.05-1.805-.087-2.644-.038-.838-.072-2.985-.035-2.146-.02-8.2.015-6.065.46-20.337.443-14.27 1.057-18.897.615-4.626.965-6.185.35-1.56 1.135-2.884.786-1.324 1.187-2.524.4-1.2.66-2.37.26-1.17.242-1.8-.018-.628-.002-1.002.016-.374-.532-2.385-.55-2-.988-2.53-.44-.52-3.266-1.586-2.827-1.064-3.9-1.28-1.085-.215-2.397-.3-1.313-.084-1.495-.18-.182-.095-5.87-.9-3.757-1.497-4.65-1.8-.894-.303-3.66-1.328-2.766-1.025-4.657-1.532-1.9-.507-3.986-1.02-1.815-.056-2.775.026-.96.082-3.632.527-2.672.445-5.044.85-2.372.405-3.325.564-.953.16-1.5.307-.55.147-2.722.68-2.173.532-3.822.866-1.648.333-2.368.555-.72.222-1.166.403-.447.182-1.897.586-1.45.405-4.597 1.686-.18.05-.7.653-.5.602-2.467 4.322l-1.048.847-.312 1.024q-.272.26-.7 4.756-.418 4.496-.46 6.005-.043 1.5.767 5.352.8 3.842 1.325 6.425.516 2.583.84 5.5.325 2.927.568 9.815.243 6.9.255 10.77.012 3.88.966 19.23.953 15.35 1.57 23.378.616 8.03.692 12.106.075 4.077.244 8.542.17 4.465.83 16.838.662 12.374.862 20.6.2 8.226.195 11.608-.006 3.383-.02 7.98-.012 4.597-.1 9.655-.086 5.057-.3 8.48-.214 3.422-.27 5.473-.056 2.05-.313 6.4-.257 4.36-.87 12.527-.612 8.166-.705 9.246-.092 1.08-.256 1.695-.164.614-.332 1.82-.17 1.207-.372 2.932-.202 1.726-.326 2.628-.125.902-.467 3.627m-3.31-217.098q.547-.145 11.453-.652 10.906-.508 27.3-1.735l.56-.126m-35.44-10.46q2.387.017 13.048-.15 10.66-.166 15.635-.388 4.976-.222 7.775-.313m5.258 14.138l-.387.113q-.212-.026 3.295.577 3.507.603 6.1 1.168 2.604.566 4.414.984 1.8.418 5.345 1.132m-21.648-18.517q.574.427.706.53.283.113 5.297 1.3 5.015 1.177 9.778 2.583 4.763 1.405 10.214 3.433m-34.526-26.04q-.164-.592-.087-22.933.077-22.34.436-24.064m69.48 230.216l-.328.133q-1.665 1.268-2.024 1.76-.36.494-.606.976-.247.483-.397 1.087-.15.603-.105 1.537.043.933.407 1.658.363.724 1.43 1.424 1.067.7 1.88.727.815.027.87.072.056.044.577-.14.522-.185.868-.555.346-.37.763-.886.418-.517.395-1.436-.022-.918-.1-1.56-.1-.64-.593-1.122-.504-.48-.893-.7-.4-.22-.405-.324-.016-.104-1.695-.516-1.678-.412-2.073-.473m57.292-.314q-.695.703-.936 1.192-.24.5-.27.536-.03.046.265 4.167l.3.43q1.37.648 2.236.65.867.003 1.104-.15.238-.15.562-.564.325-.413.427-1.417.103-1.003-.018-1.16-.12-.158-.382-.555-.26-.397-.803-.734-.543-.337-2.27-1.03m63.9.835l-.44.104-.706.363-.598.717q-.586.125.816 4.963 1.217.3 3.538-.094.927-1.8.877-2.6-.05-.8-.467-1.255-.417-.467-.396-.548.022-.08-2.714-.84l-2.2.02m62.92-1.347q-.4.72-.484 1.208-.086.5-.14.566-.056.077-.002.942.054.866.12 1.43.067.564.373 1.073.307.508.516.748.2.24.37.513.16.273 2.856.46.436-.343.56-1.213.122-.87-.023-1.27-.146-.4-.572-.88-.426-.48-.7-.65-.284-.172-.745-.323-.462-.15-.477-.233-.015-.083-2.678-.055l-2.156 1.346m16.292-1.777q.208.55 3.455 16.968.63.836 1.106 1.66m-1.62-18.85q6.48 1.82 8.622 2.394 2.14.575 4.266.972 2.126.397 4.013.6 1.887.194 2.478.23.592.035 3.6-.04 3.008-.076 4.7-.35 1.702-.274 4.665-1.06m-35.642-6.487l1.156-.493q3.634-2.18 9.733-4.957 6.1-2.778 7.94-3.536 1.84-.758 3.034-1.2 1.193-.432 1.87-.617.677-.184.998-.34.32-.154 1.08-.395.76-.242 1.288-.468.53-.227 4.906-.46m-72.89 27.84l-.33-.682q-.866-13.074-.898-25.962l.183-1.188m-60.923 26.465q-.046-.46-.135-.636-.212-2.4.788-19.543l.474-2.515m-64.92 25.744l.013-.348q-.14-.554.66-13.342.8-12.788.9-14.05"/><path d="M1957.658 686.165l1.766-.056q3.516.023 11.487-.664 7.972-.687 18.78-1.14 10.807-.452 16.535-.458 5.73-.005 10.665-.03 4.936-.026 7.807-.048 2.87-.02 3.8-.01.94.01 1.322-.026.384-.038 3.408-.014 3.023.024 11.838.603 8.815.578 14.936.846 6.122.267 11.56.275 5.438.008 8.7-.05 3.252-.06 5.503-.116 2.25-.058 4.587-.07 2.337-.012 7.1.002 4.774.014 9.662.178 4.888.164 7.096.24 2.207.076 4.523.214 2.315.14 5.245.267 2.93.128 5.1.195 2.16.067 3.43.153 1.272.087 10.37.315 9.098.23 14.505.32 5.407.092 8.543.073 3.136-.02 5.383-.065 2.246-.047 3.784-.06 1.54-.012 2.866-.07 1.327-.06 4.2-.106 2.865-.048 5.563-.085 2.698-.038 6.664-.095m-4.444.314l.956-.05 3.678.006q.255-.03 7.168.18 6.912.208 13.368.827l2.622.404m-30.984 6.7l-.38.634q.03.07-.138 1.85-.167 1.78.274 7.46.44 5.678.695 7.58.254 1.904.674 3.454.42 1.55.767 2.336.348.786.858 2.135.5 1.35 1.355 3.75m-71.413-37.46q-.13.338-.2 5.526-.07 5.187.06 10.507.13 5.32.18 6.978.05 1.656.33 4.326.28 2.67.452 3.897.174 1.226.224 1.954.05.728.325 2.5m-66.667-32.86l.524 1.03q-.052.357 1.42 24.778l.062.127q.108.8 0 9.6l-.288 2.23m-129.76 4.612q.044-.56-.098-10.47-.142-9.912-.06-17.265.083-7.352.266-11.095.183-3.742.25-6.432.07-2.7.323-9 .253-6.32.366-10.988.113-4.666.26-6.74.145-2.074.418-11.152.273-9.078.376-19.694.103-10.616.117-15.347.014-4.732.124-9.777.1-5.045.145-9.945.036-4.9.048-8.868.012-3.968.092-8.347.08-4.38.082-10.53.003-6.15-.115-11.563-.117-5.414-.247-7.717-.13-2.303-.233-3.67-.103-1.37-.127-1.426-.025-.056-.16-2.058-.134-2.003-.306-4.192-.172-2.2-1.492-17.856l-.245-1.62m-20.95 42.578l.045 6.033q.1 1.992.7 19.32l.373 1.962m7.86-28.57q-.036.152.256 5.428.3 5.275.672 14.255.38 8.98.548 11.827m23.93-29.403q-.15 1.096.924 11.205 1.073 10.1 1.25 11.082m-37.828 38.607q-.037.28.208 8.294.245 8.014.25 10.65m10.246-19.055q-.094.325.444 10.106.538 9.78.683 11.036m19.717-16.43q.746 5.282.946 6.987.2 1.705.53 3.743.33 2.037.6 3.5m6.948-16.633q.063.405.623 6.732.56 6.326.853 8.96m-41.126 32.654q-.025.48.204 6.132.23 5.65.467 8.2m6.84-13.925q.018 12.9 0 15.8m25.2-16.5l-.327.628q-.226.34-.4 4.07-.164 3.73-.088 6.077"/><path d="M1943.762 670.05q-.157 15.575-.24 18.203m-43.165-146.793l.618-.852q.98-1.78 1.044-1.962.063-.184 1.558-2.764 1.496-2.58 7.257-10.004.6-.103 1.053.362.445.464 2.377 4.955 1.932 4.5 2.997 7.376 1.064 2.886 2.223 5.698m14.352-2.92q1.18-.975 7.002-12.42l.313.01q.68.653 1.038 1.34.36.7 2.332 4.255 1.972 3.566 3.32 6.074m-18.324-42.265q-.595-.677-4.496-6.603-3.9-5.926-4.383-6.592m-30.556 248.937l.547.167 1.383.132q.458.188 13.015.13 12.557-.057 21.43-.475 8.874-.418 13.1-.483 4.235-.066 14.247-.338 10.012-.273 15.42-.27 5.408.002 11.46-.085 6.052-.087 9.604-.2 3.553-.104 5.747-.16 2.195-.056 6.004-.27 3.8-.213 6.6-.394 2.782-.18 10.7-.37 7.906-.2 13.717-.2 5.8-.012 33.273-.027 27.46-.015 27.8-.013.34.003 9.517.017 9.178.014 22.847.62 13.67.607 19.238.78 5.57.174 9.65.236 4.08.06 4.73.085.648.023 2.8.054 2.152.03 4.382.04 2.23.01 8.18.207 5.95.195 15.05.478 9.1.283 12.655.34 3.554.055 10.46.193 6.906.137 10.453.268 3.546.132 6.25.228 2.703.097 7.98.456 5.275.358 10.696.87 5.42.513 7.132.664 1.712.15 2.393.23.68.08 6.172.598 5.5.518 12.54 1.063 7.05.546 10.285.795 3.235.25 6.748.384 3.513.135 7.47.238 3.956.104 7.7.14 3.744.035 7.35.057 3.608.022 8.988-.04 5.38-.062 6.04-.1.658-.03 6.782-.327 6.125-.3 10.177-.68 4.053-.383 8.113-.942 4.06-.56 6.082-.75 2.02-.2 4.088-.35 2.068-.163 3.313-.28 1.246-.116 2.275-.267 1.03-.152 3.162-.34 2.133-.2 5.066-.396 2.934-.207 3.2-.188.265.02 4.3-.522 4.035-.54 7.424-1.004 3.388-.464 4.5-.668 1.113-.203 2.202-.48 1.1-.275 2.526-.602 1.437-.326 2.764-.57 1.328-.245 2.768-.398 1.44-.153 4.087-.62 2.647-.467 3.8-.56 1.142-.094 1.375-.138.232-.044 2.47-.236 2.24-.193 4.104-.274 1.865-.082 3.833-.192 1.967-.1 3.026-.115 1.058-.004 3.205.1 2.146.103 4.648.143 2.502.04 3.482.032.98-.007 2.336.072 1.356.078 5.576-.113"/></g><g stroke-width="4.789"><path d="M1919.792 967.222l-.078.296q-.14.225.416 9.568l.005-.372q-.065-.14.042-2.606.106-2.466.837-5.353.73-2.886 2.082-4.955 1.35-2.068 3.822-4.546 2.47-2.478 5.035-4.33 2.565-1.85 5.557-3.325 2.994-1.474 6.976-2.825 3.983-1.35 9.773-2.226 5.8-.876 12.637-1.1 6.847-.233 10.7-.027 3.864.207 10.183.994 6.32.786 12.442 2.214 6.124 1.427 10.04 2.9 3.917 1.475 6.13 2.863 2.213 1.388 2.92 2.063.7.676.933.947.224.27.77 1.18.547.9.922 1.718.374.8.84 1.924.465 1.115.804 2.348.34 1.232.714 2.995.375 1.764.585 2.684.2.92.593 3.005.384 2.084.598 3.155.214 1.07.38 1.304m-.22-3.362l.866 2.9q.8 2.036 1.16 2.57.36.532 1.214 1.358.854.827.998.88 1.807 1.025 5.46 1.65 3.654.626 5.554.67 1.9.044 3.254-.023 1.354-.067 2.743-.184 1.388-.117 5.625-.774 4.237-.656 4.837-.903.6-.248.916-.444.314-.197.708-.66.394-.462.463-.493.07-.032.754-2.603.685-2.572.443-9.17l-.4-1.675m1.265-.14l.12-.342.38-.68q.75-1.148 1-1.366.258-.217.712-.65.453-.432.913-.8.46-.368 2.436-1.705 1.976-1.337 4.346-2.776 2.37-1.438 3.894-2.196 1.525-.758 5.555-2.154 4.03-1.396 10.914-3.16 6.884-1.765 10.148-2.596 3.264-.832 6.606-1.5 3.342-.67 6.248-1.086 2.906-.415 7.903-.54 4.998-.125 6.483-.115 1.486.01 3.7.18 2.214.17 4.86.306 2.646.136 2.72.158.072.022 2.525.225 2.454.203 4.194.424 1.74.22 3.2.602 1.45.382 2.75.72 1.302.338 2.548.667 1.247.328 3.853 1.107 2.606.778 3.96 1.208 1.355.43 2.577.867 1.222.437 2.396 1.024 1.174.587 2.45 1.176 1.275.6 2.164 1.03.888.442 2.976 1.916 2.088 1.474 3.007 2.388.92.915 1.25 1.323.33.408.74 1.083.408.674.923 1.894.514 1.22.77 2.168.254.95.616 2.805.362 1.856.706 3.63.344 1.776.546 2.6.202.813.8 2.352l.762.8q.4.244 1.174 1.047.783.803 2.052 1.448 1.27.645 2.38.957 1.113.313 2.718.525 1.606.212 1.707.214.102.001 2.703.278 2.6.278 3.82.314 1.217.037 4.436.086 3.22.048 4.838.017 1.617-.03 3.148-.213 1.53-.182 2.042-.298.5-.116 1.2-.277.7-.16 1.15-.33.45-.168.656-.2.205-.04 1.043-.57.84-.53 1.55-1.333.7-.805.888-1.154.176-.35.484-.847.308-.5.66-1.27.353-.77.917-3.82l.07-1.18m2.216-.158l.053-.325.7-1.692.587-1.008q.606-.626 3.785-4.017 3.18-3.4 5.933-5.32 2.755-1.93 5.08-3.097 2.325-1.166 5.95-2.445 3.625-1.28 6.214-1.807 2.6-.528 8.014-1.373 5.425-.844 8.983-1.253 3.558-.4 7.87-.577 4.312-.17 6.796-.365 2.483-.196 7.9-.223 5.425-.027 8.233.137 2.8.164 4.08.423 1.272.26 5.792 1.36 4.522 1.1 7.003 1.83 2.48.73 4.12 1.328 1.64.598 2.465.9.827.3 2.46 1.03 1.634.74 2.407 1.14.772.4 1.945.968 1.174.566 2.427 1.245 1.254.68 1.715.965.46.285 2.172 1.416 1.7 1.13 2.653 1.886.94.754 1.312 1.12.37.366.8.718.428.353 1.215 1.23.787.877 1.848 2.428 1.06 1.55 1.658 2.663.597 1.112 1.423 2.6.826 1.497 1.336 2.377.5.88 2.075 2.584l2.213.996 3.03.7q.625.1 4.995.4 4.37.3 6.893.433 2.522.142 4.35.346 1.83.204 2.75.23.923.028 3.337.153m-464.097-4.52q-1.027.857-1.738 1.225-.7.368-.78.432-.07.065-4.128.402-4.057.336-6.646.196-2.6-.14-3.815-.275-1.226-.135-2.038-.284-.812-.148-2.32-.33-1.506-.182-2.525-.296-1.018-.115-1.955-.32-.937-.204-2.814-.716-1.876-.5-2.33-.66-.453-.15-1.333-.675-.88-.525-1.13-.693-.248-.17-1.103-1.316-.856-1.148-1.34-2.904-.484-1.757-.663-3.348-.178-1.6-.243-2.534-.065-.943.458-9.028.523-8.084.84-12.96.315-4.876.4-7.008.095-2.13.557-12.22.462-10.1.667-33.28.073-.2.494-.1m-.713-.768l.036-.415q.103-.107 1.37-3.632.843-.192 1.467-.34.624-.148 1.94-.438 1.316-.3 2.4-.5 1.095-.2 3.963-.422.162-.053 1-.073l.512.018q.403-.107.58-.237l.34.166.242-.03q.152-.154-.343-.474-.494-.32-.973-.486-.478-.165-.787-.324-.3-.16-.875-.27-.566-.1-1.187-.1-.62 0-4.42.326-.13.112-1.734 1.374-1.605 1.26-3.766 3.95m1.488-3.823l-.392-1.185q-.45-2.657-.525-2.882-.075-.226.6-8.12.083-.384 1.83-.722 1.747-.34 3.498-.516 1.752-.177 2.992-.345 1.24-.168 1.553-.258.313-.1 2.097-.6 1.784-.5 2.732-1.03.124-.203.192-.614.068-.4-.14-1.284-.2-.874-.204-.9.005-.017-.4-1.046-.404-1.03-.972-1.398-.567-.37-1.46-.934-.584-.2-1.546-.236-.962-.038-1.83.225-.866.263-1.098.442-.232.18-1.32 1.2-1.087 1.02-2.1 2.275-1.002 1.254-2.576 4.26l-.062 1.705m13.64-6.03q.145-.074.844-.407.7-.333 2.036-.563 1.336-.23 1.406-.266.07-.036 2.05-.308 1.977-.272 9.656-.552.982.096 1.264.034.282-.063 2.464.252l.97.217q.453.206 1.926.644.636.323.87.672.232.348.814 2.837.582 2.5.592 3.36.01.873-.17 3.162-.177.698-.368 2.526l-.143.74q-.22 2.253-.1 2.776l-.13 1.43q-.207 1.24-.26 1.568-.052.328-.214 1.104-.162.775-.2 1.56-.037.783-.07 1.233l.075.262q3.692 1.307 3.9 1.304.2-.004 5.148-.445 4.95-.442 8.388-.6 3.44-.16 4.86-.167 1.42-.007 5.78-.028 4.358-.02 9.43.232 5.072.253 7.622.517 2.55.264 4.347.55 1.798.285 3.694.595 1.896.3 3.224.588 1.328.276 1.8.33.482.053 2.24.32 1.758.266 5.302.655 3.544.388 5.314.506 1.77.117 6.404.342l.25-.197m-3.072-.543l.795.033 2.462-.014q.476.115 9.05-.555 8.575-.67 14.387-.88 5.812-.2 8.342-.204 2.53.006 7.918.236 5.387.23 9.46.406 4.073.175 6.773.343 2.7.17 4.312.237 1.614.067 2.04.075.426.008 1.302.06.877.054 1.972.082 1.096.028 2.547.097 1.45.07 5.312-.147 3.86-.217 5.228-.585 1.366-.368 1.98-.724l.15-.435q.046-1.312-.107-1.84-.153-.53-.4-.96-.258-.432-.894-1.4-.636-.958-1.533-2.023m-152.634-2.287q2.053.054 6.562-.015 4.508-.07 7.554-.004 3.047.065 4.37.18 1.324.115 3.206.028 1.882-.088 3.208-.173 1.326-.084 4.12.02 2.792.104 4.945.5 2.153.397 2.92.572.766.175 2.106.37 1.34.196 2.88.422 1.54.226 2.266.347.726.12 1.906.2 1.18.07 2.727.082 1.546.013 2.346-.001.8-.014 5.505-.083 4.706-.068 6.6-.082 1.884-.013 8.16.018 6.275.032 9.1.182 2.817.15 5.97.325 3.153.176 5.332.178 2.18.003 6.38-.06 4.202-.064 7.32-.154 3.117-.1 4.703-.133 1.586-.04 2.683-.034 1.096.008 2.16.006 1.065-.002 3.326.116 2.26.117 4.277.185 2.016.067 2.146.1.13.033 1.456.135 1.326.102 2.245.125.92.022 2.304.068 1.384.045 1.78.03.396-.014 3.327.068 2.93.082 4.014.14 1.084.057 2.94.12 1.857.062 2 .1.132.037 3.364.3l1.3.437m-184.233 85.21q-.005-.154-.25-.47-.072-.897.84-3.272.912-2.375 2.06-3.834 1.147-1.46 1.896-2.103.75-.645 1.108-.866.358-.22.67-.36.3-.138 1.858-.527 1.546-.4 4.967-.788 3.42-.397 5.302-.6 1.88-.202 3.167-.458 1.286-.256 1.8-.375.504-.12.912-.277.407-.16.743-.362.337-.204.72-.84.385-.638.956-3.73.57-3.1.526-4.418-.045-1.326-.175-3.03m-15.048 10.176q.01-1.185-.003-17.78-.013-16.595.017-25.78.03-9.185.088-12.78.057-3.594.14-8.615m16.235 50.727q-.056-.25-.2-7.646-.145-7.396.114-25.108.258-17.712.235-19.037m1.187 51.79q1.375.454 5.194.94 3.82.486 10.78-.07.344.056 2.872-1.717.24-.093 1.4-.3 1.168-.216 2.123-.452m-2.357-1.927q.515.07 10.678-.105 10.162-.177 16.023-.32 5.86-.144 8.177-.125 2.317.018 3.294.045.977.027 2.432.048 1.456.02 5.225.16 3.77.14 6.413.293 2.644.153 5.48.467 2.835.314 3.62.433.787.118 2.242.292 1.456.173 2.452.327.995.154 1.57.274.574.12.655.114.08-.005 1.004.285.924.3 2.894.88"/><path d="M2009.616 939.226l.294-.126q2.718-.276 11.796-1.1 9.08-.814 14.964-.804 5.885.01 9.023.146 3.137.136 6.474.32 3.337.184 5.726.24 2.4.056 8.785.2 6.395.155 9.68.247 3.285.093 5.648.147 2.363.055 4.9.25m-3.69-3.666q-.033-.205-.292-1.83-.26-1.625-.34-3.532-.08-1.908-.15-3.34-.068-1.432-.058-5.506.01-4.074.167-9.48.156-5.404.015-8.42-.142-3.016-.285-4.082-.143-1.066-.15-1.404-.008-.34-.06-.857-.05-.518-.352-1.938"/><path d="M2049.88 934.402q.01-.068-.067-12.425-.077-12.358.176-25.56l.114-.795m-21.2 37.86q-.133-.38-.335-7.1-.2-6.7-.13-11.833.07-5.122.092-7.696.022-2.574.07-4.57.048-1.996.074-3.244.025-1.248.14-1.955.114-.707.332-2.012m-29.393 40.237q-.235-.657-.486-7.874-.252-7.217-.638-13.177-.387-5.96-.624-9.26-.238-3.3-.248-4.3-.01-1-.026-2.312-.015-1.304.056-2.535m-15.3 37.62l-.274-.685q-.185-.303-.694-11.282-.5-10.98-1.175-25.12l-.14-.853m-37.74 40.777l-.403-.906-.22-1.004q-.263-.635-.994-8.76-.732-8.124-1.025-13.595-.292-5.47-.435-8.293-.144-2.823.45-7.663l.807-.708m88.008 46.442q.417.74 1.492 2.2 1.074 1.472 3.456 4.415 2.38 2.943 4.07 4.516 1.688 1.572 3.52 2.492.603-.318 1.313-.763.7-.445 2.614-2.323 1.904-1.878 3.58-4.15 1.675-2.273 2.64-3.595.963-1.32 2.07-2.802"/><path d="M2039.786 941.833q-.072.305-.14 2.087-.067 1.783.408 8.9.474 7.107.937 11.795.463 4.687 1.593 14.74l.282.808m-16.402-36.553q.125 1.983.44 8.96.314 6.978.917 10.085.603 3.107 1.093 5.046m31.042-21.345q-.156 1.18.066 25.657l.5 1.273m24.093-45.144q.53-.05 6.292-.316 5.764-.266 11.607-.57 5.843-.306 15.4-.466 9.55-.16 15.525-.16 5.977.002 9.786.1 3.8.108 6.83.168 3.02.06 5.522.05 2.5-.01 3.272-.001.772.01 4.585.06 3.813.052 4.384.07.57.02.957.072.385.052 2.008.142 1.624.1 3.276.383m-88.562-18.054q2.753-5.513 3.175-6.198.42-.686.95-1.397.53-.712 3.26-2.56 2.73-1.85 3.422-2.027.693-.18 2.142-.245 1.448-.066 1.5-.086.062-.02 1.264.2 1.2.23 1.94.577.74.348 1.667.876.928.527 1.808 1.374.88.848 1.612 1.828.734.98 1.2 1.725.467.745.533.808.066.063.966 3.35.9 3.288 1 3.942.1.655.213 2.467.122 1.813.07 3.213-.052 1.4-.002 1.72.247-1.03.53-2.33.283-1.3.547-2.533.264-1.234.668-2.857.404-1.623 1.095-3.457.7-1.833 1.28-2.95.588-1.117 1.783-2.7 1.194-1.57 2.56-2.825 1.366-1.254 3.325-1.86 1.96-.607 3.13-.696 1.168-.1 2.027.015.86.103 1.58.24.722.138 1.47.45.747.312 1.505.74.76.43 2.15 1.478 1.4 1.048 2.087 2.05.697 1 1.276 2.362.58 1.36.622 1.425.044.064.48 2.45.436 2.387.573 3.367.136.98.26 2.44.124 1.46.118 2.142.05.6.3-.008.26-.62.284-.618.026.001.333-1.044.306-1.046.9-2.965.604-1.92 1.663-4.124 1.06-2.205 1.168-2.4.108-.207 1.995-2.5 1.887-2.282 3.184-3.192 1.298-.9 2.103-1.246.805-.337 5.1-.68 1.28.186 4.027 1.284.273.036 1.9 1.487 1.617 1.45 2.5 2.804.894 1.354 1.405 2.388.5 1.034 1.142 3.265.63 2.23.95 4.015.32 1.785.4 2.566.08.78.168 3.234.088 2.453.04 3.473-.048 1.02-.03 2.95m-60.29.77q-.002-.2-.3-4.136l.143-1.445"/><path d="M2141.356 923.7q-.125-.22.2-7.412l.44-1.843m31.58 21.957q.034-.22-.8-6.186-.844-5.966-1.368-10.004-.525-4.04-.716-7.8-.2-3.752-.147-6.787.044-3.035 2.777-13.204.645-.14 1.4-.3.765-.148 1.87-.324 1.105-.176 3.57-.325 2.465-.15 4.183-.154 1.718-.005 6.3.183 4.594.2 9.108 1.48.494.505 1.45 1.68.958 1.175.972 1.2.014.015.86 4.705.846 4.7.57 14.78-.275 10.1-2.7 17.345-2.123 1.12-3.22 1.53-1.097.4-2.766.67-1.67.26-4.046.475-2.377.216-3.685.288-1.3.072-5.335-.173-4.026-.246-4.715-.292-.7-.047-1.163-.1-.472-.052-2.253-.385m27.435.3l.787.508q2.406.897 2.46.935.055.038 1.584.365 1.528.326 3.25.488 1.722.162 3.322.198 1.6.037 2.578-.066.978-.104 1.847-.328.868-.224 1.42-.436.55-.212 2.04-1.102.86-.886 1.18-1.7.32-.815.822-3.84.502-3.025.524-4.026.023-1.002.054-3.46.032-2.457.004-5.714-.028-3.258-.113-5.333-.085-2.075-.48-4.375-.396-2.3-1-4.008-.758-.665-2.9-2.15l-1.013-.432q-.218-.2-1.614-.052-1.397.137-2.222.352-.824.216-1.652.472-.827.256-1.355.377-.53.12-3.07.674l-2.35.752M2223.85 936q.1.034.34.183.26.1 4.833.176 4.57.084 7.906-.18 3.334-.265 5.002-.545 1.668-.28 6.656-.708 5-.43 9.98-.172 5 .257 8.083.512 3.093.256 3.97.304.876.05 5.758.45 4.882.4 7.322.55 2.44.15 4.992.228 2.55.08 2.773.092.222.014 8.324.313 8.103.3 9.367.4 1.265.1 3.398.2 2.132.1 3.2.172 1.078.062 3.336.27 2.26.208 5.207.284 2.948.076 3.27.087.322.01 1.137-.042.815-.053 3.453-.074 2.638-.02 4.4-.03 1.752-.008 3.424-.033 1.672-.024 4.983-.01l1.723.17"/><path d="M2346.6 938.847q.094-3 .394-6.867.3-3.867.564-6.397.264-2.53.744-3.955.48-1.426.822-2.1.342-.675.466-.832.124-.156.4-.368.265-.2.737-.334.472-.123.96.012.486.135.772.215.287.08.873.225.585.144 1.913.253 1.328.1 5.577.335 4.248.226 6.848.24 2.6.015 5.38.067 2.78.052 4 .033 1.232-.02 1.627-.007.395.013 1.135-.153l-.83-.925-.62-.172q-9.128-.694-12.97-1.062-3.843-.367-6.6-.466-2.768-.1-4.155-.084-1.388.015-2.548.015-1.16 0-2.804.06m-2.045 25.024q.25.027.353.144.537.33 1.584.816 1.048.487 3.03 1.082 1.985.595 5 2.005l.316.498.396.847q.272.563.855 4.047.584 3.485.646 5.597.062 2.112.06 4.333-.002 2.22-.18 4.8-.177 2.578-.154 3.548.024.97.2 3.234l-.076.4m3.557-29.455q.15-.117-.5-.597-.02-.004 4.37-.248 4.392-.244 16.94-.452m-33.344-27.08q-.203-1.066-.224-1.14-.02-.074-.004-5.866.016-5.8.156-9.424.14-3.633.172-6.827.03-3.194-.13-10.108-.16-6.915-.203-7.083-.042-.168-1.16-4.834-.133-.175-.67-.566-.536-.4-.805-.92l-.558-.364-.528-.403q-.4-.066-1.998-1.874-3.455-.818-3.772-.907-.316-.088-3.672-.456-3.356-.368-5.153-.543-1.798-.175-2.57-.263-.772-.087-1.47-.195-.697-.1-1.773-.476-1.075-.368-1.44-.524-.365-.156-.845-.717-.48-.56-.734-1.53-.253-.967.17-3.383 1.187-.838 2.874-1.425 1.687-.587 3.975-.845 2.288-.258 5.962-.504 3.675-.245 4.655-.416.98-.17 2.54-.615.312-.488.304-1.12-.008-.63-.136-.777-.127-.145-.7-.44-.57-.294-2.32-.453-1.75-.16-2.623-.138-.874.02-3.294.693-2.42.673-3.5 1.115-1.087.442-1.948.907-.86.465-1.435.722-.573.256-2.986 2.244m23.8 11.636q-.037-.278.245-8.5.283-8.223.648-13.817.366-5.595.63-7.96.265-2.365.478-3.462.214-1.098.463-2.157.25-1.06.472-1.595.222-.536.525-.973.302-.437.37-.512.067-.075 1.88-2.106 1.813-2.03 2.9-2.95 1.076-.918 1.85-1.3.774-.393 1.272-.558.5-.165 1.297-.397.8-.233 1.298-.3.498-.078.996-.178.497-.1.976-.1.48-.01.5.008.03.017.683.276.65.26 1.9.853 1.26.594 2.18 1.156.92.563 2.58 1.637 1.66 1.074 2.418 1.55.758.476 1.96 1.277 1.203.8 2.173 1.334.97.534 2.58 1.044 1.607.5 3.165.952 1.557.442 1.94.553.382.1 1.954 1.057m-24.02 6.743q-.33-.553-.615-.867-.03.053-.001 7.055l.04.012q-.004.628.3-1.54.305-2.168.325-1.777.02.4.025.78m-.076 22.954q-.4-.364-1.26-6.986l-.244-1.58m8.037 8.877l.088-2.236q-.022-.1.14-2.585.16-2.496.403-4.137m-7.72 32.212q-.125-.584-.357-2.9-.232-2.324-.065-4 .167-1.664 1-4.204 1.78-1.36 2.474-1.68.695-.32 5.436-.85l.356.12.425.397q.8-.072-.274 10.12l-.972.647q-1.28.563-2.822 1.034-1.543.472-3.318.937m-3.693 6.352l.354 2q.168 1.232 1.07 5.06.902 3.83 1.634 4.942l1.095.697 2.445.54q.7.055 1.598-.187.908-.242 2.453-1.305l.123-.35q.025-.1-.686-8.263-.5-.834-9.138-2.585l-2.062.295m5.51 31.216q-.143.172-.395.524-.252.353.44 5.74l.676.252q-.113.16 1.66-.562l.195-1.3-.04-1.182-.352-2.128q-.826-.682-1.367-.84-.54-.158-1.356-.655m10.707-.16q.205 1.424.4 2.73.207 1.305.4 2.08l1.628.312q.293-1.36.176-2-.116-.632-.415-1-.298-.367-.283-.385.015-.02-.603-.277-.617-.258-1.704-.928m-20.483-79.033l3.18-.047q.38-.1 19.902-.264m-20.968 6.743q.432.06 4.948.08 4.516.02 7.52-.072 3.003-.092 5.128-.357 2.124-.266 2.77-.372.645-.105 1.72-.36.005-.35-.082-.628-.087-.28-.45-.85-.363-.57-1.328-1.5-.966-.932-2.246-2.14m-20.26 59.287l.064-.2q.152-8.795.234-12.8.083-3.996.328-9.7.244-5.705.255-6.65.01-.946.075-4.885.064-3.94.106-6.02.04-2.082.536-7.494l.22-1.296m-132.056 27.318q.446.03 1.045.46.6.432 1.182.875.58.443 1.238.778.656.336.688.367.03.03 2.786.413 2.755.38 5.82.238 3.065-.143 4.64-.38 1.575-.238 6.472-1.564l.1-.588-1.524-2.854q-4.7-1.077-8.892-1.24-4.192-.162-6.607.218-2.415.38-4.507.83m-17.49 14.31l-.074-.245q-.4-.665 1.168-11.27.026-.06 1.1-.9 1.073-.84 2.2-1.6 1.126-.76 1.644-1.024.518-.263 3.407-1.717"/><path d="M2217.227 879.935q.42.172 2.24 1.413 1.818 1.24 3.44 2.344m.313 17.28q-.206-.748.098-8.23.303-7.482.366-7.984m-8.11 8.107q0-.17-.102-.398-.102-.228-.248-.833-.145-.605-.138-.67.007-.065.016-3.607l.23-.76m12.693 18.132q.313.096 7.17-.254 6.856-.35 8.12-.516m-13.323-12.16q.105.33.52 2.455.414 2.123 1.26 4.155.846 2.032 1.522 3.564m6.31-8.797q.08.26.312 1.793.23 1.534.356 2.278.125.744.353 1.888m-12.525 8.5q.33 1.35 1.073 3.45l.96.46.507.062q.005.015 1.388.2.237.34.953.58m.797-3.824q.474.758.92 2.045.445 1.287.88 2.306m-6.606 7.89q.05.277 1.48 4.682l2.063 1.44m.465-.163q.402-.064 1.184-.298.78-.234 1.655-.54"/><path d="M2229.195 920.025q1.5.554 2.042.747.544.193.915.394.37.202.693.637.322.435.383.736.06.3.157 1.106.096.804.467 3.34m10.948-7.73l-.153.2-.043.395q.013.162 1.556 5.28l2.348.512q2.237-.06 2.453-.1.216-.04 2.82-.323"/><path d="M2245.43 921.025l1.9-.34q.664-.274 5.92-1.58m.076.77q-.132.16-.535 1.863-.402 1.703-.578 3.1m-7.237-15.45l-.158.223q.002-.006.23.648.227.654.436 1 .2.335.45.5.24.175.825.404.583.228 1.452.2.87-.038 2.834-.438m-7.405-2.077l.3-.2 6.937-1.94m-3.303-14.685q-.077.192 1.138 3.737.788.22 2.48-.603m-.538-3.053q.895 1.555 1.343 2.037.45.482 1.644 1.408m7.09 26.997l.267.296q.894 2.5 1.03 2.917.137.407 1.308 1.97l.6.3q.213.376 3.72.616 3.507.24 5.292.014m-.852-8.34l-.2.348q-.112.137-.557 5.932l-.115 1"/><path d="M2263.558 922q8.516-.272 10-.378m-8.905-14.457l-.117.23q.057.103 1.352 3.976.656.198 1.386.05.73-.15 1.343-.425l1.118-.118 1.3-.806"/><path d="M2265.84 904.108q1.246.767 1.545 1.03.3.263.683 1.038.384.775.57 1.436.187.66.27 1.163.083.502.078.758-.004.256.322 2.384m-8.422-10.337q.365-.01 6.1-.596 5.724-.585 7.214-.7m6.447 9.188l-.476.05-.272.107q-.512.034-.088 3.652l.396.113q.507-.065 2.426-.786m1.484.23q1.154.02 1.753.078.6.057 2.83.07m-6.8-5.742q.085.085.698.53.614.445 1.2 1.105.576.66 1.583 1.742m-8.74-16.065q-.006.142.62 3.702l.474.73m.724-8.107q.04.37.3 2.34.262 1.97.626 3.047.363 1.078.633 1.95m2.838 24.483q.001.84-.06 1.686-.06.847-.1 1.468-.05.62-.04 1.175.01.555.375 2.022m2.118-2.756q.686.013.754.003.068-.01 3.623.335l1.467-.176m-5.436-4.447q.67-.138 3-.3 2.32-.17 4.247-.38m3.47.543q-.005.234-.026.778-.022.543.515 4.464l.698 1.946m2.598-6.878q.82 1.605 1.12 1.94.3.335.633.502.333.168.42.24.086.074.335.036.248-.038.692-.128.444-.1 1.366 3.68m-7.87-25.023q-.092 1.25.278 6.67.697.685.616.855-.08.17.832.894m1.262-3.975q.195.112.637.462.442.35 1.028.6.587.24.922.275.335.036 3.48-.258m-9.22-20.35q-.458.765-.152 4.3.305 3.524.708 5.345m4.026-6.58q.138 2.08.772 6.47.5.524.786 1.34m-5.5-8.797l.27.042q.435.17 5.007.001 4.57-.17 5.838-.273m2.45 2.824q.044.194.637 4.447l.847 1.526m.706-3.973q-.047.05 1.55-.113.01-.008 1.8 4.396l.98 1.446m-8.2 5.202l-.1.748.153 1.792q.264.884.925 3.87.66 2.987.83 3.616"/><path d="M2310.13 909.85q.338.202.756.332.418.13.5.17.08.04 3.43-.23 3.35-.27 5.242-.582m-10.335-2.986q.363-.17.465-.235.96-.137 1.42-.3.46-.153 12.623-.415 12.163-.262 13.863-.195m-21.674-5.355q2.013.085 10.2.196 8.178.1 10.07.196"/><path d="M2335.496 899.217q-.023.193.22 2.04.242 1.847.485 3.392m-13.935-12.39q.8 1.98.942 2.255.15.276.34.475.2.2 1.148 1.162m2.134-4.892l.095.153q.294 1.587 1.147 5.06l.966 1.677m-5.213-12.092q-.1.087-.095.13.004.042 3.527.17 3.523.128 6.652.545 3.13.416 4.667.683m4.564 4.216q-.138.195-.27.295-.132.1-.77 2.428-.638 2.328-1.093 3.776m-16.774 9.174q.252.542.48 1.97.23 1.427.688 3.462m4.974-2.675l.068.2q-.02.138.525 2.838.545 2.7.742 3.486m10.484-9.11l-.24.393q-.1.134-.044 2.76.047 2.628.118 3.804m-17.48 8.188q.33.527 1.02 6.92l.317 1.268m4.565-6.808q.086.27-.002 5.728l.17 1.312m3.616-7.27l.065.172q-.053.15.657 2.623.7 2.475 1.003 3.394m5.363-3.432l-.207.64q-.23 1.364-.424 3.413m-30.968-3.216l.212.028q.47.323 6.47-.036 6-.36 8.143-.6m-10.966-5.283l.07-.048q-.04.016 1.575.54l.185.46q.043.502.072.523.03.02-.04.254-.068.233-.326.34-.257.108-.788-.204.134-.034-.94 1.976-.125.08-.346-.053-.22-.133-.26-.477-.037-.345.025-.535.06-.2.326-.326.265-.135 1.114.023.036.123.584 1.076.548.952 1.2 1.734m-55.648-37.546q-.042.2.067 2.914.1 2.703.25 4.436m4.268-5.97q-.126 1.494-.046 2.6.08 1.105.194 3.2m-178.072-20.04l.01.254q-.157.7.565 6.02.72 5.308 1.003 6.74m.314 1.066q.523.2 13.323-.698 12.8-.898 13.712-1"/><path d="M2113.375 874.832q-.127.296-.198.903-.07.606.008 6.353.077 5.747.2 7.216"/><path d="M2089.328 876.832l.253-.027q1.7-.208 9.587-.42 7.887-.2 11.5-.122 3.62.088 5.054.176m6.14-.46l-.454.75q-.154.585-.42 5.945-.268 5.36-.294 6.775m.295-.3q.138.028 9.83-.173 9.693-.202 11.2-.286"/><path d="M2139.834 875.143q.257.472.483 13.77"/><path d="M2119.906 874.832l.35.168q1.17.256 11 .64 9.83.383 10.47.422m5.53-.608q-.16.398-.256.6-.118.98-.214 2.308-.096 1.328-.232 5.937-.137 4.608-.17 5.244m.074-.09q.436.13 12.973.048 12.536-.082 13.264-.13"/><path d="M2149.446 874.454l.335-.103q.663-.317 19.84 1.792l.1.107q.536 1.654.606 1.912.07.26.527 5.534.458 5.275.516 6.905m5.584 16.984q.33 4.014.63 5.35m5.216-5.9l.154.348q.482 5.622.7 7.3m3.7-7.338q-.01.2.156 2.017.167 1.826.4 3.415m4.955-4.742q.248 1.778.322 2.198.073.42.062.443-.01.023.95 2.398m1.894-4.58q.05.73.723 4.513m-15.53 10.633q.1.246.15.907.05.66.22 2.35.17 1.7.335 2.633m4.026-7.497l-.047.213q-.054.608.222 2.612.275 2.003.53 3.674m-7.33-7.648q.356.065 4.63-.215 4.274-.28 6.243-.474m2.376 1.527q.1.197-.184.44l-.022.592q-.094.26.07 2.1.164 1.853.285 2.9m2.207-6.81q-.075.357.9 5.527l.52 1.12m-5.278-7.957l.418.182q1.134.024 1.196.056.062.032 2.487-.114 2.425-.145 3.692-.273m-141.983 4.824q.27 1.323.316 1.653.048.33.216.915.168.584.803 2.013m1.82-4.203q.403.636 1.967 3.676m5.047-4.974q.254 2.308.307 2.994.052.686.137 1.2.086.506.576 2.774m2.662-6.43l.453 1.413.622 2.294.595 1.576m-2.365-20.89q.262.902 1.176 2.635l1.273 1.8m1.82-4.124l.032.1q-.135.15.143 1.596.28 1.447.604 2.827m-16.625-6.59l.028.692q-.104.547.048 1.67.152 1.122.428 1.82.277.7.757 2.318m3.302-5.35q.075 2.657.242 4.743m-25.68-4.284q.03.06.75.86.663.03 2-.996.086-.174.65 1.4.563 1.585 1.006 3.008m-7.32 10.865q-.04.278 1.075 4.342l.576 1.468m4.175-5.35q.23 4.2.4 6.04m-36.962-5.96l.306.6q.864 1.127 1.68 1.876l1.507-.044q1.073 1.522 1.324 1.748.25.226 1.657 1.014m6.142-6.664q.392 1.12.793 2.027l.47.12q.287.008 1.005-.185.717-.192.76-.163.042.028.284 1.16.243 1.13.4 2.324m.4-19.888q-.18.492-.05 3.504.13 3.012.2 4.454m-9.132-5.513l-.493.725q-.153.652-.546 2.8m-6.697-3.365l.24.633q.17.552 1.578 3.353m-16.94-4.284q-.06.017-.64.103-.15.262-.216.83-.065.568-.48 1.514m4.026-3.06l.4.7.834 3.123m-5.9 9.247q.163.266.496 1.677.333 1.412.636 2.764.303 1.35.686 2.828m3.23-6.04l.092 1.467.15 3.965m-24.754-4.892q.034.147.24 1.728.206 1.58 1.4 4.92m4.028-4.892l.063.173q-.08.12-.073 2.27.007 2.15.085 3.53m-3.933-22.35q.214.664.702 2.075.487 1.4.782 2.208m-10.15-4.35q-.124.24-.165 1.305-.04 1.066.064 1.85.104.783.25 2.427m-.001 8.484q-.557 4.204-.872 6.12m-7.403-4.2l-.1.234q-.03.847-.24 2.888-.2 2.04-.44 3.54m-4.027-7.96l-.194.36-.2.565q-.104.507-.1 1.092.003.585.047.866.045.282.3 2.237m-1.198-20.2q.128.135.08.2-.164.235.965 2.543 1.13 2.307 1.403 2.78m4.177-3.273q.03.84.345 2.37.315 1.53.5 2.44m7.735-21.737l-.132.163q-.17.26-.017 4.057.153 3.796.372 5.495m-11.023 2.527q.334.073 7.562-.813 7.23-.885 10.553-1.52 3.323-.634 5.45-1.114m-24.435-10.092q-.3.495-.386 2.392-.095 1.896-.037 2.812.057.917.227 1.6.17.683 1.142 3.682m-3.693-6.054q-.513.7-.68 1.026-.17.336-.517 1.378-.348 1.04-.4 1.964-.062.922.06 1.54.122.616 1.234 3.5m-20.033 3.216l.037.212q.075.078.4 2.188.335 2.1 1.056 3.03m2.125-4.742q.027.166.05.845.022.68.36 4.276m-5.215-6.89l.316-.08q.682-.392 9.147-1.446m-7.256-12.702l-.033.196.028.962q-.066.568.206 1.964.272 1.396.597 3.08m-.63 27.768l-.036.247q.06 2.78.478 3.775.417.996.894 2.328m4.324-7.418q-.167.857-.257 3.2-.1 2.343-.133 4.3m-21.43-9.567q.286 3.028.285 3.142-.001.113.225 2.166.227 2.052.515 3.05.288.996.404 1.44m2.746-7.582l-.03.197q-.1.412-.1 2.246-.01 1.835-.008 3.367m-5.93-23.173l-.225.452q-.17.582-.144 2.15.027 1.57.76 4.126m1.43-6.188l.095.797q-.043.484.24 1.625.285 1.142.684 3.078m-1.336-23.943q-.203 1.25-.226 3.114-.024 1.863.7 4.533m2.996-9.336q.102.284-.06 2.562-.162 2.277-.33 3.64m-1.893-22.728q-.004.084.5 2.446.513 2.36.836 2.34.322-.02.793-.128.47-.107.73-.187.262-.08.97.057.45.513 1.207 1.85l.854.595m-12.513-7.8l.4.16q.246.043 5.152-.025 4.907-.07 12.64.012"/><path d="M1907.712 873.846l-.954-.722q-.55-1.125 3.732-4.605 4.282-3.48 5.74-4.388m416.5 3.445q-.365.07-3.386.126-3.02.056-9.764.122-6.743.066-12.402.126-5.658.06-9.88.203-4.22.144-6.167.18-1.946.035-6.092.276-4.146.24-6.064.38-1.918.14-4.714.217-2.796.077-9.272.504-6.476.427-16.675.23-10.198-.197-15.546-.484-5.348-.287-7.98-.328-2.634-.04-6.34-.1-3.706-.05-13.258-.07-9.552-.02-14.435.085-4.883.105-7.9.237-3.017.132-3.483.145-.467.014-3.983.18-3.517.166-4.854.25-1.337.084-2.9.154-1.574.07-2.464.156-.9.088-2.95.305m2.755-.6l-.83.17q-3.467-.046-3.546-.026-.08.02-2.27-.05-2.2-.07-5.507-.206-3.316-.136-6.7-.2-3.372-.055-5.688-.23-2.316-.173-6.95-.44-4.633-.267-7.386-.35-2.754-.084-8.447-.314-5.694-.23-8.817-.27-3.124-.04-4.413-.044-1.3-.006-5.7-.184-4.4-.178-11.84-.395-7.427-.218-11.42-.146-3.994.072-10.758.36-6.763.288-12.967.305-6.203.018-10.95.177-4.747.158-9.987.516-5.24.358-7.695.44-2.455.083-6.825.373-4.37.3-9.822.432-5.452.142-19.045.5-13.593.348-28.45.642-14.857.293-16.67.233-1.814-.06-3.453-.173-1.64-.113-2.695-.153-1.057-.04-2.185.04-1.13.08-1.672.1-.544.022-2.045.35m390.343-11.56l-.92.605-1.103.157q-.856.043-14.77 1.02-13.913.98-21.856 1.26-7.943.28-12.35.766-4.407.486-11.447 1.244-7.04.758-16.346 1.07-9.305.3-13.606.348-4.3.037-15.294-.43-10.993-.468-17.598-.663-6.605-.196-9.568-.32-2.964-.124-4.458-.24-1.494-.118-7.913-.297-6.418-.18-12.247.06-5.828.24-7.817.304-2 .064-4.68.1-2.692.025-4.4.015-1.698-.01-4.548-.015m2.85-2.07q-.52.347-.68.4-.16.064-9.38.394-9.22.33-10.53.297-1.312-.034-3.056-.12-1.745-.085-6.302-.217-4.557-.13-7.772-.295-3.214-.164-13.933-.523-10.72-.358-16.932-.362-6.214-.004-9.184.064-2.97.068-6.178.25-3.2.182-7.142.332-3.933.15-10.512.263-6.58.114-10.374.15-3.795.036-8.74.224-4.945.188-10.222.514-5.277.327-7.97.505-2.693.18-4.106.298-1.413.12-2.978.357-1.565.237-6.283 1.07-4.718.834-14.847 1.2-10.13.355-15.926.353-5.797-.002-8.818.01-3.02.014-5.7-.012-2.678-.025-5.162-.094-2.483-.07-4.3-.2-1.818-.14-2.306-.227-.488-.087-3.6-.535l-.9-.414"/></g><g stroke-width="3.942"><path d="M2465.66 862.65l.063 1.252q.136 1.212.145 1.374.01.163.46 2.167.45 2.005 1.654 4.4 1.204 2.385 2.2 3.658 1.006 1.274 1.4 1.698.403.424 2.26 2.232 1.858 1.807 4.032 3.566 2.175 1.76 3.4 2.705 1.225.947 1.668 1.308.443.36 1.055.8.612.428.7.457.087.03.83.532.743.504 1.6 1.03.857.525 1.783.93.926.403.97.442.045.04.862.314.817.275 2.84.647m-13.45-4.118l.1.2q.107.115.664 2.264.557 2.15.986 4.743.43 2.593.728 5.287.298 2.693.436 3.928.138 1.235.14 3.745.002 2.5.014 2.563.012.052-.216 1.8-.23 1.757-.443 2.345m-.18.286q.183.58.205.724.02.142.7 1.97.678 1.827 1.2 2.918.53 1.1.68 1.34.15.248.812 1.438.663 1.2 1.535 2.47.873 1.28 1.383 1.948.5.67 1.287 1.77.777 1.1 1.566 2.163.788 1.063 1.293 1.678.505.615 1.127 1.33.623.717 2.703 3.435 2.08 2.718 3.855 5.8.142.14.7 1.238.624 2.273.838 3.058.215.785.565 1.804.35 1.02.543 1.73.192.7.393 1.773.2 1.063.3 1.924.1.86.2 2.728.08 1.867.044 3.007-.036 1.14-.086 1.735-.05.595-.366 2.497l-.457 2.873m155.64.347l-.132-.262q-.302-1.357-.383-1.994-.08-.637.578-13.113.056-.092.304-.775.248-.684.687-1.888.44-1.204 1.35-4.072.912-2.867 1.57-5.193.658-2.326.966-3.7.308-1.376.952-4.62.644-3.243.856-5.073.212-1.83.438-3.9.227-2.07.283-2.5.056-.42.182-4.188.125-3.768.134-6.374.01-2.606-.006-5.186-.016-2.58.022-6.537.04-3.957.142-5.87.103-1.913.2-3.106.106-1.193.25-2.304.142-1.1.253-1.755.112-.645.764-4.795.653-4.15.842-5.2.188-1.04.538-6.24m-.508-1.04l.103-.744q.086-1.23.277-5.155.2-3.926.263-7.564.073-3.64.03-6.63-.043-3-.14-4.634-.096-1.643-.217-2.513-.12-.87-.42-2.335-.3-1.466-.302-1.498-.002-.032-.57-1.996-.568-1.964-1.05-3.008-.482-1.044-1.095-2.044-.613-1-1.232-1.886-.618-.887-1.232-1.6-.614-.704-1.62-1.708-1.005-1.005-1.5-1.45m9.917 45.112q.236.633.604 1.418.37.784 1.147 2.286.777 1.502 2.1 3.526 1.33 2.023 2.106 2.9.775.877 2.224 2.163 1.45 1.286 2.5 2.136 1.06.85 1.895 1.353.833.502 1.533.923.7.42 1.227.755.527.334 2.174 1.266 1.646.93 2.564 1.37.918.44 1.5.698.593.26 1.754.84 1.16.58 1.935.963.775.383 2.238 1.285 1.463.902 2.027 1.287.563.385 1.216.992.652.607.938.86.285.255.815.88.53.625 1.257 1.468.725.842 1.43 1.7 3.668 3.817 4.666 4.7.998.882 2.345 1.9 1.348 1.018 1.585 1.212.237.194 1.233.942.997.748 1.555 1.13.558.38 1.94 1.37 1.382.988 2.498 1.804 1.115.815 1.905 1.3.8.484 1.744 1 .954.517 1.28.626.324.1 1.26.458.935.348 1.8.642.864.293 1.916.554 1.052.26 3.466.8 2.415.53 3.33.726.915.194 1.737.317.822.123 1.788.312.966.188 1.52.306.553.118 1.475.234.922.116 1.124.128.202.01 2.307.287 2.105.275 2.705.335.6.06.7.08.1.022.998.043.9.02 1.664-.087.775-.1 1.272-.3.497-.2 1.7-.708 1.2-.5 1.687-.742.477-.233 1.703-1.884 1.225-1.65 1.84-2.977.615-1.327.873-2.186.257-.86.4-1.205.132-.346.32-1.355.2-1 .275-2.773.085-1.764.014-3.06-.07-1.297-.435-3.526-.365-2.23-.964-4.663-.6-2.433-.96-3.603-.36-1.17-.692-2.427-.332-1.257-.62-2.37-.288-1.113-.455-1.954-.168-.84-.343-1.572-.175-.73-.524-2.412-.35-1.68-.578-2.804-.228-1.123-.32-1.332-.1-.208-.5-1.706-.4-1.497-.62-2.378-.223-.88-.32-1.196-.097-.316-.222-.594-.125-.278-.635-1.7-.5-1.4-.924-2.5-.414-1.1-.76-1.933-.344-.834-.4-.883-.045-.05-1.305-3.156-1.26-3.106-2.22-5.264-.96-2.158-2.677-5.283-1.717-3.124-2.854-4.897-1.137-1.772-2.108-3-.97-1.236-3.313-3.95-2.342-2.715-4.1-4.8-1.767-2.084-2.462-3-.695-.907-.994-1.312-.298-.404-1.267-1.5-.968-1.106-2.664-2.637-1.696-1.53-2.54-2.375-.845-.844-1.705-1.818-.86-.975-2.386-2.656-1.525-1.68-2.467-2.828-.942-1.147-1.252-1.603-.3-.457-1.273-1.746-.962-1.288-1.313-1.788-.35-.5-.75-.912-.4-.413-1.347-1.42-.947-1.005-1.47-1.628-.523-.622-1.246-1.434-.723-.8-1.775-1.857-1.05-1.046-2.012-2.096-.96-1.05-1.54-1.666-.58-.616-.94-1.064-.36-.447-1.474-1.813-1.114-1.365-1.9-2.358-.795-.994-2.454-3.396-1.658-2.403-1.98-2.873-.322-.47-.67-.954-.347-.484-.646-.933-.3-.448-.582-.948-.283-.5-.47-.894-.187-.395-.624-1.195-.437-.8-1.4-2.432-.963-1.63-1.424-2.307-.46-.677-1.332-1.724-.87-1.047-2.073-2.357-1.203-1.3-2.874-2.678-1.67-1.37-3.235-2.353-1.563-.983-2.524-1.542-.96-.558-3-1.74-2.03-1.183-4.76-2.896-2.73-1.712-4.064-2.607-1.332-.895-3-1.966-1.667-1.07-3.358-2.18-1.7-1.108-2.926-1.966-1.235-.857-2.592-1.702-1.358-.845-3.5-2.074-2.144-1.23-3.198-1.8-1.055-.562-2.936-1.373-1.88-.8-3.102-1.297-1.22-.486-2.666-.908-1.445-.423-2.964-.83-1.52-.407-2.5-.606-1-.2-1.2-.245-.2-.046-1.365-.13-1.155-.082-2.658.136-1.503.218-2.073.5-.57.273-.908.514-.337.24-.965 1.03-.16.167-.636 1.003-.477.837-.684 1.515-.208.678-.318 2.145-.1 1.467-.115 1.518-.006.052.27 1.54.275 1.5.576 2.06.3.572 2.445 3.336l1.337 1.3q.905.783 1.12 1.025m73.308 121.463q-.114-.2-1.318-2.63-1.204-2.43-1.565-3.242-.36-.8-1.252-2.982-.892-2.172-1.8-4.65-.908-2.477-1.678-4.642-.77-2.165-.936-2.557-.167-.392-1.238-2.908-1.07-2.516-1.27-2.87-.197-.354-.42-.924-.223-.57-1.298-2.805-1.074-2.235-1.483-2.83-.4-.597-.85-1.395-.442-.798-.886-1.643-.444-.845-1.53-2.638-1.087-1.792-1.98-3.44-.894-1.648-1.25-2.3-.356-.642-.7-1.13-.335-.487-.716-1.124-.382-.637-1.28-2.264-.9-1.626-1.12-1.976-.22-.35-1.008-1.494-.787-1.144-1.188-1.764-.4-.62-1.125-1.547-.724-.927-1.528-2.07-.804-1.143-1.274-1.76-.47-.618-1.02-1.226-.55-.608-1.436-1.542-.886-.934-1.285-1.252-.4-.317-1.76-1.374-1.36-1.057-2.07-1.508-.7-.45-1.083-.624-.373-.174-2.048-.824-1.675-.65-2.904-1.052-1.23-.403-1.844-.578-.615-.175-1.636-.546-1.02-.37-2.604-1.015-1.584-.645-2.343-.98-.76-.337-1.65-.728-.9-.392-2.084-.953-1.195-.562-2.512-1.127-1.317-.565-1.77-.792-.454-.227-2.3-1.142-1.836-.915-3.1-1.732-1.273-.817-3.755-2.765-.896-.838-1.32-1.427-.423-.6-.643-.914-.22-.325-.4-.788-.2-.462-.286-.8-.096-.338-.296-1.237-.2-.898-.23-1.713-.03-.814-.002-1.2.028-.396.124-.78.097-.382.387-1.232l.446-.855v-.8l-.43-2.02-.13-.664q-.01-.123-.113-1.204-.102-1.082-.143-2.082-.04-1-.04-1.83 0-.83.014-1.158.015-.328.053-.73.038-.403.096-.817.057-.414.054-.723-.003-.3.023-.74l-.1-.368q-.137-.186-.3-.308-.163-.12-.728-.638-.565-.518-.864-.83-.3-.314-.577-.64-.276-.325-1.2-1.976-.117-.108-.437-1.045-.32-.936-.426-1.72-.105-.782.038-1.635.143-.853.312-1.157.17-.304.806-1.044 2.562-1.383 2.945-1.545.383-.16.678-.294.294-.133.828-.303.534-.17 1.018-.27.484-.102 1.8-.472 1.316-.37 2.246-.603.93-.234 2.404-.83-.056-.2-.307-.54-.25-.33-.736-.706-.485-.377-1.414-.886-.93-.5-1.935-1.013-.22-.122-1.422-.526-.02-.043-.756-.174m8.217 11.49l.067.104.52.568q1.7 1.518 4.88 4.208 3.172 2.7 5.016 4.112 1.844 1.422 2.643 1.973.797.552 1.14.798.342.247 1.37.914 1.03.667 1.596 1.04.568.37.82.487.25.115 1.322.603m-20.958-2.023q.154.154.724.557.57.402 1.894 1.2 1.323.8 4.754 2.57 3.43 1.78 4.33 2.235.9.454 2.78 1.36m-16.144 4.688q1.03.04 6.34.84 5.3.798 6.374 1m44.085 2.142q-.52-.04-.68.023l.624-.132.432-.1q.76-.1.808-.125.047-.024 1.88-.13 1.833-.106 3.048.023 1.215.13 1.814.26.598.133.858.215.26.083.828.313.568.23 2.227 1.082.9.547 1.488.766m-82.632-31.162l-.126-.255q-.35-.42-.666-1.042-.315-.623-.903-2.092-.6-1.47-.9-2.812-.313-1.343-.347-4.44-.034-3.097.053-3.536.087-.44.255-.882.168-.443.538-1.144l.183-.9m8-9.885q.113-.026.758-.24.644-.212 1.244-.468.6-.256.737-.335.137-.078 1.92-.946 1.783-.868 2.806-1.35 1.023-.483 1.85-.692.828-.2 1.36-.348.533-.138 1.593-.338 1.06-.2 1.748-.3.688-.1 3.888.03 3.2.132 4.514.583 1.316.45 3.08 1.464 1.764 1.013 2.225 1.36.462.347.973.83.512.484.935.958.422.475.837.94.414.465 1.456 2.386 1.04 1.92 1.247 2.406.205.485.353.775.148.3.687 1.6.108.136.847 2.37l.256.597.495 1.63.167.394.555 1.954M2504.2 865.948q-.37.622-.557 1.196-.188.575-.275 1.175-.087.6-.063 1.006.024.406.1.764.077.358.194.638.118.28.396.603.277.323.55.53.273.207.943.437.67.23.998.217.327-.013.584-.086.257-.072.6-.294.345-.222.62-.748.275-.527.298-.847.022-.32.012-.6-.01-.28.008-.3.018-.028-.1-.373-.108-.344-.992-1.43l-.846-.585q-.95-.252-2.6.16m134.56-18.33q-.33.657-.33 1.202.001.545.1 1.15.1.603.22.855.132.252.387.487.254.235.463.306.2.07.204.122-.004.052.75-.023.754-.075.97-.3.216-.224.278-.333.062-.1.122-.157.06-.05.102-.46.042-.4-.403-1.37-.286-.207-.644-.464-.237.08-.565-.096m-80.426-13.754q.077-.004 2.6.36 2.523.364 4.554.987 2.03.624 3.392 1.084m9.588-6.658l-1.023.863q-1.675 1.583-2.393 2.337-.72.754-1.014 1.15-.296.395-.766 1.173-.47.777-.82 1.913-.35 1.135-.488 1.883-.14.748-.242 1.45-.104.703-.153 2.234-.05 1.532.2 3.423.26 1.9.64 3.594.38 1.703.843 3.205.46 1.5.66 2.133.2.632.686 2.223.487 1.6.883 2.895.397 1.303.755 2.324.36 1.02.444 1.193.085.172.8 1.656.707 1.483.736 1.55.03.068 2.44 3.364.46.28 1.195.6.737.33 1.298.542.56.212.636.22.075.008.786.175.7.167 2.197.46 1.485.294 4.284.413 2.8.12 5.78-.093 2.98-.213 4.157-.333 1.176-.12 2.66-.086 1.485.035 2.966.123 1.48.1 2.3.126.8.037 1.743.124.934.087 5.678.486 4.743.398 7.4.637 2.667.24 3.935.435 1.268.195 1.913.25.645.054 4.023.452 3.378.4 5.45.697 2.072.297 2.9.414.826.116 1.67.26.842.144 1.476.218.634.074 1.74.24 1.107.166 1.895.3.787.124 1.8.2 1.023.085 1.383.1.36.025 2.492.135 2.13.1 3.4.024 1.27-.085 2.345-.293 1.076-.207 1.36-.24.284-.033 1.774-.562.65-.383 1.055-.587m-165.036 16.367l.227.17q1.37.265 1.485.292.114.027 1.108.17.995.144 1.922.17.928.026 3.45-.353 2.52-.38 5.674-1.25 3.153-.87 6.25-2.067 3.096-1.198 5.158-1.793 2.062-.595 4.088-1.154 2.026-.56 3.8-.925 1.785-.365 3.172-.675 1.386-.3 2.068-.5.682-.2 2.217-.518 1.535-.318 2.653-.58 1.117-.262 1.7-.442.583-.18 1.238-.362.655-.183 1.314-.333.66-.15 1.278-.303.62-.154 1.37-.366.753-.213 1.965-.487 1.2-.275 2.38-.546 1.17-.27 2.226-.565 1.056-.293 1.575-.454.52-.16 1.178-.34.658-.18 1.8-.465 1.13-.284 2.3-.632 1.16-.347 1.65-.536.492-.2.826-.28.334-.1.862-.26.528-.172 1.47-.62.942-.447 1.94-.923.998-.476 1.374-.726.376-.25.8-.58.434-.33 1.494-1.166 1.06-.836 2.156-1.935m2.645 88.45q.304-.044 1.03-.07 1.218.077 2.482.194 1.265.118 2.017.366.752.247.957.35.204.1.57.54.367.438.402.568.034.13-.1.287-.144.157-.32.256-.177.1-.353.143-.176.044-.406.054-.23.01-.47-.04-.24-.05-1.65-.97-.1-.645-.05-.943l-.16-.498m-59.207-9.243l.1.04q.84.084.985.143.144.058 2.635.128 2.5.07 3.574-.026 1.084-.097 2.417-.33 1.334-.233 2.52-.54 1.185-.307 2.1-.54.913-.23 2.014-.503 1.1-.272 1.635-.4.534-.127.75-.215.216-.088.84-.295.625-.206 2.612-1.05m-13.542 5.67l.128.408q.3 1.723.87 4.894.557 3.17 1.358 5.713l.697 1.065m91.727-3.993q.865-7.682 1.266-10.15.4-2.467.684-3.504.283-1.037.393-1.258.1-.22.3-1.016.202-.795.517-1.645m-5.144-8.21l.27.404.768.763q2 1.568 3.78 2.532 1.788.964 4.063 1.63 2.275.664 3.098.823.824.16 2.208.223 1.383.064 2.4.054 1.006-.01 1.997-.17 1-.16 1.84-.343l2.402-.422m-138.492-26.998q.01.27 1.17 3.377 1.16 3.108 2.433 5.23 1.274 2.122 3.28 4.037 2.007 1.915 4 3.182 2.004 1.267 3.735 2.137 1.73.87 5.072 1.93m114.6-10.18q.093-.062.275-.065.18-.003 3.123-2.305 2.942-2.302 5.33-5.177 2.387-2.874 3.605-5.22 1.22-2.348 2.777-5.846M2538.706 781.66q.364 1.457.438 1.67.073.214.318.8.245.585 2.12 5.853 1.874 5.268 2.282 6.273.408 1.006.65 1.614.24.607.754 1.737.514 1.13.93 1.968.417.837.68 1.36.263.523 1.05 2.047.787 1.524.973 1.813.187.3.546.708m-.4-25.803l.382.738.345.754q.17.176 1.276 2.903 1.106 2.727 3.037 6.284 1.932 3.556 3.3 5.216 1.37 1.66 1.987 2.175.618.515 1.757 1.034 1.14.518 2.26.546 1.12.03 2.44-.55 1.32-.58 3.126-2.305 1.805-1.725 2.675-2.848.87-1.123 2.697-3.827m53.043-1.083l-1.382.6q-1.843.514-2.766.734-.923.22-1.963.425-1.04.205-3.884.417-2.844.212-5.72.128-2.876-.083-4.116-.222-1.24-.138-2.208-.258-.968-.12-2.1-.385-1.133-.266-1.453-.45m-4.4-12.68l-.245-.505q-.3-.893-.877-2.907-.586-2.015-1.167-4.1-.58-2.094-.94-3.23-.358-1.135-.5-2.605-.132-1.47-.1-2.3.032-.82.204-1.294.173-.475.168-.537-.005-.06.67-1.085.676-1.024 1.145-1.558.47-.535.916-.993.446-.46 1.1-1.133.655-.675 1.166-1.168.512-.493 1.246-1.43.734-.936 1.082-1.375.348-.44.655-.985.307-.546.44-.88.135-.333.44-1.027.303-.693.63-1.594.327-.9.6-1.752.264-.85.53-1.656.266-.805.384-1.2.117-.405.708-2.36.6-1.955 1.2-3.9.612-1.943.9-2.904.3-.96.54-1.5.242-.53.335-.908.093-.378.2-.736.116-.357.42-1.46.305-1.1.484-1.72.18-.617.282-1.12.103-.5.43-1.982.328-1.48.56-3.316.053-2.8-.213-3.825m-12.566-9.837q-.7.17-.937.205-.248.036-1.8.927-1.56.9-2.276 1.485-.715.595-1.163 1.157-.45.56-.672.953-.222.4-.353.702-.132.3-.48 1.34m.257.358q.897 1.095 1.044 1.1 1.46.998 1.473 1.012.013.015.795.198.783.183 1.458.152.676-.032 1.138-.116.463-.084.766-.128.303-.044 1.54-.357 1.316-.22 1.573-.3.257-.07 2.478-.6m-5.28 3.83q1.492-.046 2.277.016.785.06 1.766.067.98.006 1.23.018.25.013 1.33-.226 1.08-.238 1.6-.455.53-.217 1.477-.6.946-.374 1.52-.623.575-.248 2.386-1.218"/><path d="M2610.868 717.597q.24-.9.306-1.507.068-.597.1-2.27.034-1.67-.096-2.76-.13-1.087-.287-1.705-.158-.617-.65-2.377-.493-1.76-.836-2.8-.344-1.052-.644-1.85-.3-.797-.987-2.646-.365-.752-.687-1.527-.322-.775-.657-1.6-.335-.833-.627-1.492-.292-.66-.287-.697.004-.037-.268-.666-.273-.628-.8-1.52m2.74.636q.1-.275.313-.568.213-.293 1.02-.644.805-.352 1.252-.5.448-.156.816-.198.367-.04.403-.07.036-.03.6-.033.563-.004 1.135.15.572.153 1.897.493m-2.994 14.102q1.062-3.02 1.866-5.72.804-2.7 1.06-3.875.255-1.173.33-2.34.075-1.167-.02-2.824-.095-1.658-.178-2.03-.084-.37-.33-1.326-.247-.956-.392-1.35-.145-.394-.476-1.096-.33-.7-.696-1.406-.366-.704-.7-1.185-.324-.48-1.062-1.62-.738-1.14-.888-1.38-.15-.238-1.54-1.583-1.4-1.346-1.743-1.624-.353-.28-1.517-.927-1.163-.65-1.838-.9-.675-.26-1.24-.413-.566-.154-1.855-.498-1.3-.344-2.07-.528-.782-.183-1.497-.318-.714-.136-1.1-.23-.395-.094-2.43-.255-2.032-.162-2.16-.18-.127-.018-2.498.02-2.37.038-3.638.115-1.266.077-1.95.155-.682.078-1.164.156-.483.078-.93.15-.45.07-2.172.328-.292.125-.98.33-.688.206-2.806.887-2.118.682-3.092 1.22-.974.538-1.406.8-.432.27-.54.3-.107.03-.647.44-.54.412-1.024.94-.483.527-.832.872-.35.345-.913 1.184-.564.84-.6.853-.025.015-2.175 3.08l-.632.48q-.427.216-1.294.884-.867.67-1.375 1.07-.5.4-1.587 1.217-1.078.817-1.63 1.186-.552.37-.864.612-.3.244-.713.5-.402.256-1.02.437-.62.182-1.444.366-.824.185-.86.185-.04.001-1.43.282-1.4.28-2.446.68-1.055.4-2.364 1.08-1.3.68-2.18 1.203-.87.523-1.424.757-.552.234-1.67.332l-.462-.057q-.453-.173-.775-.28-.323-.107-.602-.167-.28-.06-.8-.04-.52.018-.612.06-.092.042-.55-.285m36.757.238q.606.2 1.795.363 1.188.15 2.717.3 1.53.16 2.688.278 1.16.117 2.545.252l1.466.102q.103.043 4.107.37m-14.168-2.605l.24-.144.755-.355.712-.267q3.365-.9 4.023-1.053.658-.154 2.518-.318 1.86-.163 2.83-.145.97.018 1.436.066.466.048 1 .092.546.045 2.288.388m-11.308-1.96q.107.023.4-.176.255-.15 2.623-.305 2.368-.156 3.94.193 1.573.35 2.76.635m-3.874 3.584q.06.3.246-.443.07-.01.2.772l.462.304m-6.927-12.835q.325.052.607.1.282.048 1.42.166 1.137.12 2.66.288 1.524.17 2.364.284.84.116 1.842.247 1 .132 2.433.303 1.432.172 2.224.305.792.134 1.388.23.595.098 2.212.5 1.616.403 2.73.753m-15.826-4.677q.105.022.62-.395l1.286-.042q4.87.593 6.93 1.014 2.06.42 3.435 1.086 1.374.666 2.853 1.462m-10.282 43.875l.216.048q.62-.07.736-.053.116.017 1.07-.123.954-.14 2.284-.33 1.33-.192 2.48-.166 1.15.027 1.813.108.664.08 1.643.334.98.253 1.32.358.34.106.622.232.28.126.65.395.37.27 1.9 1.22m-12.454-.062q3.165.56 3.853.737.687.176 1.93.5 1.244.333 2.636.9 1.4.58 3.262 1.488m-13.074 1.154q1.024.427 1.15.468.127.04 1.522.432 1.396.4 2.714.858 1.318.466 3.5 1.54m-60.285-2.308q1.475 3.374 2.677 5.417 1.202 2.043 2.546 3.642 1.344 1.6 2.16 2.408.815.808 1.84 1.512 1.024.704 1.128.788.103.084 1.14.674 1.036.6 2.913 1.28 1.877.692 3.772 1.347 1.894.654 2.717.876.822.222 1.675.47.854.248 1.322.437.47.2 1.47.57m-27.394-58.906q-1.5-.628-2.13-.817-.62-.2-.666-.217-.045-.03-.826-.185-.78-.157-2.566-.106-1.786.052-2.243.176-.457.123-1.3.537-.854.414-1.042.53-.2.115-1.287 1.195-1.098 1.08-2.17 2.953-1.072 1.873-1.412 2.988-.34 1.115-.475 2.235-.134 1.12-.146 1.542-.01.42.048 2.148.06 1.728.917 4.017.86 2.288 1.77 3.583.912 1.294 1.416 1.866.503.572 1.22 1.13.72.557.735.578.017.02 1.012.468.995.448 2.457.786 1.46.34 2.435.434.974.094 1.733.08.76-.013 1.726-.08.967-.068 1.905-.276.94-.207 1.955-.57 1.017-.363 2.165-.886M2533 702.455q-.327-.02-.64-.002-.313.02-.962.225-.648.205-.87.328-.22.124-.964.994-.743.87-1.2 2.295-.448 1.424-.403 2.638.045 1.213.197 1.76.153.548.328.93.176.382.52.78.344.397 1.693 1.205 1.35.808 1.74.944.392.135 1.42.3 1.028.165 1.72.197.7.033.895-.01.204-.044 1.603-.38m-10.74 45.67q-.1-1.064-.314-2.083m.06-.297l-.632-.784q-1.925-1.406-2.76-1.857-.834-.45-1.666-.856-.833-.405-4.382-2.414-.16-.057-1.798-3.812l.326-1.32-.47-1.282-.553-.277q-.07-.082-1.438-.547-1.367-.466-2.373-.796-1.005-.33-1.388-.555-.382-.225-.75-.593-.37-.368-.557-.682-.188-.314-1.07-2.962-.237-.297-.468-1.563-.23-1.267-.056-2.07.174-.8.392-1.14.218-.337.692-.802.474-.464 1.3-1.123.826-.66 1.2-1.073.366-.414.537-.798.17-.383.25-.865.077-.48.115-.918.037-.437.067-1.145.03-.708-.38-1.76-.802-.864-1.05-1.108-.25-.243-.723-1.25-.474-1-.6-1.34-.124-.332-.34-.744-.215-.412-.6-1.457-.373-1.045-.562-1.67-.2-.626-.888-2.554-.054-.048-.622-.896-.568-.848-1.12-1.484-.552-.635-.772-.995-.22-.36-.452-.828-.232-.47-.5-1.228-.268-.758-.43-1.497-.162-.74-.2-1.108-.028-.37-.1-.82-.06-.452.282-2.5.343-2.048.688-3.3.346-1.263.33-3-.015-1.737-.095-2.647-.08-.9-.047-1.387.034-.476.035-1.096 0-.62.148-2.348.148-1.727.286-2.524.14-.796.498-2.162.36-1.366 2.104-5.34l.77-.906.1-.573q.01-.276 1.562-6.3 3.026-1.97 5.013-3.138 1.985-1.166 2.88-1.767.895-.6 1.307-1.112.4-.5.502-.643.1-.133.605-1.23.515-1.097.895-2.1.38-1.013 1.26-2.3.878-1.287 1.512-1.87.633-.584 1.018-.8.384-.216 1.312-.495.927-.28 1.948-.57 1.02-.3 1.284-.393.262-.104 1.713-.553 1.452-.45 2.663-.885 1.212-.436 1.287-.486.074-.05 2.5-1.234 2.416-1.184 3-1.367.584-.184 1.46-.375.875-.2 3.015-.562 2.14-.372 3.656-.817 1.517-.444 2.268-.818.75-.375 1.16-.58.408-.204 1.747-1.144 1.34-.94 2.208-1.513.87-.572 1.744-1.014.874-.442 1.86-.786.985-.344 3.032-.7 2.046-.356 2.34-.402.295-.046.944-.162.65-.117 2.25-.45 1.804.37 2.172.367.37-.002.82-.042.45-.04 1.77-.325 1.32-.284 2.316-.42.995-.137 1.734-.25.738-.113 1.386-.238.648-.125 1.253-.2.605-.087 1.394.016.8.102.865.1.075-.002.52.1.445.1.958.18.513.08.977.188.463.1 1.422.182.96.074 2.25-.1 1.3-.174 2.285-.296.994-.122 1.556-.137.56-.015.72-.024.158-.01 3.136-.216l2.76 1.117q.63-.222.67-.266 1.108-.7 2.53-1.823 1.42-1.124 5.246-2.468.75.156 1.53.204.78.048 1.205.18.427.13 1.176.347.75.217 1.025.302.277.086.922.47.644.385.788.47.144.083.733.394.588.3.84.6.252.3.72.838.468.546.988 1.035.52.5.73.64.2.15.538.377.328.226 1.083.956.174.1.345.77.17.658.206 1.096.034.438.03.697-.005.26-.002.373.002.115.1.98.098.864.354 1.257.255.392.54.727.285.336.86 1.3.575.956.923 2.053.347 1.097.457 1.44.1.344.503 1.588.392 1.245.55 1.976.158.73.262 1.16.104.43.34 1.386.238.956.36 1.84.12.885.158 1.3.036.406.136.632.1.226.22 1.115.122.9.08 1.4-.04.5-.165 1.028-.123.517-.163.618-.04.1-.133 1.092.313.505.588 1.048.276.543.44 1.328.164.786.25 1.138.087.352.293 1.332.206.98.456 3.048.008.12.172.9.164.792.36 1.8.196.998.465 1.95.27.952.38 1.188.1.237.28.528.17.3.322.75.152.46.184.965.032.506 0 .844-.032.338-.344 1.398-.3 1.06-.704 1.724-.393.664-.697.958-.303.294-.525.45-.223.157-.743.776-.106.033-2.263 1.87l-.826.082q-.24.1-.68.5-.442.4-.732.5-.3.08-.67.4l-.607.07q-.263-.15-.805-.26-.54-.1-1.214-.142m-82.335 27.037l-.298.402q-.316 1.393-.48 1.975-.163.583-.44 1.34-.278.757-.487 1.466-.2.7-.414 1.443-.203.734-.4 1.195-.208.462-.32.6-.1.127-.335.334-.224.206-1.14.88-.295.25-1.13 1.92-1.027.878-2.16 2.16m-7.386-.35q-.212.064-.466-.026-.253-.1-.862-.045-.608.045-1.2.18-.583.135-1.383.43-.8.294-1.212.704-.412.4-.736.605m9.794 3.522l-.515.392q-.166.202-1.894 2.204-1.728 2.002-2.482 2.837m-12.192-45.897l.085-.114q.637-.747 2.204-1.638 1.567-.9 3.047-1.32 1.48-.43 2.3-.385.8.044 1.904.046m-5.8 16.47q.098-.002.727.07.628.072 1.842.07 1.215-.002 2.3-.58 1.084-.578 2.386-1.347m-7.315-26.7q.2.01 1.967.06 1.768.048 3.246.378 1.478.33 5.02 2.625m2.033-16.767q-.052.055-.614.64-.562.583-.967 1.743-.405 1.16-.6 3-.185 1.84.03 3.05.214 1.2.646 1.564.432.354 2.38.53m5.847-14.173l-.112.693q-.126 1.353-.295 3.075-.17 1.722-1.53 4.522-1.36 2.8-2.193 4.147m10.92-12.09l.058.44q.252.694.385.97.133.277.324.5.2.212.918.937.728.725 2.6 1.28 1.873.555 3.03.803m-5.28-10.995l-.075-.286q.048-.24.23-.456.182-.215.7-.355.517-.14 2.6.02 2.072.16 5.578 3.27m-11.938 20.526q.1.1 1.043 1.16.954 1.06 2.216 1.67 1.262.6 2.42.822 1.16.212 2.34.05 1.18-.163 2.842-.464m.057-9.947q.272.194 1.06.397.787.203 2.545.964 1.758.762 2.643 1.264.884.502 3.596 2.46m1.27-11.098q-.27-.353-.4-.548-.118-.196-.063-.557 1.533-.165 4.163 4.98l-.015.577m-4.882-22.72l-.2-.088q-.232.07-.707 1.146-.476 1.076-.72 2.106-.244 1.03-.28 1.9-.036.86-.06 1.6-.024.73.452 2.12.477 1.4 1.177 2.917m12.64-10.303l-.197.165-.237.233q-.088.095-.305 1.825-.218 1.73.044 2.917.26 1.187.57 1.754.3.567.95 1.036.64.47 1.832.912 1.192.443 2.742 1m-7.493 4.8q.145.064 1.976 1 1.83.945 2.794 1.2.963.246 2.036.628m4.128-18.675q1.9 1.92 2.147 2.22.258.302.62.868.362.566.505.674.142.108.737 2.863.596 2.755.63 3.207m8.7-11.098q.114.04.246.07.13.032 2.598.1 2.468.07 3.964.245 1.494.175 3.738.916 2.243.74 3.97 1.95 1.728 1.2 2.895 2.1m-10.4-9.026q.75.152 4.43.954 3.68.8 6.102 1.466 2.423.665 4.066 1.164m-10.664-3.697l.2-.103q.574-.398.778-.416.204-.017 1.475-.28 1.272-.263 1.963-.336.7-.073 1.2-.122.5-.048 3.362-.042 2.863.006 4.506.135m-8.583 17.695q.244-.093 2.133.1 1.9.193 3.98-.597 2.092-.8 3.185-1.557 1.093-.766 2.953-2.632m-3.544 15.5q.113-.126 1.926-1.53 1.814-1.403 4.926-4.77m-3.622 11.446q.44.297.462.36.02.063.4.357.37.295.596.633.225.337 1.1 1.978.864 1.64 1.53 2.972m-31.84-24.976q.368.148 1.086.677.718.528 1.694 1.296.976.767 1.925 1.466.948.698 2.616 1.2 1.667.5 2.85.897m-28.45 228.534l.206-.062q.693-.668 7.343-2.243.7.243.77.244.07.002 2.134.7l.915.217m-164.203 74.804l-.35-.337q-.32-.394.075-10.977.395-10.582.917-16.78.523-6.196 1.196-10.25.673-4.054 1.246-7.002.573-2.95 1.694-9.912 1.12-6.963 2.397-14.076 1.275-7.114 2.226-12.606.95-5.5 1.506-8.452.555-2.96 1.222-5.678.666-2.718 1.128-4.314.462-1.597.917-3.38.453-1.785.825-3.4.373-1.606 1-3.53.64-1.923 1.707-4.622 1.068-2.7 1.92-5.4.85-2.7.876-2.75.025-.06.784-2.3.76-2.23 1.247-3.324.5-1.095 1.102-2.1.614-1.005 1.156-1.667.542-.66 1.452-1.672.9-1 2.252-2.292 1.343-1.28 1.418-1.373.075-.093 1.327-1.1 1.25-1.018 2.42-1.825 1.167-.807 2.02-1.424.852-.618 2.306-1.622 1.453-1.005 1.592-1.13.14-.127 1.907-1.054 1.77-.927 3.5-1.587 1.73-.66 3.63-1.167 1.898-.507 3.145-.895 1.247-.387 3.367-.863 2.12-.475 4.176-.847 2.057-.37 3.07-.66 1.014-.288 2.423-.804 1.4-.516 2.236-.97.827-.455 1.604-.94.777-.483 2.135-1.184 1.358-.7 1.843-.928.485-.228 2.494-1.353 2.008-1.125 3.176-1.696 1.168-.57 2.457-1.082 1.3-.5 3.616-1.706 2.328-1.195 4.047-2.156 1.72-.96 2.6-1.5.9-.54 1.192-.725.303-.186 1.076-.57.773-.386 2.964-2 2.2-1.615 3.117-2.544.927-.93 1.456-1.734.53-.804.762-1.28.232-.478.723-1.667.5-1.2 1.106-4.25.614-3.06.77-4.996.157-1.937.288-4.23.13-2.293.156-2.752.026-.46.318-2.5.292-2.05.518-3.354.227-1.303.4-2.213.184-.9.318-1.715.134-.803.198-1.15.064-.348.115-1.78.05-1.43-1.138-1.988M2421.832 972.1l.145-.027q1.314.003 5.66-.722 4.347-.726 7.2-1.14 2.864-.414 3.522-.506.658-.1 3.85-.214 3.192-.123 6.315-.02 3.124.1 4.36.172 1.235.07 2.434.06 1.2-.01 1.67-.02.473-.01 1.564-.114 1.1-.103 1.685-.222.594-.12 3.75-1.18 1.314-1.383 1.38-1.44.066-.056 1.456-2.707 1.4-2.65 2.235-5.398.845-2.746 1.223-4.114.377-1.368 1.18-4 .802-2.64 1.325-5.084.522-2.444.82-3.85.297-1.407.645-3.025.347-1.62.9-4.455.56-2.837.824-4.117.262-1.28.448-2.3.187-1.02 3.652-10.5.068-.203 1.066-1.88m119.874-125.367l-.213-.2q-.267-.758-.4-1.173-.12-.415-.385-1.143-.263-.73-.58-1.517-.317-.788-.366-.862-.05-.073-.46-1.26-.412-1.187-.76-2-.32-.652-.977-2.076"/></g></g></svg>