<svg width="397" height="705" viewBox="0 0 397 705" fill="none" xmlns="http://www.w3.org/2000/svg">
<path d="M248.858 113.222L253.254 115.887C253.787 116.065 254.941 116.82 256.718 118.152C258.494 119.396 260.004 120.551 261.247 121.617C262.58 122.684 263.69 123.705 264.578 124.683L267.775 127.881C269.018 129.036 270.04 130.102 270.839 131.079L273.237 134.144L276.168 138.409L279.632 143.873C280.786 145.916 282.563 150.092 284.961 156.4C287.358 162.619 289.091 168.26 290.156 173.325C291.222 178.389 291.844 182.253 292.021 184.919L292.554 191.315L292.954 195.313L293.087 200.111V205.441L292.954 210.505C292.865 212.282 292.687 213.97 292.421 215.57C292.243 217.169 291.711 219.39 290.822 222.233C289.934 224.987 289.224 226.941 288.691 228.096C288.247 229.251 287.669 230.406 286.959 231.561L284.827 235.293L283.362 237.425L282.03 239.024L280.031 241.69C279.41 242.578 278.433 243.6 277.101 244.755C275.857 245.91 274.702 246.843 273.637 247.553L270.439 249.686C269.374 250.308 267.597 251.107 265.111 252.084L259.915 254.217L257.783 255.016L255.652 255.549L250.59 256.349L243.795 257.015H234.07C229.807 257.015 226.166 256.882 223.146 256.615L217.151 256.082L214.353 255.683L211.689 255.016L208.225 254.35L205.294 253.95C204.85 253.95 203.784 253.728 202.097 253.284L198.633 252.351L197.567 252.084L194.903 251.551L189.707 250.485L184.378 249.152L177.717 246.754C174.698 245.865 172.788 245.243 171.989 244.888L170.39 244.355C170.124 244.355 169.147 244 167.459 243.289L163.596 241.556L161.598 240.624L159.2 239.291L156.402 237.825C155.602 237.381 155.07 236.981 154.803 236.626L152.805 235.16L150.14 233.161L148.808 232.094L147.876 231.162L145.877 229.296L143.479 227.43L140.549 224.765L138.151 222.099" stroke="black" stroke-width="7.73268" stroke-linecap="round" stroke-linejoin="round"/>
<path d="M271.372 37.1272L273.637 38.4599C274.436 38.9929 275.102 39.5701 275.635 40.192L276.568 41.1252C276.746 41.1252 277.9 42.902 280.032 46.4558C282.252 49.8318 283.939 52.9856 285.094 55.9174C286.249 58.9381 287.226 62.181 288.025 65.6459C288.735 69.1108 289.002 72.6645 288.824 76.3071C288.736 80.0385 288.513 82.5705 288.158 83.9032L287.226 87.5013C286.87 88.4786 286.071 90.1224 284.828 92.4324C283.584 94.7423 282.607 96.3413 281.897 97.2297C281.186 98.1182 280.12 99.2287 278.699 100.561L275.635 103.227L274.17 104.559L273.371 105.226C273.282 105.403 272.305 105.981 270.44 106.958L266.177 109.091L263.512 110.423L258.183 111.756C255.43 112.378 252.854 112.822 250.456 113.089L244.328 113.621L240.865 113.888L232.205 114.288L223.679 114.688L221.014 114.954C219.771 114.954 218.439 115.087 217.018 115.354L214.353 115.62L211.156 116.02L205.561 116.687L200.365 117.619L198.1 118.152L195.836 118.952C194.415 119.307 192.461 120.063 189.974 121.217L184.912 123.616L183.579 124.549L180.915 126.148L177.051 128.814C176.163 129.524 175.364 130.058 174.654 130.413L171.989 132.279L168.525 135.477L165.861 138.142L164.529 139.475L163.463 140.408L162.131 141.741L160.798 143.473C160.532 144.006 160.088 144.628 159.466 145.339L157.601 147.604L156.535 148.937L154.537 151.869L152.006 156.266L150.274 159.465L148.142 163.196L146.41 165.861" stroke="black" stroke-width="7.73268" stroke-linecap="round" stroke-linejoin="round"/>
<path d="M265.377 52.1859L265.643 51.9195C265.821 51.6529 266.088 50.4536 266.443 48.3214C266.798 46.1003 266.976 44.2789 266.976 42.8574C266.976 41.347 266.798 39.748 266.443 38.06L265.51 34.3285L264.977 32.9958C264.977 32.8182 264 31.4855 262.047 28.9979C260.093 26.4214 258.316 24.5112 256.718 23.2674C255.208 22.0236 253.876 21.0909 252.721 20.469C251.655 19.8471 250.9 19.4917 250.456 19.4028C250.012 19.4028 249.746 19.6249 249.657 20.0692L249.79 22.3346C249.968 22.69 250.101 23.4896 250.19 24.7334L250.59 26.599L250.856 31.1303C251.034 34.2398 251.034 36.9051 250.856 39.1262C250.767 41.3473 250.501 43.3017 250.057 44.9897C249.613 46.6778 249.168 47.9216 248.724 48.7212C248.28 49.5208 247.17 51.031 245.394 53.2521L241.93 57.3835C241.397 57.9165 240.776 58.3608 240.065 58.7161L238.333 59.9154L236.468 61.115L233.67 62.5807L228.608 64.4466L223.146 66.0457L220.482 66.7121L218.217 67.245L215.153 67.7783L211.156 68.4446L204.362 69.244C201.608 69.5105 199.255 69.8214 197.301 70.1768L192.239 70.9765L186.91 72.3091L181.448 74.1747L178.916 74.9745C178.739 75.1521 177.851 75.5518 176.252 76.1737L171.056 78.839L168.125 80.7049L166.793 81.6377C165.905 82.1708 164.795 83.0147 163.463 84.1696C162.13 85.3246 160.221 87.1906 157.734 89.767L154.67 92.9653L151.206 97.763L146.81 103.893C145.833 105.403 145.123 106.647 144.679 107.624L141.881 115.087L138.95 125.882C138.95 126.504 138.639 127.836 138.018 129.88L137.085 133.878L136.685 135.61L135.886 137.476L134.953 140.541L133.621 144.272L132.023 148.803L130.291 153.201L129.358 155.467C129.269 155.911 129.092 156.311 128.825 156.666" stroke="black" stroke-width="7.73268" stroke-linecap="round" stroke-linejoin="round"/>
<path d="M204.095 66.9787H203.429L199.433 65.9125L194.37 64.5799C193.482 64.3133 191.75 64.0912 189.175 63.9135L182.513 63.3806H174.92L169.591 63.7805L164.262 64.5799L160.665 65.5127L156.136 66.8453L151.606 68.3114L147.743 70.0439L145.478 71.1101L143.746 72.0429L140.682 74.0419L137.085 76.8402L133.621 80.0388L130.557 83.6369L128.292 86.8351L127.626 87.7683C127.626 87.9459 127.182 88.7011 126.294 90.0337L123.63 94.1647C122.742 95.7639 122.12 97.0524 121.764 98.0296L120.166 101.361L118.434 105.226L117.102 108.557L115.769 112.156L113.638 120.152C112.572 124.149 111.95 127.037 111.773 128.814L111.107 133.079L110.574 138.809L110.308 142.54L110.041 146.938L109.774 151.736C109.597 153.335 109.508 156.355 109.508 160.797L110.574 161.064" stroke="black" stroke-width="7.73268" stroke-linecap="round" stroke-linejoin="round"/>
<path d="M129.891 158.532L130.157 159.865L131.09 165.729L131.357 167.328L132.689 170.793L133.621 172.658L134.953 176.123L135.486 180.121V184.652C135.309 185.896 135.087 186.918 134.82 187.718C134.554 188.606 134.021 189.583 133.222 190.649C132.422 191.804 131.801 192.559 131.357 192.915L130.024 194.247L127.626 195.58C126.472 196.291 124.429 197.046 121.498 197.846L116.169 198.245L113.372 197.846L111.64 197.446C109.863 196.38 108.531 195.491 107.643 194.78C106.933 194.158 106.355 193.537 105.911 192.915L104.979 191.182L104.179 189.05L103.779 186.918L103.513 185.585L103.779 182.786C103.868 181.01 104.224 179.1 104.845 177.056L105.378 175.99L106.044 174.657L107.243 173.058L108.309 171.459L108.975 170.126L109.508 167.194L109.108 163.197L108.842 159.732" stroke="black" stroke-width="7.73268" stroke-linecap="round" stroke-linejoin="round"/>
<path d="M140.549 70.3102L140.282 65.9124C140.105 65.4681 139.794 63.5579 139.35 60.1819L135.886 61.9144L131.357 64.5797L129.625 65.7793C128.204 66.5789 126.916 66.801 125.761 66.4456L122.43 65.6459L121.365 65.3794L118.834 64.8462C117.235 64.4908 115.814 64.3578 114.571 64.4466H112.706L113.372 65.7793L114.171 67.245L114.437 67.7783L115.237 69.1109L116.036 70.71L116.569 71.7762L116.969 73.6418C117.235 74.3526 117.413 75.241 117.501 76.3071V78.0396C116.613 79.1946 115.903 79.9943 115.37 80.4385L114.038 81.7711L112.706 83.1038L111.107 84.4365L109.508 85.5023L108.176 86.835L105.778 88.7009L103.113 90.8329C102.403 91.5437 101.115 93.0984 99.2501 95.4972L96.4523 99.3621L95.6532 100.961C95.1203 101.85 94.3654 103.538 93.3885 106.025C92.5003 108.513 91.7009 111.178 90.9904 114.021C90.3687 116.864 89.9246 119.263 89.6582 121.218C89.3918 123.083 89.2139 125.127 89.1251 127.348V136.943L89.6582 141.207L90.191 144.406C90.191 144.761 90.4575 145.65 90.9904 147.071L92.7224 152.135C93.0776 152.757 93.7437 154.712 94.7207 157.999L95.2534 158.798C95.3423 159.065 95.5198 159.287 95.7862 159.465L96.1859 159.864C96.2747 160.042 96.7188 160.353 97.5181 160.797M276.168 104.293L277.367 105.226L281.63 108.157L286.426 111.756L289.091 114.021C289.979 114.732 291.222 116.331 292.821 118.819L295.885 123.35L296.951 125.482L298.55 128.947L299.615 131.746L299.882 133.345L300.281 134.677C300.459 135.299 300.548 136.454 300.548 138.142C300.548 139.919 300.459 140.985 300.281 141.341L297.617 142.274L296.285 142.673L295.086 143.073L293.753 143.606C293.487 144.228 293.398 144.85 293.487 145.472L293.753 147.604L294.02 148.937V152.268L294.286 156.266L294.42 162.93L294.286 167.727V169.06L294.02 171.325L293.487 175.323C293.043 176.745 292.732 178.122 292.555 179.454M133.621 159.198L133.888 159.598L138.417 164.529L140.149 166.528L141.481 168.26C141.659 168.349 142.325 169.415 143.48 171.459L147.076 177.589C148.142 179.81 148.808 181.365 149.075 182.253C149.43 183.142 149.785 184.608 150.141 186.651L150.674 190.915V194.114L150.008 198.112L149.341 200.51L148.009 203.576L146.544 207.041L145.078 209.573L143.08 212.371L141.348 214.503L139.616 216.102L137.485 217.702L136.019 218.768L131.223 220.5L126.694 221.433C125.983 221.611 125.095 221.7 124.029 221.7C123.141 221.789 119.589 221.567 113.372 221.034C112.306 220.767 111.329 220.412 110.441 219.967L108.309 218.768L106.711 217.835L104.845 216.502C104.046 216.058 103.069 215.303 101.915 214.237C100.671 213.26 99.7384 212.371 99.1167 211.572L96.9854 208.906C96.2749 208.018 95.6975 207.129 95.2534 206.241L93.9212 203.709L92.3226 199.844L90.9904 196.379L90.3243 194.38L90.0579 192.381L89.6582 188.916V184.386C89.747 183.053 89.9691 181.942 90.3243 181.054L91.1234 178.655C91.3899 177.944 91.7897 177.189 92.3226 176.39L94.0546 173.458L96.0529 170.393L96.719 169.593L97.3851 168.66C97.5627 168.66 98.0068 168.083 98.7173 166.928C98.9838 166.928 99.6499 166.35 100.716 165.195C100.982 164.84 102.136 163.951 104.179 162.53L108.176 159.332L133.621 159.198Z" stroke="black" stroke-width="7.73268" stroke-linecap="round" stroke-linejoin="round"/>
<path d="M246.46 184.919L246.86 185.185L248.192 186.918L249.79 189.983C250.679 191.582 251.256 192.826 251.522 193.714L252.055 195.314L251.256 199.178L249.924 200.511C249.569 200.777 248.369 201.221 246.327 201.843L243.929 202.243C243.218 202.066 241.797 201.977 239.665 201.977M264.178 168.527C264.001 168.349 263.868 168.349 263.779 168.527V169.06L265.91 170.926M264.178 168.527C264.267 168.616 264.267 168.616 264.178 168.527ZM264.178 168.527V168.127V168.261L264.978 169.193M264.178 168.527L264.311 174.258V176.656L264.578 178.255L266.976 177.189M264.178 168.527C264.445 168.705 264.534 168.705 264.445 168.527V168.394L265.111 169.727C265.644 170.615 265.91 171.192 265.91 171.459L266.043 172.392L266.31 173.191V173.058L266.443 177.056M264.978 169.193C265.422 169.638 265.733 170.082 265.91 170.526C266.088 170.881 266.088 171.015 265.91 170.926M264.978 169.193C264.711 173.458 264.889 175.901 265.511 176.523C266.221 177.145 266.532 177.323 266.443 177.056M264.978 169.193C265.155 169.193 265.288 169.327 265.377 169.593L265.91 170.926M265.91 170.926L266.31 171.459C266.665 171.903 266.932 172.791 267.109 174.124C267.287 175.368 267.287 176.256 267.109 176.789L266.976 177.189M266.976 177.189C266.976 177.1 266.976 177.1 266.976 177.189ZM266.443 177.056C266.443 176.79 266.443 176.79 266.443 177.056ZM260.848 273.94L261.914 272.874C262.358 272.43 262.757 271.541 263.113 270.209C263.379 268.965 263.424 268.343 263.246 268.343C263.068 268.521 263.024 268.521 263.113 268.343V267.543L262.979 265.811C262.89 265.189 262.491 264.256 261.78 263.012L260.448 260.88C260.182 260.791 259.738 260.214 259.116 259.148C259.471 259.059 259.027 258.837 257.784 258.481L227.009 284.601L227.276 285.534V285.934H227.543V286.6C227.898 289.799 228.031 292.286 227.942 294.063V301.526C227.942 304.636 228.031 306.013 228.209 305.657C228.386 305.213 228.386 305.08 228.209 305.258C228.031 305.524 228.209 305.746 228.741 305.924C229.363 306.19 229.807 306.457 230.074 306.723L230.74 307.256H231.273L231.006 307.123M259.915 275.273L259.516 275.939L259.249 276.605L258.716 277.538L258.183 278.737L257.65 279.537L257.118 280.47L256.585 282.203L256.185 283.402L256.052 283.935L255.652 285.534L254.853 288.066L253.92 289.932L253.387 290.865L252.988 291.531L252.588 292.064H252.721L251.789 292.597L249.79 293.93C249.258 294.463 248.858 294.774 248.592 294.863H248.059L247.259 295.263L246.726 295.396H246.86L246.194 295.529L244.861 295.929C244.595 295.929 244.462 296.018 244.462 296.195L243.929 296.862L243.662 297.795C243.84 297.261 243.84 297.706 243.662 299.127L243.529 302.592V303.925L243.263 304.058M243.263 304.058C243.263 304.147 243.263 304.147 243.263 304.058ZM243.263 304.058L242.463 304.991L241.664 305.924H241.531C241.353 306.102 241.131 306.19 240.865 306.19L239.665 306.324C239.133 306.324 238.556 306.457 237.934 306.723L237.001 306.857H236.202L235.536 307.123H234.07H232.472M232.472 307.123C232.205 307.123 232.205 307.123 232.472 307.123ZM232.472 307.123H231.139C231.139 307.212 231.095 307.212 231.006 307.123M231.006 307.123C230.917 307.123 230.917 307.123 231.006 307.123ZM231.406 261.68C231.406 261.413 231.317 261.413 231.139 261.68L231.006 263.945L212.089 260.614V260.347L212.355 266.077V266.477L212.622 267.277L213.687 269.409L215.02 271.141L215.286 271.541L215.553 271.941L216.485 273.54C216.929 274.162 217.595 274.829 218.483 275.539C219.372 276.25 220.171 276.783 220.881 277.138L221.681 277.672H221.548M231.406 261.68C231.406 261.857 231.406 261.857 231.406 261.68ZM231.406 261.68C231.406 261.502 231.406 261.502 231.406 261.68ZM231.406 261.68L231.672 262.479L232.072 263.412V263.679L232.205 264.212C232.472 264.656 232.605 265.589 232.605 267.01L232.472 270.475C232.383 271.364 232.205 271.986 231.939 272.341L231.006 273.674C230.562 274.207 230.562 274.384 231.006 274.207C231.361 274.029 231.051 274.34 230.074 275.139C229.185 275.939 228.209 276.561 227.143 277.005L225.278 277.672H221.548M221.548 277.672C221.636 277.672 221.636 277.672 221.548 277.672ZM114.97 227.297L115.903 226.231M115.903 226.231C116.08 226.142 116.08 226.142 115.903 226.231ZM115.903 226.231H116.303C116.303 227.386 115.281 229.518 113.238 232.628L107.243 242.356C105.29 245.732 103.957 248.176 103.247 249.686C102.447 251.196 102.003 252.307 101.915 253.018L101.382 255.017C101.204 255.55 101.115 256.305 101.115 257.282V265.678C100.938 267.188 101.204 271.408 101.915 278.338H102.714V279.404L103.913 279.004C104.535 278.116 104.801 277.805 104.712 278.071L105.512 277.272L106.311 276.605L107.377 275.939C107.466 275.761 107.821 275.584 108.442 275.406C108.975 275.139 110.219 274.029 112.173 272.074L116.569 267.41L118.967 265.278L120.299 264.478L121.232 263.812L121.631 263.679L122.431 263.279H122.298L123.23 263.145L126.294 261.813C127.715 261.191 128.692 260.835 129.225 260.747L130.424 260.48H131.223L135.22 259.414C137.884 258.792 140.282 258.348 142.414 258.081C144.634 257.904 146.677 257.904 148.542 258.081C150.407 258.259 151.873 258.481 152.939 258.748L158.8 260.48C161.553 261.369 164.396 263.368 167.326 266.477L178.251 277.672L189.974 289.399L197.568 297.395C199.255 299.172 200.543 300.371 201.431 300.993C202.319 301.793 203.03 302.237 203.563 302.326L205.028 302.992L205.694 303.125L206.227 303.525C206.671 303.88 212.577 304.102 223.946 304.191V303.791M102.048 281.403H102.581V281.27M102.581 281.27C102.758 281.181 102.758 281.181 102.581 281.27ZM102.581 281.27L102.447 281.536V281.403L102.048 281.803L101.115 282.869L100.716 283.402L100.183 284.202L98.8504 286.2L97.7846 287.8L97.3852 288.866L96.8521 290.198C96.5857 290.732 96.4524 290.909 96.4524 290.731M96.4524 290.731C96.4524 290.643 96.4524 290.643 96.4524 290.731ZM96.4524 290.731L95.3869 294.729C94.6764 297.039 94.099 298.639 93.6549 299.527L92.3227 301.926L91.7896 302.725L90.9905 303.525L90.058 304.325H89.9247L89.1252 304.858L88.1927 305.258L86.8605 305.79L84.4625 306.59L82.7308 307.256H82.4641L81.9314 307.523L80.5992 307.923L79.4003 308.189L78.3345 308.456L76.7359 308.989L75.137 309.655L74.2045 310.055L73.9381 310.322L72.8723 311.121C72.2506 311.654 71.5402 312.098 70.7409 312.454C69.8528 312.72 69.0088 313.164 68.2095 313.786C67.3214 314.497 66.389 315.474 65.412 316.718L62.7476 319.783L60.8823 321.516C60.3494 321.871 59.7721 322.449 59.1504 323.248L57.1521 326.047L55.4204 328.579L54.2212 330.178L53.2888 331.777L52.6227 333.243L51.8232 334.709L51.0241 336.575L50.6243 337.374V337.241L49.5585 339.64C48.848 341.239 48.0931 343.282 47.2938 345.77C46.5833 348.169 45.9172 350.079 45.2955 351.501L43.4305 355.099C42.8976 355.987 42.2757 357.276 41.5652 358.964L39.8333 363.628L39.0341 366.293L38.7678 366.826L38.5011 367.226L37.9683 368.559L37.4355 370.691L36.9025 372.557L36.7694 373.089L36.3697 374.022C36.0144 374.733 35.6591 376.066 35.3039 378.02C34.9486 380.064 34.682 382.418 34.5044 385.083C34.238 387.749 34.1492 389.703 34.238 390.947V394.012L34.7711 394.945L35.0375 395.478V395.345L35.4372 396.011L36.3697 399.343C37.0802 399.52 37.3465 399.52 37.1688 399.343C36.9024 399.165 36.8582 399.165 37.0358 399.343C37.2134 399.343 37.5242 399.698 37.9683 400.409L38.6344 401.475V401.342L39.9666 402.141H40.3663L41.6986 402.674L43.1638 403.074L45.1621 403.607C44.7181 403.519 44.8071 403.519 45.4288 403.607C46.0505 403.607 46.8496 403.785 47.8266 404.14L50.0916 404.94L51.6902 405.606L53.1554 406.139L55.0207 406.939L55.9532 407.339M55.9532 407.339C55.7756 407.339 55.7756 407.339 55.9532 407.339ZM55.9532 407.339L58.751 408.405C60.3496 408.849 61.9926 409.427 63.6801 410.137L67.277 411.47C68.0763 411.737 68.6979 411.87 69.142 411.87L69.9415 412.003H70.4742L72.4725 412.669L74.3378 413.469L74.8706 413.602H74.7376H77.535M77.535 413.602C77.8015 413.602 77.8015 413.602 77.535 413.602ZM77.535 413.602H79.267C78.9117 413.602 79.0892 413.691 79.7997 413.869C80.4214 413.869 81.0875 413.647 81.798 413.203L82.7308 412.403L83.2636 411.736L83.9297 410.804L85.5283 408.671C85.3507 408.938 85.3507 408.982 85.5283 408.805L86.1944 408.272L86.9939 407.739M86.9939 407.739C87.2603 407.739 87.2603 407.739 86.9939 407.739ZM86.9939 407.739L87.66 407.605L88.1927 407.339M88.1927 407.339C88.0151 407.339 88.0151 407.339 88.1927 407.339ZM88.1927 407.339H88.0597L88.7258 407.072L89.6583 406.806H90.058L90.9905 406.539H91.923L92.5891 406.273L93.3886 406.006L94.1877 405.473L95.5199 404.673C95.8752 404.496 96.6746 403.829 97.918 402.674C99.0725 401.431 100.005 400.276 100.716 399.21L103.113 395.878C104.002 394.723 104.712 393.612 105.245 392.546L106.577 390.148L109.508 383.218C111.284 379.042 112.528 375.666 113.238 373.089C114.127 370.602 114.837 368.825 115.37 367.759L116.702 365.227L117.102 363.894M117.102 363.894C117.191 363.717 117.191 363.717 117.102 363.894ZM117.102 363.894L117.501 363.228L120.432 357.897L124.163 351.234C124.962 349.635 125.539 348.658 125.894 348.302L126.694 346.97L127.227 346.57H126.96L128.026 345.903L130.024 344.704L131.49 344.038L132.156 343.638L132.422 343.371L134.954 342.172C136.286 341.639 137.396 341.283 138.284 341.106C139.172 340.928 140.416 340.395 142.014 339.507L145.478 337.508C146.188 336.975 146.855 336.575 147.476 336.308L148.409 335.909L148.809 335.775C149.075 335.775 149.564 335.598 150.274 335.242L152.139 334.176L152.672 333.776M152.672 333.776C152.583 333.865 152.583 333.865 152.672 333.776ZM152.672 333.776H152.939C153.116 333.599 153.471 333.465 154.004 333.376V335.109C154.004 336.442 153.827 337.508 153.471 338.307L152.939 339.64L152.539 340.573L151.34 342.305L149.475 344.571L148.142 346.303L147.743 347.103L146.81 348.835C146.1 349.813 145.123 352.034 143.879 355.499C142.547 359.052 141.215 363.05 139.883 367.492C138.462 371.846 137.263 375.044 136.286 377.087C135.309 379.131 134.465 381.174 133.754 383.218C133.133 385.261 132.511 386.994 131.889 388.415L130.824 391.214L130.557 392.013L130.291 393.346L129.891 396.011V398.41L129.625 404.673C129.447 408.938 129.58 412.803 130.024 416.268C130.469 419.821 130.868 422.309 131.223 423.73C131.49 425.152 131.756 426.129 132.023 426.662L132.556 427.728L133.088 428.661L133.488 429.327M133.488 429.327C133.488 429.416 133.488 429.416 133.488 429.327ZM133.488 429.327L133.888 430.127L134.421 431.726C134.598 432.259 135.22 432.748 136.286 433.192L139.217 434.658L141.481 435.858L143.746 436.79L145.744 437.457C146.1 437.634 146.766 437.768 147.743 437.857L150.008 437.99L151.873 438.123L154.271 438.656C154.981 438.923 156.003 439.1 157.335 439.189H167.593C168.126 439.012 168.259 438.923 167.993 438.923L172.256 438.256L179.316 437.19L183.712 436.524L187.176 435.858L192.105 435.324C194.503 435.147 196.28 434.925 197.434 434.658L200.099 433.992L200.632 433.859L201.431 433.592L204.629 433.059L208.092 432.792L209.158 432.659H210.49H210.756C211.023 432.57 211.023 432.526 210.756 432.526L211.822 432.792C212.888 433.059 214.087 433.192 215.419 433.192H220.082H221.148L225.144 432.926C227.01 432.748 228.519 432.792 229.674 433.059L232.738 433.859L235.003 434.525L236.868 434.791C237.312 434.88 238.511 435.413 240.465 436.391C242.241 437.368 245.794 438.034 251.123 438.39L262.713 438.923H268.575C270.085 438.923 271.55 438.834 272.971 438.656C274.392 438.478 275.547 438.212 276.435 437.857C277.323 437.59 278.034 437.279 278.566 436.924L280.565 436.124L282.563 435.591C283.185 435.591 284.117 435.28 285.361 434.658L288.425 433.325C289.224 432.881 289.801 432.437 290.157 431.993L291.089 430.927L291.755 429.994L292.022 429.727L292.688 429.061L293.487 427.995C293.576 427.906 293.576 427.862 293.487 427.862H293.62C293.709 428.039 293.887 427.195 294.153 425.329C294.509 423.553 294.42 421.776 293.887 419.999L292.555 416.268C292.288 415.379 292.022 414.757 291.755 414.402L291.222 413.069L290.956 412.27V412.136V410.537C291.133 409.649 291.045 407.65 290.689 404.54L289.89 397.344L289.357 393.079L289.091 390.947L288.691 388.415L288.425 384.95V383.084V381.752L287.892 380.153L288.158 377.887C288.425 376.999 288.602 376.022 288.691 374.955V372.423C288.691 371.712 288.736 371.402 288.824 371.49L288.957 371.091L289.224 370.158M289.224 370.158C289.313 369.802 289.313 369.802 289.224 370.158ZM289.224 370.158V369.891L289.89 367.892L290.157 366.56L290.423 365.36V365.627L290.823 364.294C291.178 363.228 291.311 362.65 291.222 362.562M296.551 148.271L298.017 149.47C298.283 149.559 299.526 150.847 301.747 153.335C303.967 155.823 305.521 157.733 306.41 159.065L309.074 163.063C309.962 164.218 310.406 164.929 310.406 165.195C310.584 165.373 311.028 166.439 311.738 168.394C312.627 170.26 313.248 171.947 313.603 173.458L314.403 177.323L314.669 179.055V183.053C314.758 185.807 314.714 188.028 314.536 189.716L313.737 193.714L313.071 196.38C312.982 196.824 312.449 198.023 311.472 199.978C310.584 201.932 309.74 203.487 308.941 204.642L306.676 207.84C305.788 208.906 304.456 210.239 302.679 211.838C300.193 213.437 298.416 214.504 297.35 215.037L296.551 148.271ZM253.521 219.968L250.856 220.9L249.924 221.567L247.659 222.633L244.994 223.966L240.465 225.032C238.333 225.476 236.024 225.742 233.537 225.831C230.873 225.831 228.919 225.742 227.676 225.565C226.343 225.298 224.745 224.765 222.88 223.966C221.015 223.166 219.416 222.322 218.084 221.433C216.751 220.545 214.487 218.635 211.29 215.703L253.521 219.968ZM215.553 170.26L215.419 169.593L215.819 171.459C215.819 171.903 216.086 173.058 216.618 174.924C217.063 176.701 217.018 178.877 216.485 181.454H215.952L215.686 180.121L215.286 178.788L214.087 171.459L213.821 171.192C213.909 171.015 213.909 170.926 213.821 170.926L213.954 170.393C214.132 169.86 214.354 169.46 214.62 169.193L214.886 168.927V168.66C215.153 169.371 215.286 169.505 215.286 169.06V169.86L215.553 171.859V172.525L215.819 173.191C215.819 173.724 215.952 174.346 216.219 175.057L216.485 176.656V177.056L215.952 174.391V173.458V172.658V168.794V169.327V169.86L216.485 172.259L216.618 173.591V173.058C216.796 173.058 216.618 174.08 216.085 176.123L215.153 176.256C214.975 176.612 214.931 174.435 215.02 169.727V169.993L215.819 170.26H215.553Z" stroke="black" stroke-width="7.73268" stroke-linecap="round" stroke-linejoin="round"/>
<path d="M283.317 347.516L283.051 348.448V351.514L283.317 353.379C283.584 354.623 283.717 355.068 283.717 354.712C283.717 355.601 284.206 356.134 285.183 356.311L288.114 356.978H290.911H293.043C294.108 356.8 295.396 356.444 296.906 355.911L300.104 354.579L301.436 354.046M302.368 353.379L304.233 352.047M305.432 350.981L306.365 349.248L307.697 345.783L308.63 342.851L309.163 340.986L309.429 339.653L309.562 338.987M309.562 338.987C309.562 338.898 309.562 338.898 309.562 338.987ZM309.562 338.987L309.829 337.121L310.495 332.057L311.028 327.526C311.205 326.46 311.205 325.26 311.028 323.928C310.85 322.506 310.628 321.351 310.361 320.463C310.095 319.574 309.873 319.041 309.695 318.864C309.695 318.686 309.651 318.642 309.562 318.73L308.63 316.732C307.919 315.488 306.853 314.466 305.432 313.666L302.235 312.067L300.636 311.401H300.237L299.837 311.134L299.171 310.735L298.638 310.601M297.439 310.201C297.617 310.201 297.617 310.201 297.439 310.201ZM297.439 310.201C297.173 310.112 297.173 310.112 297.439 310.201ZM297.439 310.201L296.64 309.935L294.641 309.535L293.842 309.402H294.242L290.512 308.869L290.378 310.201C290.201 311.179 290.467 312.2 291.178 313.266C291.888 314.333 292.377 315.354 292.643 316.332H292.243L291.444 316.065L290.911 315.665H291.044M291.044 315.665C291.133 315.843 291.133 315.843 291.044 315.665ZM291.044 315.665L290.245 315.265L288.913 314.466L287.581 313.799L286.515 313.4M286.515 313.4C286.426 313.4 286.426 313.4 286.515 313.4ZM286.515 313.4C286.249 313.4 286.027 313.267 285.849 313C285.671 312.733 285.005 312.289 283.851 311.667L280.919 310.335C280.12 309.89 279.499 309.713 279.054 309.801C278.61 309.89 278.166 310.112 277.722 310.468L277.456 311.001H277.589V311.401L277.323 313.266V314.199M277.323 314.199C277.323 314.022 277.323 314.022 277.323 314.199ZM277.323 314.199V314.866L277.589 315.399L277.722 315.665M277.722 315.665C277.722 315.754 277.722 315.754 277.722 315.665ZM277.722 315.665V316.332C277.811 316.776 278.388 317.62 279.454 318.864L284.117 323.528H282.918L281.586 322.995L280.253 322.595L279.188 321.929L277.856 320.996L277.456 320.596L276.923 320.33L276.39 320.063H275.99L274.658 319.93H273.992M273.992 319.93C273.814 319.841 273.814 319.841 273.992 319.93ZM273.992 319.93L272.926 319.53L272.127 319.263L269.463 319.663L269.329 320.063L269.196 322.062L269.329 322.728C269.507 323.35 269.507 323.483 269.329 323.128L276.124 329.791H275.058L273.326 329.658H273.459L272.66 329.258H272.26L271.727 328.992C271.372 328.992 270.706 328.814 269.729 328.459L268.53 328.192H268.796L267.864 328.059L266.132 327.926H265.732H265.333C265.155 327.748 264.844 327.97 264.4 328.592L263.468 330.458L263.068 331.391L262.935 332.19V334.056M262.935 334.056C262.935 333.878 262.935 333.878 262.935 334.056ZM262.935 334.056V334.189L262.802 333.923L263.334 335.389L263.867 336.455C264.134 336.455 264.4 336.632 264.666 336.988C264.933 337.343 265.732 337.832 267.065 338.454C268.397 339.075 269.551 339.52 270.528 339.786L271.861 340.319M272.793 340.852L274.658 341.519L275.591 341.785H275.724M278.921 343.385L279.987 344.317L281.319 345.384L281.453 345.65M281.453 345.65C281.364 345.561 281.364 345.561 281.453 345.65ZM281.453 345.65L281.852 345.917L282.651 346.583L282.918 346.983V346.849H282.785M282.785 346.849V346.716V346.583M282.785 346.849V346.583M282.785 346.849L283.184 347.383L283.851 348.982L284.383 350.314L284.25 350.048L284.383 351.381L284.65 351.78L284.916 352.18C285.094 352.535 285.183 353.024 285.183 353.646V354.979L285.316 355.245M282.785 346.583C282.696 346.583 282.696 346.583 282.785 346.583Z" stroke="black" stroke-width="7.73268" stroke-linecap="round" stroke-linejoin="round"/>
<path d="M345.177 385.617L344.511 385.883L341.846 386.816C340.248 387.172 338.916 387.305 337.85 387.216H333.453C331.411 387.127 329.634 387.216 328.125 387.482L323.595 388.282L320.264 388.549C319.465 388.46 318.577 388.193 317.6 387.749L314.935 386.683L312.271 386.016C311.294 385.661 310.006 385.35 308.408 385.084L305.743 384.551L305.344 384.284L304.011 383.884C303.301 383.618 302.368 383.44 301.214 383.351C300.059 383.262 299.038 383.085 298.15 382.818L296.817 382.418L296.151 382.152L294.153 381.486C293.531 381.219 292.865 380.508 292.155 379.353C291.355 378.287 290.911 377.221 290.823 376.155V374.023L320.398 327.113L319.998 326.58V326.314L320.398 324.981L320.664 324.181C320.842 324.181 320.93 323.871 320.93 323.249L321.463 323.115V323.249L322.529 321.916C322.885 321.028 323.462 320.361 324.261 319.917V321.516L324.794 322.982L325.327 323.515L326.126 324.181L327.192 324.848L328.791 325.781L329.723 326.047H329.59L330.256 326.447L331.988 327.38L332.92 327.779H332.787L333.054 327.913L333.853 328.712L335.452 330.045L338.116 332.444L341.313 335.109L345.71 338.041L348.374 339.507L348.907 339.907L350.239 340.84L352.371 342.705C353.614 343.682 354.813 345.148 355.968 347.103C357.122 349.058 357.655 351.234 357.566 353.633L357.3 357.631L356.9 360.296L356.101 366.16C355.657 368.648 355.213 370.558 354.769 371.89L354.369 373.356L354.103 374.023L353.303 376.421C353.037 377.221 352.681 377.976 352.237 378.687L351.172 380.286C350.817 380.642 350.55 381.086 350.372 381.619L349.573 382.952L349.04 383.884L348.64 384.284H348.907L347.042 384.951L345.177 385.617ZM345.177 385.617C345.266 385.706 345.266 385.706 345.177 385.617ZM324.261 317.785V319.117C324.794 318.584 324.972 318.318 324.794 318.318V318.184C325.416 317.029 325.638 316.496 325.46 316.585L325.726 315.519C325.904 314.364 326.082 311.921 326.259 308.19C326.526 308.19 326.703 307.79 326.792 306.99V305.124V303.792L326.526 303.259L326.393 302.992V303.125L326.126 302.859L323.995 300.593C322.84 299.439 322.13 298.639 321.863 298.195L321.73 298.061L320.93 296.462C320.131 295.218 319.376 294.241 318.666 293.53C317.955 292.642 317.511 292.198 317.333 292.198L316.667 291.665L316.135 291.265L315.069 290.865C314.536 290.599 314.003 290.154 313.47 289.532L312.671 288.6M312.671 288.6C312.582 288.6 312.582 288.6 312.671 288.6ZM312.671 288.6H312.404L311.605 288.066L310.273 287.4L309.34 287.134L309.207 287.267C309.118 287.445 308.452 287 307.209 285.934C306.054 284.868 304.855 283.891 303.612 283.003L301.08 281.004L299.748 279.937L298.682 279.271L298.416 279.138L297.883 278.738L296.817 278.071L296.284 277.805H296.418L295.752 277.538L294.02 277.006C293.309 276.917 292.998 276.828 293.087 276.739H290.556L290.156 276.872L289.224 277.139L287.892 277.405H287.092V277.538H286.426L285.893 277.672L285.094 277.938C284.295 278.027 283.717 278.338 283.362 278.871L282.429 279.804L281.63 280.604L281.364 280.737L280.698 281.536L278.833 283.535C278.3 284.157 277.722 284.646 277.101 285.001L276.301 285.534L275.502 286.201L274.57 286.867L274.436 287.134V287C274.347 286.823 273.148 287.844 270.839 290.065L265.91 295.396L263.645 298.061L262.713 299.394M261.38 300.86L259.648 303.259L258.316 305.391M256.718 307.39L255.252 309.922L253.121 312.587L252.188 313.92L251.922 314.186L251.655 314.32L251.389 314.853L250.989 315.253C251.078 315.253 251.078 315.297 250.989 315.386L250.59 316.319L250.19 317.918L250.057 318.584L249.79 318.984C249.613 319.162 249.746 321.827 250.19 326.98M251.789 329.512L252.588 331.378V331.777L252.987 332.71L253.387 333.377L253.52 333.91L253.787 335.242V335.909C253.787 335.642 253.876 335.864 254.053 336.575V337.375L254.453 338.574C254.542 338.219 254.631 338.441 254.719 339.24C254.808 339.951 255.519 340.884 256.851 342.039L259.648 344.704C260.359 345.237 261.07 345.548 261.78 345.637L262.846 345.904M262.846 345.904C262.757 345.904 262.757 345.904 262.846 345.904ZM262.846 345.904V346.037L263.379 346.437L263.912 346.703H264.178C264.178 346.881 264.356 346.97 264.711 346.97M268.042 347.769L276.291 347.852" stroke="black" stroke-width="7.73268" stroke-linecap="round" stroke-linejoin="round"/>
<path d="M323.196 309.788L323.862 310.588C323.329 310.943 322.352 310.765 320.931 310.055C319.421 309.344 318.355 308.767 317.733 308.322L316.401 307.123L315.735 306.59L315.335 306.19L314.669 305.39M314.669 305.39C314.403 305.035 314.403 305.035 314.669 305.39ZM314.669 305.39L314.003 304.591L312.937 303.258L312.804 303.125L312.271 302.459L311.472 301.392C311.383 301.215 311.383 301.171 311.472 301.259L311.339 301.126L310.406 300.06L309.607 299.26L308.408 298.594L307.475 298.061L307.076 297.794L306.01 296.995L305.477 296.728L304.944 296.462C304.5 296.284 304.367 296.195 304.545 296.195H304.678L304.145 295.795C304.145 295.884 304.1 295.884 304.011 295.795H303.878L302.813 295.129L301.88 294.463H302.013C302.191 294.64 301.925 294.596 301.214 294.33L299.216 293.396L298.416 292.997H296.551L295.352 292.73C294.464 292.73 294.064 292.641 294.153 292.464L292.155 292.197H292.288H292.022H290.556L289.757 292.464L288.691 292.73M288.691 292.73C288.691 292.819 288.691 292.819 288.691 292.73ZM288.691 292.73L287.892 293.13L287.359 293.396C287.27 293.574 286.915 293.752 286.293 293.93C285.76 294.196 285.005 294.863 284.028 295.929L281.897 298.461L280.565 300.46L279.765 301.392L279.899 301.259C280.076 301.171 279.854 301.526 279.232 302.326L276.035 306.59L272.038 311.387L269.907 314.186L268.974 315.119L268.708 315.785L268.175 316.718C268.175 316.896 268.042 317.074 267.775 317.251L266.843 318.317L266.177 319.117L265.91 319.517L265.377 319.917C265.377 319.739 265.244 319.872 264.978 320.316L264.311 320.983L264.045 321.249L264.178 321.116M264.178 321.116C264.267 321.027 264.267 321.027 264.178 321.116ZM264.178 321.116L263.779 321.516L262.979 322.315L262.18 322.848L261.647 323.115L261.381 323.515L260.448 324.581M227.809 311.521C227.898 311.165 228.12 313.031 228.475 317.118C228.741 321.293 229.185 325.114 229.807 328.579C230.34 332.133 230.562 334.709 230.473 336.308V359.63C230.296 361.051 230.296 363.716 230.473 367.626C230.562 371.446 231.006 375.266 231.805 379.086C232.694 382.907 233.138 386.46 233.138 389.747L233.404 399.609V418.133L233.537 428.261M277.767 279.803L278.566 279.937V280.07C278.833 279.626 278.611 279.137 277.9 278.604C277.19 278.071 276.168 277.005 274.836 275.406L271.372 271.141C270.484 269.897 269.552 269.054 268.575 268.609L267.109 268.076L265.644 267.41V267.143V266.743L277.767 279.803Z" stroke="black" stroke-width="7.73268" stroke-linecap="round" stroke-linejoin="round"/>
<path d="M249.924 328.712C249.835 328.89 249.835 328.801 249.924 328.446H249.524V328.579L131.756 220.634L131.623 219.701V219.168H132.689L132.822 219.568L133.088 220.101L133.888 221.433L135.22 223.299L135.753 224.232V224.099M249.924 328.712C250.013 328.534 250.013 328.534 249.924 328.712ZM249.924 328.712C249.835 328.89 249.835 328.89 249.924 328.712ZM249.924 328.712C250.101 328.534 250.101 328.49 249.924 328.579L249.657 328.845L248.725 329.912C248.192 330.534 247.97 330.622 248.058 330.178C248.058 329.823 247.348 330.4 245.927 331.911C244.417 333.51 243.351 334.842 242.73 335.909C242.019 336.975 241.531 337.863 241.264 338.574C240.909 339.196 240.731 339.64 240.731 339.907V340.04L240.465 340.573L239.665 342.438L238.999 344.171L238.333 345.237L237.8 346.17L237.667 346.303L237.534 346.57L235.269 350.301L231.273 356.698L228.475 360.696C227.853 361.584 227.409 362.118 227.143 362.295L226.077 362.962L225.278 363.494M225.278 363.494C225.278 363.583 225.278 363.583 225.278 363.494ZM225.278 363.494L225.011 363.761L224.079 364.561L223.679 364.961L223.013 365.493C222.569 366.027 221.992 366.56 221.281 367.093L219.549 368.292L218.217 368.958L216.618 369.225H214.886L213.288 369.358H211.023L210.224 369.491C209.602 369.491 208.847 369.314 207.959 368.958L205.428 368.025L203.03 367.093C202.141 366.826 201.164 366.426 200.099 365.893L197.701 364.561L196.368 363.494L195.569 362.828L195.17 362.562L194.503 361.762L193.438 360.429L192.639 359.497L192.372 359.363L190.24 356.032L186.244 349.368C184.823 347.147 183.491 344.571 182.247 341.639C180.915 338.707 179.805 336.575 178.917 335.242L177.051 331.911L175.719 328.845L174.387 325.647L173.321 322.715L172.922 321.649C172.922 322.005 171.811 319.161 169.591 313.12L164.262 298.461C162.93 294.729 161.687 291.709 160.532 289.399L157.734 284.068L156.136 280.87L155.47 278.738L155.07 277.805L153.738 274.74L151.606 269.676L149.741 264.345L148.409 259.947L147.21 257.016L146.011 253.417L145.078 250.352L144.146 245.688C143.613 243.2 142.813 240.313 141.748 237.026C140.771 233.739 139.883 231.384 139.083 229.963L137.485 227.031L136.419 225.165L135.753 224.099M135.753 224.099C135.753 224.188 135.753 224.188 135.753 224.099ZM77.0022 442.388L77.535 441.988C77.7126 441.81 77.8904 441.41 78.068 440.788C78.3345 440.167 78.4674 439.323 78.4674 438.257C78.4674 437.19 78.3345 435.858 78.068 434.259C77.8016 432.659 77.7125 430.616 77.8013 428.128C77.8902 425.729 77.6239 422.887 77.0022 419.599L76.2027 414.668C76.3804 415.113 76.2916 415.646 75.9364 416.268L75.0039 416.534L74.7375 417.201L38.6344 403.341L39.0341 402.408L39.1671 401.875L38.6344 402.808M77.0022 442.388H76.8689M77.0022 442.388C77.2686 442.388 77.1354 442.476 76.6025 442.654L74.8705 443.187H73.1386C73.1386 443.365 72.8278 443.276 72.2061 442.921C71.4068 442.565 70.6074 441.855 69.808 440.788L67.6767 438.257L66.8772 437.457L66.2111 436.657L65.412 435.858M76.8689 442.388C76.9577 442.388 76.9577 442.388 76.8689 442.388ZM65.412 435.858C65.412 435.769 65.412 435.769 65.412 435.858ZM65.412 435.858C65.5008 435.858 65.5008 435.858 65.412 435.858ZM65.412 435.858L65.0123 435.458L64.0798 434.791L63.6801 434.525C62.7031 434.703 62.3923 434.791 62.7476 434.791L62.2145 435.858L61.6817 437.857C61.7705 437.59 61.7705 437.501 61.6817 437.59V438.39L61.5484 439.189V439.322L61.1487 440.922L60.4825 444.387C60.3049 445.63 60.0829 446.563 59.8164 447.185L59.2837 448.251H59.1503L59.0173 448.518L58.7509 449.184L57.9515 450.517L56.7526 452.249L56.2195 453.049V453.315L55.8198 453.982L55.1537 454.915L54.2212 455.714L53.9548 455.981H53.8215L53.0223 456.647L51.9565 457.047M50.0915 456.78C49.381 456.603 49.0699 456.469 49.1587 456.38L48.8923 455.848C48.7147 455.314 48.5814 454.381 48.4926 453.049V449.851L48.3596 448.251V447.318V446.785V446.386L48.0932 437.057H46.3613L45.6952 437.723L45.2954 438.123L44.8957 438.656L44.6293 439.056L44.7627 438.923L44.496 439.189L43.6968 440.122L43.4305 440.655H43.2971L42.631 441.721C42.2757 442.343 42.187 442.432 42.3646 441.988L40.8991 445.319L38.368 451.716C37.8351 453.493 37.3023 454.692 36.7694 455.314L35.8366 456.114L35.1705 456.514C34.5488 456.958 33.8384 457.18 33.0391 457.18H31.4405C31.0853 457.269 30.7299 457.136 30.3747 456.78L29.8416 455.981M29.8416 455.981C29.8416 455.803 29.8416 455.803 29.8416 455.981ZM29.8416 455.981L29.4422 454.648C29.2646 453.582 29.2646 452.072 29.4422 450.117C29.4422 448.162 29.6197 446.652 29.975 445.586L30.7744 443.187L30.9074 442.654L31.3072 441.321L32.2397 438.923L33.3055 435.058C32.6838 435.058 31.7957 435.946 30.6411 437.723L28.243 441.588L27.1772 443.187L26.9108 443.72L26.7778 443.987L26.6444 444.12L26.5111 444.253L25.5786 445.053L24.7795 445.453H24.9125L24.1133 445.853L23.1805 446.386M23.1805 446.386C23.1805 446.297 23.1805 446.297 23.1805 446.386ZM23.1805 446.386C23.1805 446.563 22.6922 446.563 21.7153 446.386M19.5836 443.72V442.787V441.988M19.5836 441.988C19.5836 441.81 19.5836 441.81 19.5836 441.988ZM19.5836 441.988V440.655V437.457V435.191L19.85 434.525V433.992L20.5161 432.393L21.1822 430.527L21.5819 429.461H21.7153L21.5819 429.594L23.5803 425.063L26.7778 418.533C27.3995 417.378 28.5984 415.823 30.3747 413.869L34.238 409.471C35.0373 408.494 35.4814 407.783 35.5702 407.339L36.3697 406.006L37.0358 405.073M37.0358 405.073C37.1246 404.896 37.1246 404.896 37.0358 405.073ZM37.0358 405.073L37.1688 404.94L37.9682 403.608L38.6344 402.674V402.808M38.6344 402.808C38.4567 402.985 38.4567 402.985 38.6344 402.808ZM281.764 441.455C281.142 439.323 281.319 440.522 282.296 445.053L285.227 457.313C286.116 461.045 286.693 464.776 286.959 468.508C287.226 472.239 287.359 475.526 287.359 478.369C287.359 481.123 287.27 483.344 287.092 485.032C287.004 486.809 286.782 488.497 286.426 490.097L285.627 494.095L283.362 500.092C282.296 503.112 280.52 506.977 278.033 511.686L278.3 509.687L278.833 507.155M141.481 440.522V438.656V437.457V469.174C141.481 473.794 141.615 477.037 141.881 478.902C142.147 480.768 142.325 482.856 142.414 485.166C142.591 487.387 143.035 489.341 143.746 491.029C144.456 492.629 145.078 493.784 145.611 494.494L146.677 496.094L147.343 497.026L149.608 499.825L153.205 504.356L155.603 507.421L157.734 510.353L160.932 514.751L164.129 519.415L166.793 522.747L168.792 524.746L170.39 526.478L171.456 527.411L173.188 529.277L175.586 531.942L177.584 534.474L179.316 536.207C179.76 536.74 180.249 537.184 180.782 537.539C181.314 537.984 182.647 538.783 184.778 539.938C186.91 541.004 188.331 541.892 189.041 542.603C189.929 543.225 190.951 544.113 192.105 545.268C193.26 546.423 195.347 547.712 198.367 549.133C201.298 550.466 203.518 551.399 205.028 551.932C206.627 552.554 207.781 553.087 208.492 553.531L210.623 554.997C211.245 555.53 212 555.974 212.888 556.33C213.776 556.774 216.174 558.995 220.082 562.993L229.141 571.788C231.184 573.743 233.493 577.03 236.069 581.65C238.555 586.27 240.642 589.824 242.33 592.311C243.929 594.71 245.838 598.442 248.058 603.506C250.279 608.659 251.833 612.523 252.721 615.1C253.609 617.676 254.32 619.453 254.853 620.43L255.919 622.829L256.585 624.162C256.851 624.428 257.162 625.095 257.517 626.161C257.873 627.227 257.961 627.627 257.784 627.36L258.05 628.293L258.983 631.358L259.649 633.623L259.915 635.356V636.156L260.048 636.289L260.448 637.355L260.581 638.954V641.086L260.981 642.286L261.248 642.419C261.603 642.686 262.535 642.375 264.045 641.486C265.644 640.598 267.065 639.487 268.308 638.155C269.551 636.822 270.529 635.578 271.239 634.423L272.172 633.091C272.172 633.357 272.438 633.002 272.971 632.024L276.568 626.694C278.344 624.117 280.121 621.852 281.897 619.897C283.762 617.942 285.982 616.477 288.558 615.5C291.222 614.611 294.064 613.501 297.084 612.168C300.015 610.924 302.724 609.902 305.211 609.103C307.697 608.214 310.095 607.015 312.404 605.505C314.714 604.083 318.932 602.306 325.061 600.174C324.794 601.062 324.794 600.352 325.061 598.042C325.327 595.732 325.327 593.644 325.061 591.778C324.616 589.824 323.95 588.091 323.062 586.581C322.174 585.07 321.508 583.605 321.064 582.183C320.442 580.762 319.421 579.384 318 578.052C316.579 576.63 315.291 574.898 314.136 572.855L309.873 566.191C308.097 563.526 306.72 560.994 305.743 558.595C304.678 556.285 303.612 554.375 302.546 552.865C301.48 551.443 300.459 549.889 299.482 548.201C298.416 546.601 297.528 545.002 296.818 543.403L295.086 539.671L294.02 537.939L293.753 537.672H293.887L293.221 536.873L292.022 535.54L291.089 534.208L290.423 533.275L290.157 532.608L288.824 530.476C288.203 529.41 287.448 528.433 286.56 527.544L284.028 524.879L281.364 521.947L279.099 519.282L277.767 517.416L277.101 516.35L276.967 515.817L274.969 513.152L271.905 509.42C271.195 508.443 270.751 507.688 270.573 507.155L270.173 505.955L269.507 504.889L269.241 504.223L269.507 504.489H269.241C269.241 504.312 268.886 504.001 268.175 503.557L267.243 502.89H267.109C266.932 502.713 266.932 502.668 267.109 502.757L265.777 500.891C264.711 499.736 263.868 498.981 263.246 498.626L261.514 497.693C260.981 497.426 260.359 496.938 259.649 496.227L258.316 494.894L257.118 494.228M256.052 493.428L254.986 492.362L254.586 491.962C254.675 491.962 254.675 491.873 254.586 491.696L253.654 490.896L253.121 490.363L252.988 490.23L252.188 489.43L251.522 488.764L250.989 488.098L250.19 487.165L249.524 486.765V486.632" stroke="black" stroke-width="7.73268" stroke-linecap="round" stroke-linejoin="round"/>
<path d="M179.316 539.005C179.671 538.827 179.671 539.849 179.316 542.07C178.872 544.202 178.25 545.934 177.451 547.267L175.186 550.599L172.922 553.264L170.923 555.663L168.925 558.328C168.214 559.217 167.504 559.972 166.793 560.594C166.083 561.304 164.884 562.237 163.196 563.392L159.333 566.191L157.201 567.524L154.937 568.589L152.539 569.656L147.076 571.921C144.057 573.165 141.703 573.965 140.016 574.32C138.328 574.675 137.174 575.164 136.552 575.786C135.93 576.408 135.62 576.985 135.62 577.519V578.451V578.851C135.62 579.118 135.797 579.562 136.152 580.184L136.818 581.383L137.085 581.65V581.383C136.818 581.205 137.351 582.405 138.684 584.981C139.927 587.469 141.836 589.957 144.412 592.444C146.988 594.843 149.03 596.62 150.54 597.775L153.737 600.174L156.135 602.039L158.534 603.772L160.132 605.104L161.331 606.037L163.996 607.903C165.594 608.969 166.882 609.991 167.859 610.968L170.39 613.633L172.388 615.366L174.12 616.698L174.92 617.365V617.231L175.586 617.765L176.785 618.831C176.962 619.186 177.229 619.497 177.584 619.764L177.984 620.297L178.383 620.83L179.316 621.763C179.583 622.118 179.76 622.251 179.849 622.162H179.716L181.048 623.362C182.114 624.161 183.268 624.828 184.512 625.361L186.91 626.693L188.375 627.36L189.308 627.76L189.841 627.893L190.507 628.026L191.573 627.76C192.461 627.582 193.038 627.315 193.304 626.96L194.503 625.761L195.303 624.961C195.303 624.783 195.347 624.739 195.436 624.828L196.768 622.162C197.656 620.386 198.633 618.697 199.699 617.098C200.676 615.677 202.141 614.122 204.095 612.434C206.049 610.746 208.092 609.235 210.224 607.903C212.355 606.57 214.309 605.104 216.085 603.505C217.861 601.906 219.416 600.751 220.748 600.04L223.412 598.708L224.345 598.308L225.411 597.641L227.942 596.042L231.139 594.31C232.027 593.954 232.693 593.599 233.138 593.244L233.937 592.444V592.178C234.026 592.089 234.026 592.089 233.937 592.178L234.336 591.778L235.269 590.712L235.802 590.179L235.669 590.312L238.067 588.18C238.067 588.357 237.667 588.802 236.868 589.512L235.269 591.378" stroke="black" stroke-width="7.73268" stroke-linecap="round" stroke-linejoin="round"/>
<path d="M187.31 630.292V629.226C187.843 629.226 188.287 630.203 188.642 632.158L188.908 636.689V645.217L189.041 652.547C189.13 654.324 188.997 656.012 188.642 657.611C188.287 659.21 187.798 660.676 187.176 662.009L184.645 668.672C183.668 671.604 182.691 674.181 181.714 676.402C180.648 678.534 180.027 679.911 179.849 680.533C179.583 681.244 179.005 681.999 178.117 682.799C177.229 683.598 176.474 684.175 175.853 684.531L174.121 685.331L173.321 685.597H173.588H173.321L172.256 685.464L171.323 685.197L170.657 685.064L169.858 684.798V684.931C169.769 685.109 169.325 684.887 168.525 684.265C167.904 683.643 167.015 682.976 165.861 682.266C164.795 681.555 163.64 680.622 162.397 679.467C161.154 678.223 160.177 677.113 159.466 676.135C158.756 675.158 158.045 674.358 157.335 673.736L152.938 670.405C150.896 668.894 149.208 667.118 147.876 665.074C146.633 663.031 145.7 660.987 145.078 658.944C144.368 656.989 143.169 654.413 141.481 651.214L137.485 643.218C136.597 641.175 135.442 639.043 134.021 636.822L130.557 630.558L128.426 626.027L127.36 623.362C127.005 622.651 126.694 621.63 126.427 620.297L125.628 616.699L125.228 613.634L125.095 609.103L124.829 602.173V596.842V594.577L125.362 593.244C125.628 592.711 125.717 592.4 125.628 592.311C125.45 592.222 126.072 591.512 127.493 590.179C128.825 588.935 130.024 587.958 131.09 587.247L133.488 585.914L134.287 585.648L135.087 585.515L136.419 584.982L137.085 584.715" stroke="black" stroke-width="7.73268" stroke-linecap="round" stroke-linejoin="round"/>
<path d="M170.524 618.165V617.632C171.234 617.809 170.435 617.809 168.125 617.632C165.727 617.454 163.729 617.587 162.13 618.032C160.532 618.476 159.377 618.965 158.667 619.498L157.734 620.297L157.335 620.83L156.669 621.896L156.535 622.163L156.269 622.962L155.869 624.295L155.736 625.628L155.603 628.027V632.957C155.603 633.757 155.692 634.512 155.869 635.223C155.869 635.934 156.002 636.334 156.269 636.422M174.92 640.287H179.849H181.981L176.385 640.02C172.833 639.843 169.724 639.843 167.06 640.02L159.999 641.087C158.045 641.531 156.091 642.197 154.137 643.086C152.183 643.974 150.54 644.951 149.208 646.017L145.878 648.683L144.412 649.882H144.279V649.749L144.013 649.616L174.92 640.287Z" stroke="black" stroke-width="7.73268" stroke-linecap="round" stroke-linejoin="round"/>
<path d="M262.18 643.618H263.912C263.468 642.907 263.69 643.44 264.578 645.217C265.466 646.994 266.132 648.593 266.576 650.015L267.375 653.213L267.775 655.079L268.175 657.478L268.574 660.01L269.107 662.409L269.64 665.607L270.306 668.139L270.839 669.338C270.839 669.605 270.972 669.96 271.239 670.405L271.638 671.204L271.772 671.471L272.704 672.67L273.37 673.603L273.903 674.003L275.369 674.935L276.568 675.602L277.633 676.135L278.832 676.801C279.099 677.157 280.431 677.379 282.829 677.468C285.316 677.645 287.448 677.512 289.224 677.068C290.911 676.712 292.154 676.268 292.954 675.735L298.682 673.203C301.524 671.959 304.988 670.804 309.074 669.738C313.159 668.672 316.268 667.695 318.399 666.806C320.531 665.918 322.84 665.429 325.327 665.34C327.725 665.074 330.167 664.363 332.654 663.208C335.141 661.964 337.938 660.365 341.047 658.411C344.067 656.367 346.998 654.768 349.84 653.613C352.682 652.369 354.902 651.303 356.501 650.415L361.296 647.616C362.806 646.55 363.872 645.661 364.494 644.951L365.826 643.618L367.425 642.019L369.689 639.887L371.288 638.421L371.821 637.888M371.821 637.888C371.821 637.976 371.821 637.976 371.821 637.888ZM371.821 637.888L372.354 637.355L373.286 636.288L373.686 635.622L373.553 635.889C373.553 636.066 373.953 635.489 374.752 634.156L376.351 631.491C376.617 630.958 376.839 630.07 377.017 628.826L377.283 626.16V624.295V623.362H377.549C377.638 623.273 377.416 622.695 376.883 621.629L375.285 619.23L373.952 617.898L372.62 616.432M370.222 614.7C368.89 614.344 367.425 613.767 365.826 612.967L361.83 611.368L359.964 611.101L357.3 610.435L351.038 609.102L345.443 608.436L342.512 608.17L340.913 608.036L339.049 607.903L337.05 607.77L331.855 606.57C329.19 605.948 325.06 605.326 319.465 604.705L319.731 604.971C319.909 604.971 320.131 605.104 320.398 605.371M179.849 628.959H180.515C180.515 629.225 177.273 629.225 170.79 628.959L160.532 628.826L179.849 628.959Z" stroke="black" stroke-width="7.73268" stroke-linecap="round" stroke-linejoin="round"/>
<path d="M343.045 645.351C342.69 645.706 342.069 646.062 341.18 646.417L336.784 648.016L328.125 651.614L316.667 656.146L308.408 658.944L301.747 661.076L296.951 662.409L296.151 662.809H295.885L294.819 663.342L293.221 663.875L295.485 662.276L295.086 662.542L295.618 662.143L296.418 661.343L297.75 660.543C298.372 660.365 298.594 660.365 298.416 660.543C298.327 660.632 298.283 660.632 298.283 660.543H298.549L299.482 659.877L300.281 659.344H300.548L301.613 658.944L303.079 658.278L303.479 658.011L303.878 657.878L305.61 657.345L308.008 656.012L311.472 653.747C313.071 652.769 313.914 652.147 314.003 651.881L315.069 651.081L315.868 650.149L316.934 649.615L318 648.949L318.533 648.683L318.666 648.549L319.065 648.283L320.398 647.616L321.464 647.083H321.73L322.662 646.55L323.595 646.017L324.128 645.751L325.46 644.818C325.904 644.374 326.792 643.885 328.125 643.352L332.654 641.619C334.43 640.998 335.629 640.687 336.251 640.687C336.873 640.598 337.761 640.198 338.915 639.487L341.846 638.155L343.845 637.355L347.175 636.422C348.952 635.889 351.305 634.956 354.236 633.623C357.078 632.291 359.831 631.358 362.496 630.825C365.16 630.292 366.492 630.203 366.492 630.558H366.359L366.226 630.958L364.627 635.356L364.894 635.622L364.094 636.022L364.361 635.889L363.828 636.555L363.029 637.621M345.31 644.152L349.84 642.419C351.616 641.62 352.948 641.131 353.836 640.953L355.835 640.42L357.167 640.287C357.522 640.287 357.833 640.198 358.099 640.02M358.099 640.02C358.366 640.02 358.366 640.02 358.099 640.02ZM358.099 640.02L359.432 639.487C360.497 639.132 361.386 638.688 362.096 638.155L363.029 637.621M363.029 637.621L362.895 637.755M321.863 610.702C322.041 610.258 321.863 612.035 321.33 616.033C320.886 620.119 320.353 623.318 319.732 625.628L318.533 630.159C318.355 630.958 317.733 631.713 316.667 632.424C315.69 633.224 314.758 633.846 313.87 634.29L311.872 635.489L310.939 636.022M308.408 637.222C306.809 638.199 305.61 639.132 304.811 640.02L303.212 641.886L302.413 642.686C302.235 642.774 302.191 642.774 302.279 642.686L301.214 643.618C300.503 644.418 298.86 645.706 296.284 647.483L290.289 651.481C288.868 652.547 287.758 653.214 286.959 653.48C286.16 653.836 285.627 654.191 285.36 654.546L284.961 655.079C284.961 654.902 282.607 657.611 277.9 663.208H278.3" stroke="black" stroke-width="7.73268" stroke-linecap="round" stroke-linejoin="round"/>
<path d="M299.349 613.501V614.3C299.704 614.3 299.304 614.567 298.15 615.1C297.084 615.722 296.196 616.876 295.485 618.565C294.864 620.341 294.73 621.896 295.085 623.229C295.352 624.65 295.707 625.628 296.151 626.161L298.016 628.293L300.148 630.159L301.613 631.358L301.88 631.492L302.679 631.891L305.077 633.224L306.676 634.023M306.01 613.367C306.72 613.19 306.987 613.012 306.809 612.834C306.987 612.657 307.164 612.257 307.342 611.635L307.475 612.967V620.963C307.475 622.118 307.608 623.007 307.875 623.629L311.605 628.959L311.205 628.826L310.672 628.426L306.01 613.367Z" stroke="black" stroke-width="7.73268" stroke-linecap="round" stroke-linejoin="round"/>
<path d="M95.9195 290.598L95.7861 289.798L95.3867 288.066L95.12 285.401V280.736L95.2533 276.472L96.0528 272.474C96.4081 270.875 96.8521 269.364 97.385 267.943C97.7403 266.61 98.2286 265.278 98.8503 263.945C99.472 262.701 100.405 261.146 101.648 259.281L104.579 255.149L106.311 252.884L109.508 249.419L113.505 245.421L116.036 243.422L117.501 242.356L119.1 241.556L120.699 241.023L121.631 240.757H122.297L123.23 240.624H125.095M156.269 258.614V258.215L156.002 256.482V254.217L156.402 252.351C156.491 251.907 156.846 251.196 157.468 250.219L158.8 247.82L160.266 246.354L161.598 245.288L162.664 244.621L163.33 244.222L164.262 244.088C164.795 243.911 165.683 243.778 166.927 243.689L156.269 258.614ZM128.825 408.405H126.028L123.763 407.872L122.43 407.472L120.699 406.672L119.1 405.873C118.833 405.784 118.301 405.34 117.501 404.54C116.613 403.829 115.725 402.896 114.837 401.741C113.949 400.586 113.416 399.787 113.238 399.342L112.439 398.143L111.773 396.811L110.974 395.211L110.174 393.612L109.508 392.146L108.842 390.947L108.176 389.747L128.825 408.405Z" stroke="black" stroke-width="7.99933" stroke-linecap="round" stroke-linejoin="round"/>
<path d="M133.888 260.214C133.621 257.815 133.355 256.127 133.088 255.15L132.422 252.884L131.623 251.285L130.823 249.953L130.157 249.02L129.358 247.954L128.692 247.021L128.159 246.354L127.626 245.688C127.626 245.51 127.493 245.288 127.226 245.022L126.161 243.689L125.362 242.889L125.095 242.49L124.695 241.423C124.518 240.979 124.429 240.491 124.429 239.958V238.092L124.695 237.425L125.228 236.493L125.761 235.826L126.427 235.16L127.093 234.494L127.493 234.094L128.159 233.561L129.091 232.895L129.625 232.628L130.69 232.095L131.223 231.828L132.156 231.562L133.221 231.428L134.82 231.295L136.152 231.162L137.351 231.029L138.417 230.762H139.35L140.415 230.496L140.948 230.363L141.481 230.229L142.414 230.096H142.68L143.746 229.829L144.679 229.696" stroke="black" stroke-width="7.99933" stroke-linecap="round" stroke-linejoin="round"/>
</svg>
